<svg width="46" height="47" viewBox="0 0 46 47" fill="none" xmlns="http://www.w3.org/2000/svg">
<g clip-path="url(#clip0_1_19142)">
<path d="M0 8.33341C0 4.09923 3.42688 0.666748 7.65414 0.666748H37.3876C41.6148 0.666748 45.0417 4.09923 45.0417 8.33341V39.0001C45.0417 43.2343 41.6148 46.6667 37.3876 46.6667H7.65414C3.42688 46.6667 0 43.2343 0 39.0001V8.33341Z" fill="#0077B5"/>
<path d="M31.7053 40.2005H38.4878V26.4989C38.4878 19.732 34.398 17.424 30.6135 17.424C27.114 17.424 24.7367 19.7523 24.0804 21.1161V18.0467H17.5576V40.2005H24.3401V28.1894C24.3401 24.9868 26.3129 23.4293 28.3254 23.4293C30.2291 23.4293 31.7053 24.5304 31.7053 28.1005V40.2005Z" fill="white"/>
<path d="M6.18164 10.9571C6.18164 13.2699 7.93231 14.9601 10.0918 14.9601C12.2517 14.9601 14.0024 13.2699 14.0024 10.9571C14.0024 8.64451 12.2517 6.95239 10.0918 6.95239C7.93231 6.95239 6.18164 8.64451 6.18164 10.9571Z" fill="white"/>
<path d="M6.70117 40.1833H13.4834V18.0295H6.70117V40.1833Z" fill="white"/>
</g>
<defs>
<clipPath id="clip0_1_19142">
<rect width="46" height="46" fill="white" transform="translate(0 0.666748)"/>
</clipPath>
</defs>
</svg>
