<svg width="46" height="47" viewBox="0 0 46 47" fill="none" xmlns="http://www.w3.org/2000/svg">
<rect y="0.333374" width="46" height="46" rx="8" fill="#1660E6"/>
<g clip-path="url(#clip0_1_19121)">
<rect width="24" height="24" transform="translate(11 11.3334)" fill="#1660E6"/>
<mask id="mask0_1_19121" style="mask-type:luminance" maskUnits="userSpaceOnUse" x="11" y="11" width="24" height="25">
<path d="M35 11.3334H11V35.3334H35V11.3334Z" fill="white"/>
</mask>
<g mask="url(#mask0_1_19121)">
<path d="M11.8706 29.5914C11.6208 29.9739 11.3396 30.4666 11.1048 30.8371C10.8941 31.1926 11.0073 31.6576 11.3628 31.8759L16.3278 34.9306C16.6908 35.1534 17.1678 35.0364 17.3861 34.6689C17.5856 34.3366 17.8391 33.9069 18.1166 33.4464C20.0853 30.2004 22.0616 30.5949 25.6241 32.3019L30.5809 34.6381C30.9716 34.8256 31.4366 34.6539 31.6084 34.2594L33.9754 28.9119C34.1396 28.5294 33.9716 28.0839 33.5929 27.9121C31.9324 27.1306 30.2801 26.3454 28.6279 25.5526C21.9094 22.3029 16.2221 22.5174 11.8706 29.5914ZM34.1329 17.0753C34.3789 16.6733 34.6601 16.2001 34.8949 15.8251C35.1056 15.4696 34.9886 15.0083 34.6406 14.7938L29.6756 11.7353C29.3126 11.5126 28.8356 11.6296 28.6174 11.9971C28.4224 12.3331 28.1644 12.7591 27.8831 13.2233C25.9181 16.4693 23.9381 16.0711 20.3756 14.3678L15.4383 12.0278C15.0476 11.8403 14.5826 12.0158 14.4108 12.4066L12.0476 17.7541C11.8796 18.1366 12.0513 18.5821 12.4301 18.7538C13.4688 19.2421 15.5313 20.2223 17.3951 21.1133C24.0904 24.3594 29.7859 24.1449 34.1336 17.0746L34.1329 17.0753Z" fill="white"/>
</g>
</g>
<defs>
<clipPath id="clip0_1_19121">
<rect width="24" height="24" fill="white" transform="translate(11 11.3334)"/>
</clipPath>
</defs>
</svg>
