<svg width="47" height="47" viewBox="0 0 47 47" fill="none" xmlns="http://www.w3.org/2000/svg">
<g clip-path="url(#clip0_1_19236)">
<path d="M8.47884 0.333374H38.1872C42.6913 0.333374 46.333 4.06842 46.333 8.68808V37.9787C46.333 42.5984 42.6913 46.3334 38.1872 46.3334H8.47884C3.97467 46.3334 0.333008 42.5984 0.333008 37.9787V8.68808C0.333008 4.06842 3.97467 0.333374 8.47884 0.333374Z" fill="#001E36"/>
<path fill-rule="evenodd" clip-rule="evenodd" d="M9.91602 13.2172V33.1207C9.91602 33.2948 9.99268 33.3721 10.146 33.3721H13.7877H13.8643C13.9985 33.3528 14.0943 33.2367 14.0752 33.1013V26.8924C14.4393 26.8924 14.7077 26.8924 14.8993 26.9117C15.091 26.9311 15.3977 26.9311 15.8577 26.9311C17.4293 26.9311 18.8668 26.757 20.1702 26.2735C21.416 25.8093 22.4893 24.9969 23.256 23.9137C24.0227 22.8305 24.406 21.4572 24.406 19.7937C24.406 18.9232 24.2527 18.0915 23.9652 17.2791C23.6585 16.4475 23.1793 15.6931 22.566 15.0741C21.8377 14.3584 20.956 13.8169 19.9977 13.4881C18.9243 13.0818 17.621 12.8884 16.0493 12.8884C15.4743 12.8884 14.8993 12.8884 14.3052 12.9078C14.0184 12.9171 13.7404 12.922 13.4714 12.9266C13.1833 12.9316 12.9053 12.9364 12.6377 12.9464C12.3867 12.9558 12.1447 12.9607 11.9095 12.9654C11.6599 12.9704 11.4179 12.9752 11.181 12.9851C10.7402 13.0045 10.4335 13.0045 10.1077 13.0045C9.97352 13.0045 9.91602 13.0818 9.91602 13.2172ZM14.0943 23.2367V16.7376C14.2285 16.7182 14.4968 16.6989 14.8802 16.7182C15.2443 16.6989 15.6852 16.6989 16.1835 16.6989C16.9693 16.6796 17.736 16.7956 18.4452 17.0857C19.001 17.2985 19.461 17.6854 19.7868 18.1883C20.0935 18.7105 20.2468 19.3101 20.2277 19.9098C20.2277 20.7608 20.036 21.4185 19.6335 21.902C19.2118 22.3856 18.6752 22.7531 18.0618 22.9272C17.3527 23.1593 16.6052 23.2753 15.8577 23.2753H14.8418C14.6283 23.2753 14.3983 23.2586 14.1518 23.2408C14.1328 23.2395 14.1136 23.238 14.0943 23.2367Z" fill="#31A8FF"/>
<path d="M36.3667 22.0567C35.7917 21.7472 35.1784 21.5344 34.5267 21.399C33.8175 21.2443 33.1084 21.1476 32.38 21.1476C31.9967 21.1282 31.5942 21.1863 31.23 21.283C30.9809 21.3411 30.77 21.4764 30.6359 21.6699C30.54 21.8246 30.4825 22.018 30.4825 22.1921C30.4825 22.3662 30.5592 22.5402 30.6742 22.695C30.8467 22.9077 31.0767 23.0819 31.3259 23.2173C31.7667 23.4494 32.2267 23.6621 32.6867 23.8555C33.7217 24.2037 34.7184 24.6873 35.6384 25.2675C36.2709 25.6738 36.7884 26.2153 37.1525 26.8729C37.4592 27.4919 37.6125 28.1689 37.5934 28.8652C37.6125 29.7744 37.3442 30.6835 36.8459 31.4378C36.3092 32.2115 35.5617 32.8112 34.6992 33.1593C33.76 33.5655 32.61 33.7782 31.23 33.7782C30.3484 33.7782 29.4859 33.7009 28.6234 33.5268C27.9525 33.4108 27.2817 33.1979 26.6684 32.9079C26.5342 32.8305 26.4384 32.6951 26.4575 32.5403V29.1748C26.4575 29.1167 26.4767 29.0393 26.5342 29.0006C26.5917 28.962 26.6492 28.9813 26.7067 29.02C27.4542 29.4648 28.24 29.7744 29.0834 29.9678C29.8117 30.1612 30.5784 30.258 31.345 30.258C32.0734 30.258 32.5909 30.1612 32.9359 29.9871C33.2425 29.8517 33.4534 29.5229 33.4534 29.1748C33.4534 28.9039 33.3 28.6525 32.9934 28.401C32.6867 28.1496 32.0542 27.8594 31.115 27.4919C30.1375 27.1438 29.2367 26.6795 28.3934 26.0993C27.7992 25.6738 27.3009 25.1128 26.9367 24.4552C26.63 23.8362 26.4767 23.1592 26.4959 22.4822C26.4959 21.6505 26.7259 20.8575 27.1475 20.1418C27.6267 19.368 28.3359 18.7491 29.16 18.3623C30.0609 17.8981 31.1917 17.6853 32.5525 17.6853C33.3384 17.6853 34.1434 17.7433 34.9292 17.8593C35.5042 17.9368 36.06 18.0914 36.5775 18.3043C36.6542 18.3236 36.7309 18.401 36.7692 18.4783C36.7884 18.5557 36.8075 18.6331 36.8075 18.7104V21.8633C36.8075 21.9407 36.7692 22.018 36.7117 22.0567C36.5392 22.0954 36.4434 22.0954 36.3667 22.0567Z" fill="#31A8FF"/>
</g>
<defs>
<clipPath id="clip0_1_19236">
<rect width="46" height="46" fill="white" transform="translate(0.333008 0.333374)"/>
</clipPath>
</defs>
</svg>
