<svg width="47" height="46" viewBox="0 0 47 46" fill="none" xmlns="http://www.w3.org/2000/svg">
<rect x="0.333008" width="46" height="46" rx="8" fill="#47973B"/>
<rect width="24" height="24" transform="translate(11.333 11)" fill="#47973B"/>
<path d="M28.5122 20.5197C27.2507 14.957 24.2702 13.133 23.9499 12.434C23.5982 11.9382 23.2194 11.0007 23.2194 11.0007C23.2157 11.0202 23.2157 11.0322 23.2119 11.0517V11.0637C23.2119 11.0795 23.2082 11.087 23.2082 11.1027V11.1185H23.2044C23.2044 11.126 23.2044 11.1342 23.2044 11.1417V11.1687H23.2007C23.2007 11.1762 23.2007 11.1882 23.1969 11.192V11.2152C23.1969 11.2227 23.1969 11.231 23.1932 11.2347V11.2542C23.1932 11.2662 23.1932 11.2775 23.1894 11.2857V11.2895C23.1894 11.3052 23.1857 11.3247 23.1819 11.3405V11.348C23.1782 11.3517 23.1782 11.3555 23.1782 11.36V11.3757H23.1744V11.399H23.1707V11.4147H23.1632V11.438H23.1594V11.4575H23.1557V11.4732H23.1519V11.489H23.1482V11.5047H23.1444V11.5205H23.1407V11.5325H23.1369V11.5482H23.1332V11.552V11.564H23.1294C23.1257 11.564 23.1257 11.5677 23.1257 11.5677V11.5752L23.1219 11.5827C23.1219 11.5902 23.1182 11.5985 23.1144 11.606C23.1107 11.6097 23.1107 11.6097 23.1107 11.6135V11.621H23.1069V11.6285H23.0994V11.648H23.0919V11.66H23.0882V11.6637H23.0844V11.6712H23.0807V11.6832H23.0769V11.6907H23.0694V11.7027H23.0657V11.7102H23.0619V11.7177H23.0582V11.7297H23.0544V11.7372H23.0507V11.741H23.0469V11.7485H23.0394V11.7605H23.0357V11.7642H23.0319V11.7717H23.0282V11.7837H23.0244V11.7875H23.0207V11.795H23.0169V11.7987H23.0132V11.8107H23.0057V11.8145H23.0019V11.822H22.9982V11.8257H22.9944V11.8332H22.9907C22.9907 11.837 22.9907 11.837 22.9907 11.837V11.8407C22.9869 11.8407 22.9869 11.8445 22.9869 11.8445V11.8482H22.9832C22.9794 11.8557 22.9757 11.8602 22.9712 11.8677C22.9712 11.8677 22.9637 11.8752 22.9637 11.8797C22.9599 11.8797 22.9599 11.8835 22.9599 11.8835V11.8872H22.9562V11.891H22.9524C22.9524 11.891 22.9524 11.891 22.9524 11.8947V11.8985H22.9449V11.9022H22.9412V11.906H22.9374V11.9097V11.9172H22.9337V11.921H22.9299V11.9247H22.9262V11.9322H22.9224V11.9247H22.9149V11.9285H22.9112V11.936H22.9074V11.9435H22.9037V11.9472H22.8999V11.951H22.8962V11.9547H22.8924V11.9622H22.8849V11.966H22.8812V11.9735H22.8774V11.9772H22.8737V11.981H22.8699V11.993H22.8662V11.9967H22.8624V12.0005H22.8587V12.0042H22.8549V12.008H22.8474V12.0155H22.8437V12.0192H22.8399V12.023H22.8362V12.0305H22.8324V12.0342H22.8249V12.038H22.8212V12.0417H22.8174V12.0492H22.8137V12.0567H22.8099V12.0605H22.8062V12.0642H22.7987V12.068H22.7949V12.0717H22.7912V12.0792H22.7874V12.083H22.7837V12.0905H22.7799V12.0942H22.7762V12.098H22.7724V12.1017H22.7687V12.1055H22.7612V12.1092C22.7574 12.1092 22.7574 12.113 22.7574 12.113L22.7537 12.1167L22.7499 12.1205V12.128H22.7462V12.1317H22.7424V12.1355H22.7387V12.1392H22.7349L22.7274 12.1467V12.1505C22.7199 12.1542 22.7199 12.158 22.7117 12.1662C22.7117 12.1662 22.7042 12.1737 22.6997 12.1737C22.6877 12.1812 22.6727 12.197 22.6607 12.209C22.6532 12.2127 22.6449 12.221 22.6374 12.2247C22.6217 12.2405 22.6059 12.2517 22.5902 12.2637C22.5669 12.287 22.5429 12.3027 22.5159 12.326H22.5122C22.4574 12.3732 22.3952 12.4272 22.3284 12.4865H22.3247C22.1567 12.635 21.9572 12.8262 21.7307 13.0527L21.7112 13.0722C20.3514 14.4785 18.2072 17.4117 17.9844 22.1503C17.9612 22.541 17.9649 22.9235 17.9882 23.2948V23.3023C18.0977 25.1698 18.6834 26.7635 19.4177 28.0603C19.7064 28.5763 20.0229 29.045 20.3432 29.4665C21.4449 30.92 22.5699 31.7833 22.8549 31.994C23.2967 33.0133 23.2569 34.7713 23.2569 34.7713L23.9012 34.9858C23.9012 34.9858 23.7684 33.2863 23.9522 32.462C24.0107 32.2078 24.1434 31.9895 24.3002 31.802C24.4097 31.7278 24.7224 31.5013 25.0974 31.1578C25.1169 31.1383 25.1289 31.1225 25.1447 31.103C26.6642 29.6848 29.5044 26.1928 28.5317 20.5055L28.5122 20.5197Z" fill="white"/>
</svg>
