<svg width="46" height="46" viewBox="0 0 46 46" fill="none" xmlns="http://www.w3.org/2000/svg">
<rect width="46" height="46" rx="8" fill="black"/>
<rect width="26" height="26" transform="translate(10 10)" fill="black"/>
<path d="M23 20.681C21.7219 20.681 20.6811 21.7218 20.6811 22.9999C20.6811 24.278 21.7219 25.3188 23 25.3188C24.2781 25.3188 25.3189 24.278 25.3189 22.9999C25.3189 21.7218 24.2781 20.681 23 20.681ZM16.5081 27.6084L15.9963 27.4817C12.1872 26.5164 10 24.8833 10 22.9958C10 21.1084 12.1881 19.4753 15.9963 18.51L16.5081 18.3833L16.6519 18.8911C17.0371 20.2195 17.5319 21.5147 18.1291 22.7676L18.2388 22.9958L18.1291 23.2282C17.5327 24.4762 17.0371 25.7713 16.6519 27.1047L16.5081 27.6084ZM15.7598 19.6947C12.8649 20.5072 11.0879 21.7552 11.0879 22.9958C11.0879 24.2366 12.8657 25.4797 15.7598 26.2971C16.1157 25.1668 16.5431 24.0667 17.0419 22.9958C16.5423 21.925 16.1149 20.8249 15.7598 19.6947ZM29.4919 27.6084L29.348 27.1006C28.9629 25.7722 28.4681 24.4771 27.871 23.2282L27.7613 22.9958L27.871 22.7635C28.4674 21.5155 28.9629 20.2204 29.348 18.887L29.4919 18.3833L30.0038 18.51C33.8128 19.4753 36 21.1084 36 22.9958C36 24.8833 33.812 26.5164 30.0038 27.4817L29.4919 27.6084ZM28.9581 22.9958C29.4789 24.1212 29.9103 25.2262 30.2402 26.2971C33.1391 25.4805 34.9121 24.2366 34.9121 22.9958C34.9121 21.7552 33.1343 20.512 30.2402 19.6947C29.8843 20.82 29.457 21.925 28.9581 22.9958ZM15.7509 19.6906L15.6071 19.1828C14.5362 15.4079 14.862 12.6998 16.5 11.7557C18.1079 10.8287 20.6852 11.9247 23.3892 14.701L23.7573 15.078L23.3892 15.455C22.4288 16.4536 21.553 17.5285 20.7656 18.6709L20.6178 18.8781L20.3634 18.8992C18.9797 19.0089 17.6083 19.2291 16.2628 19.5598L15.7509 19.6906ZM17.8073 12.5097C17.5156 12.5097 17.2572 12.569 17.0411 12.6958C15.9662 13.3182 15.7761 15.4762 16.5163 18.3874C17.6716 18.129 18.8392 17.947 20.0206 17.8413C20.6974 16.8761 21.4425 15.9539 22.242 15.0862C20.5536 13.44 18.9538 12.5097 17.8073 12.5097ZM28.1968 34.5651C28.1926 34.5651 28.1926 34.5651 28.1968 34.5651C26.6522 34.5651 24.6673 33.4056 22.6108 31.2898L22.2428 30.9128L22.6108 30.5358C23.5712 29.5373 24.447 28.4623 25.2344 27.32L25.3781 27.1128L25.6325 27.0876C27.0161 26.982 28.3876 26.7618 29.7373 26.4271L30.2491 26.3003L30.393 26.8081C31.4638 30.583 31.138 33.287 29.5 34.2303C29.1019 34.4586 28.6534 34.5741 28.1968 34.5651ZM23.7573 30.9047C25.4456 32.5508 27.0454 33.482 28.1919 33.482H28.1959C28.4836 33.482 28.742 33.4186 28.9581 33.2959C30.033 32.6736 30.228 30.5156 29.4829 27.6043C28.3275 27.8627 27.1551 28.0447 25.9786 28.1463C25.3019 29.1156 24.5568 30.0328 23.7573 30.9047ZM30.2491 19.6906L29.7373 19.5598C28.3876 19.2299 27.0161 19.0097 25.6325 18.8992L25.3781 18.8781L25.2344 18.6709C24.447 17.5285 23.5712 16.4536 22.6108 15.455L22.2428 15.078L22.6108 14.701C25.3149 11.9247 27.8921 10.8287 29.5 11.7557C31.138 12.699 31.4638 15.4079 30.393 19.1828L30.2491 19.6906ZM25.9794 17.8413C27.2153 17.9559 28.3918 18.1379 29.4838 18.3874C30.2289 15.4762 30.0339 13.3173 28.9589 12.6958C27.888 12.0783 25.8739 13.0257 23.7581 15.087C24.5576 15.9588 25.2985 16.8761 25.9794 17.8413ZM17.8073 34.5651C17.3499 34.5732 16.8973 34.4594 16.5 34.2311C14.862 33.2878 14.5362 30.583 15.6071 26.8089L15.7509 26.3011L16.2628 26.4278C17.5156 26.7456 18.8953 26.9649 20.3634 27.0884L20.6178 27.1136L20.7616 27.3208C21.5489 28.4632 22.4248 29.5381 23.3851 30.5367L23.7531 30.9137L23.3851 31.2907C21.3328 33.4064 19.3478 34.5651 17.8073 34.5651ZM16.5171 27.6043C15.772 30.5156 15.967 32.6743 17.0419 33.2959C18.1128 33.9053 20.1229 32.9661 22.2428 30.9047C21.4432 30.0329 20.6982 29.1148 20.0214 28.1455C18.8408 28.0439 17.6724 27.8627 16.5171 27.6043ZM23 28.2852C22.107 28.2852 21.193 28.2471 20.2749 28.1707L20.0206 28.1496L19.8727 27.9383C19.3568 27.1932 18.8652 26.4278 18.4126 25.6406C17.9552 24.8532 17.5368 24.0497 17.1476 23.2282L17.0379 22.9958L17.1476 22.7635C17.5368 21.9428 17.956 21.1385 18.4126 20.3512C18.8611 19.5769 19.3519 18.8025 19.8727 18.0534L20.0206 17.8413L20.2749 17.821C22.09 17.6683 23.9141 17.6683 25.7251 17.821L25.9794 17.8413L26.1274 18.0534C27.1641 19.5427 28.0781 21.1214 28.8524 22.7635L28.9621 22.9958L28.8524 23.2282C28.0781 24.8703 27.1681 26.449 26.1274 27.9383L25.9794 28.1496L25.7251 28.1707C24.8111 28.2471 23.893 28.2852 23 28.2852ZM20.6218 27.1087C22.2216 27.2314 23.7784 27.2314 25.3823 27.1087C26.2751 25.8014 27.0706 24.4258 27.7604 22.9951C27.0746 21.5651 26.2793 20.1895 25.3781 18.8814C23.7955 18.7587 22.2045 18.7587 20.6218 18.8814C19.7208 20.1887 18.9245 21.5642 18.2396 22.9951C18.9294 24.4251 19.7248 25.8006 20.6218 27.1087Z" fill="#7FCFDB"/>
</svg>
