<svg width="126" height="65" viewBox="0 0 126 65" fill="none" xmlns="http://www.w3.org/2000/svg">
<g clip-path="url(#clip0_255_19651)">
<g filter="url(#filter0_d_255_19651)">
<path d="M115.83 0.160156H9.32762C5.03421 0.160156 1.55371 3.62821 1.55371 7.90626V53.9956C1.55371 58.2737 5.03421 61.7417 9.32762 61.7417H115.83C120.124 61.7417 123.604 58.2737 123.604 53.9956V7.90626C123.604 3.62821 120.124 0.160156 115.83 0.160156Z" fill="#00549A"/>
</g>
<mask id="mask0_255_19651" style="mask-type:luminance" maskUnits="userSpaceOnUse" x="37" y="14" width="60" height="34">
<path d="M96.0075 14.4902H37.7031V47.4112H96.0075V14.4902Z" fill="white"/>
</mask>
<g mask="url(#mask0_255_19651)">
<path d="M53.0971 36.0079C51.8012 34.8533 51.4568 33.5594 52.0955 32.0529C52.3333 31.5044 52.6385 30.9816 53.0046 30.4941C55.6866 26.8439 58.3698 23.1942 61.0541 19.5452C61.2496 19.2646 61.4689 18.9983 61.7102 18.7488C62.2373 18.233 62.846 18.1937 63.4426 18.6372C63.721 18.8519 63.9627 19.1023 64.1606 19.3805C66.9809 23.2143 69.8064 27.0411 72.596 30.8906C73.8931 32.6794 73.8609 34.3131 72.596 35.6933C72.4864 35.7969 72.3683 35.8925 72.2419 35.9791C71.7304 35.8274 71.5963 35.4031 71.3569 35.0799C68.8894 31.7439 66.4298 28.4039 63.9779 25.0597C63.6405 24.6014 63.3354 24.1074 62.6559 24.0028C61.9893 24.0778 61.7211 24.5561 61.4082 24.9813C58.9264 28.3504 56.445 31.7218 53.9635 35.0956C53.7416 35.3927 53.5923 35.7534 53.0971 36.0079Z" fill="url(#paint0_linear_255_19651)" stroke="url(#paint1_linear_255_19651)" stroke-width="0.84" stroke-miterlimit="10"/>
<path d="M84.0946 19.4056C84.1498 19.03 83.6636 18.861 83.7837 18.5064L88.5953 15.6484C88.7737 16.4997 88.8934 17.3597 88.9813 18.2223C89.0225 18.6449 89.0544 19.0675 89.0777 19.4909C89.0913 19.701 89.2522 20.2908 89.0283 20.4398C88.7244 20.6429 88.3267 20.3527 88.0115 20.5078C87.802 20.6106 87.6698 20.8903 87.4992 21.1369C84.5599 25.388 81.8724 29.7708 79.1158 34.1195C77.9797 35.91 76.8517 37.7058 75.3707 39.2918C73.8894 40.8774 72.08 41.6102 69.5527 41.1214L76.0432 31.4498L82.4582 21.8871L83.4781 20.3675C83.676 20.073 83.9815 19.8064 84.081 19.4648C84.0868 19.4453 84.0915 19.4255 84.0946 19.4056Z" fill="url(#paint2_linear_255_19651)" stroke="url(#paint3_linear_255_19651)" stroke-width="0.84" stroke-miterlimit="10"/>
<path d="M90.7031 18.4885C90.737 18.3143 90.6876 18.2045 90.5671 18.0529C90.5103 17.9814 90.1994 17.6947 90.3739 17.5885L95.1891 14.7271C95.4787 16.129 95.5945 17.5458 95.6936 18.9677C95.7072 19.1533 95.7978 19.4034 95.631 19.5193C95.3418 19.7188 94.9255 19.4322 94.6053 19.5864C94.3957 19.6892 94.264 19.9689 94.093 20.2155C91.1536 24.4667 88.4662 28.8494 85.7092 33.1981C84.5738 34.9887 83.4458 36.7844 81.9653 38.3702C80.4851 39.956 78.6738 40.6888 76.1465 40.2C78.3076 36.975 80.4703 33.7514 82.635 30.5293L89.0481 20.9744L89.9724 19.5968C90.2025 19.2553 90.571 18.9469 90.6868 18.5513C90.6934 18.5278 90.6981 18.506 90.7031 18.4885Z" fill="url(#paint4_linear_255_19651)" stroke="url(#paint5_linear_255_19651)" stroke-width="0.84" stroke-miterlimit="10"/>
<path d="M69.7615 38.6413C67.4698 35.705 65.4649 32.6667 62.9975 29.6075C62.9563 29.5569 62.9026 29.5158 62.8408 29.4874C62.779 29.4591 62.7106 29.4442 62.641 29.4442C62.5718 29.4442 62.5034 29.4591 62.4416 29.4874C62.3798 29.5158 62.3262 29.5569 62.285 29.6075C59.8226 32.6911 57.7913 35.7233 55.5535 38.6107C55.5166 38.6577 55.4688 38.6967 55.4136 38.7254C55.358 38.7541 55.2966 38.7716 55.2333 38.7768C55.1699 38.782 55.1058 38.7749 55.0455 38.7557C54.9857 38.7365 54.9309 38.7057 54.885 38.6657C54.0454 37.9469 53.839 37.0233 54.2452 35.9298C54.4815 35.2955 54.8916 34.7413 55.2978 34.1872L61.3288 25.9968C61.6359 25.5803 61.9079 25.1255 62.538 25.0322C62.5742 25.027 62.6111 25.0253 62.648 25.027C63.1595 25.0575 63.4787 25.3756 63.7453 25.7345C66.0301 28.8303 68.3486 31.907 70.57 35.0437C71.5767 36.4639 71.5188 37.5409 70.4507 38.6761C70.4064 38.7211 70.352 38.7566 70.2909 38.7798C70.2295 38.8028 70.1631 38.8132 70.097 38.8099C70.0305 38.8064 69.966 38.7896 69.9077 38.7604C69.8498 38.7313 69.7996 38.6906 69.7615 38.6413Z" fill="url(#paint6_linear_255_19651)" stroke="url(#paint7_linear_255_19651)" stroke-width="0.84" stroke-miterlimit="10"/>
<path d="M50.6514 41.1323C48.2648 41.5073 46.3089 41.3702 44.9069 39.6311C42.3403 36.4422 40.468 32.8767 37.9795 29.4629C39.3392 29.3313 40.7179 29.3897 42.0873 29.3941C42.2097 29.3871 42.3321 29.4016 42.4484 29.4368C42.6983 29.53 42.8853 29.9805 43.0271 30.18L43.6852 31.1228L45.0025 33.0144L47.6561 36.8255L50.6514 41.1323Z" fill="url(#paint8_linear_255_19651)" stroke="url(#paint9_linear_255_19651)" stroke-width="0.84" stroke-miterlimit="10"/>
<path d="M55.6976 41.0299C53.318 41.7952 51.1479 41.0876 49.8827 39.4241C48.3784 37.4472 47.1587 35.3176 45.7932 33.2683C44.9777 32.0485 44.1758 30.8156 43.2842 29.4659C44.837 29.2969 46.2398 29.4136 47.7281 29.3971L55.6976 41.0299Z" fill="url(#paint10_linear_255_19651)" stroke="url(#paint11_linear_255_19651)" stroke-width="0.84" stroke-miterlimit="10"/>
<path d="M49.5259 45.7991L49.915 44.2883C50.0121 43.9339 50.079 43.6004 50.1521 43.2042H50.1641C50.2127 43.6055 50.2796 43.9339 50.3589 44.2883L50.7052 45.7991H51.7084L52.766 42.2871H51.8238L51.4896 43.7201C51.4044 44.1423 51.3131 44.554 51.2525 44.9448H51.24C51.1794 44.554 51.1125 44.1787 51.0212 43.767L50.6931 42.2871H49.7082L49.3618 43.7201C49.2585 44.1577 49.1613 44.5799 49.0944 44.9602H49.082C49.0151 44.6059 48.93 44.1527 48.8391 43.7306L48.5289 42.2871H47.5381L48.5106 45.7991H49.5259ZM55.5849 44.7778C55.5973 44.7205 55.6152 44.6008 55.6152 44.4653C55.6152 43.8347 55.2506 43.1937 54.2901 43.1937C53.2566 43.1937 52.7886 43.9076 52.7886 44.554C52.7886 45.351 53.3662 45.851 54.3752 45.851C54.7764 45.851 55.1472 45.7991 55.4512 45.6895L55.3295 45.1531C55.0803 45.2259 54.825 45.2623 54.509 45.2623C54.0775 45.2623 53.6942 45.1063 53.6701 44.7778H55.5849ZM53.6639 44.236C53.6884 44.0276 53.8462 43.7201 54.2353 43.7201C54.6609 43.7201 54.7581 44.0431 54.7581 44.236H53.6639ZM56.1706 45.0385C56.1706 45.3251 56.1582 45.6322 56.1461 45.7991H56.9305L56.9667 45.4448H56.9791C57.1859 45.7469 57.526 45.8565 57.8727 45.8565C58.5533 45.8565 59.2281 45.3979 59.2281 44.4808C59.2343 43.6992 58.7177 43.1937 58.0064 43.1937C57.5929 43.1937 57.2831 43.3347 57.1066 43.5536H57.0946V42.0996H56.1706V45.0385ZM57.0946 44.3402C57.0946 44.2883 57.1008 44.241 57.1128 44.1942C57.1735 43.9649 57.4047 43.8034 57.6539 43.8034C58.0853 43.8034 58.2921 44.1163 58.2921 44.5121C58.2921 44.9707 58.0488 45.2314 57.6539 45.2314C57.3865 45.2314 57.1735 45.0644 57.1128 44.8561C57.1008 44.8142 57.0946 44.7674 57.0946 44.7155V44.3402ZM59.8038 45.7991H60.7277V44.2883C60.7277 44.2309 60.7339 44.1632 60.758 44.1163C60.8249 43.9703 60.9768 43.8347 61.2202 43.8347C61.5665 43.8347 61.7002 44.064 61.7002 44.3975V45.7991H62.6245V44.3142C62.6245 43.5431 62.1744 43.1937 61.5848 43.1937C61.4145 43.1937 61.2443 43.2305 61.1047 43.2929C60.9586 43.3553 60.8373 43.4439 60.7397 43.5586H60.7277V42.0996H59.8038V45.7991ZM66.1683 43.2511H65.2443V44.7674C65.2443 44.8351 65.2319 44.8925 65.2078 44.9393C65.153 45.0644 65.001 45.2155 64.7456 45.2155C64.4176 45.2155 64.2777 44.9916 64.2777 44.6217V43.2511H63.3537V44.7465C63.3537 45.5335 63.7914 45.8565 64.3993 45.8565C64.9342 45.8565 65.2136 45.5958 65.3295 45.4397H65.3477L65.3901 45.7991H66.1928C66.1803 45.5854 66.1683 45.3146 66.1683 44.9812V43.2511ZM66.9099 45.0385C66.9099 45.3251 66.8978 45.6322 66.8854 45.7991H67.6698L67.7063 45.4448H67.7184C67.9252 45.7469 68.2657 45.8565 68.612 45.8565C69.293 45.8565 69.9678 45.3979 69.9678 44.4808C69.9736 43.6992 69.457 43.1937 68.7457 43.1937C68.3325 43.1937 68.0223 43.3347 67.8463 43.5536H67.8338V42.0996H66.9099V45.0385ZM67.8338 44.3402C67.8338 44.2883 67.84 44.241 67.8521 44.1942C67.9131 43.9649 68.144 43.8034 68.3932 43.8034C68.825 43.8034 69.0314 44.1163 69.0314 44.5121C69.0314 44.9707 68.7885 45.2314 68.3932 45.2314C68.1257 45.2314 67.9131 45.0644 67.8521 44.8561C67.84 44.8142 67.8338 44.7674 67.8338 44.7155V44.3402ZM71.547 45.7991H74.7266V45.1427H72.7874V45.1218L74.6962 42.7456V42.2871H71.7235V42.9439H73.4987V42.9645L71.547 45.372V45.7991ZM76.6498 43.1887C75.6894 43.1887 75.057 43.7151 75.057 44.5435C75.057 45.3665 75.7259 45.8565 76.595 45.8565C77.3915 45.8565 78.1634 45.4293 78.1634 44.4966C78.1634 43.7255 77.5555 43.1887 76.6498 43.1887ZM76.6195 43.7565C77.0389 43.7565 77.2092 44.1423 77.2092 44.5172C77.2092 44.9812 76.9841 45.2887 76.6195 45.2887C76.2242 45.2887 76.0116 44.9602 76.0116 44.5226C76.0116 44.1473 76.1818 43.7565 76.6195 43.7565ZM78.7356 45.7991H79.6599V44.3297C79.6599 44.2569 79.6657 44.1837 79.6902 44.1318C79.7571 43.9858 79.909 43.8347 80.1644 43.8347C80.4987 43.8347 80.6324 44.059 80.6324 44.387V45.7991H81.5563V44.2933C81.5563 43.5431 81.1004 43.1937 80.4925 43.1937C79.9942 43.1937 79.6964 43.4389 79.5748 43.6054H79.5565L79.5137 43.2511H78.7115C78.7235 43.4804 78.7356 43.746 78.7356 44.064V45.7991ZM84.9236 44.7778C84.936 44.7205 84.9543 44.6008 84.9543 44.4653C84.9543 43.8347 84.5893 43.1937 83.6289 43.1937C82.5953 43.1937 82.1273 43.9076 82.1273 44.554C82.1273 45.351 82.7049 45.851 83.714 45.851C84.1151 45.851 84.4859 45.7991 84.7899 45.6895L84.6682 45.1531C84.4191 45.2259 84.1637 45.2623 83.8477 45.2623C83.4163 45.2623 83.033 45.1063 83.0089 44.7778H84.9236ZM83.0027 44.236C83.0272 44.0276 83.185 43.7201 83.5741 43.7201C83.9997 43.7201 84.0969 44.0431 84.0969 44.236H83.0027Z" fill="white"/>
<path d="M62.5648 34.0718C62.606 34.0777 62.6476 34.0797 62.6895 34.0779C63.1614 34.0877 63.6244 34.1982 64.0403 34.4003C64.1561 34.4633 64.2575 34.5455 64.3396 34.6425C64.4772 34.778 64.5782 34.9405 64.6346 35.1173C64.661 35.2023 64.6684 35.2912 64.656 35.3787C64.6544 35.3861 64.6525 35.3934 64.6501 35.4005C64.6221 35.3778 64.5965 35.353 64.5728 35.3265C64.5689 35.3206 64.5627 35.3164 64.5553 35.3146C64.5479 35.3128 64.5401 35.3136 64.5335 35.3169C64.3714 35.375 64.2062 35.4266 64.0383 35.472C63.9928 35.4842 63.9921 35.4903 64.0096 35.5303C64.1106 35.7561 64.1895 35.9893 64.2459 36.2274C64.2513 36.2422 64.2525 36.2582 64.249 36.2735C64.2455 36.2888 64.2373 36.303 64.2257 36.3145C64.1534 36.3931 64.076 36.4676 63.994 36.5376C63.9777 36.4156 63.9614 36.2989 63.9349 36.1829C63.8906 35.98 63.8276 35.7806 63.7468 35.587C63.7285 35.5452 63.7227 35.5408 63.6745 35.5478C63.5249 35.567 63.3764 35.5878 63.2259 35.6C63.0755 35.6122 62.8959 35.6244 62.73 35.6297C62.6798 35.6297 62.6798 35.6297 62.6798 35.6767C62.6798 35.9965 62.6798 36.3163 62.6798 36.6352C62.6798 36.6805 62.6798 36.7267 62.6864 36.7728C62.6884 36.7793 62.688 36.7862 62.6845 36.7924C62.6814 36.7984 62.6759 36.8032 62.6689 36.806C62.5088 36.8852 62.3421 36.9541 62.1769 37.0255C62.164 37.0302 62.15 37.032 62.1364 37.0308H61.1639C61.1301 37.0308 61.125 37.0395 61.127 37.0682C61.1359 37.1954 61.1569 37.3218 61.1752 37.4481C61.1775 37.4556 61.1764 37.4635 61.1725 37.4704C61.1686 37.4773 61.162 37.4827 61.1542 37.4856C61.0788 37.5187 61.0046 37.5518 60.9284 37.5823C60.905 37.5919 60.8973 37.5823 60.8938 37.5649C60.8705 37.4403 60.8502 37.3148 60.8374 37.1885C60.8327 37.144 60.8269 37.1013 60.823 37.0543C60.823 37.0351 60.8118 37.0308 60.7912 37.0308C60.5109 37.0308 60.2299 37.0308 59.9489 37.0308C59.9248 37.0308 59.9162 37.036 59.9181 37.0586C59.9279 37.2196 59.957 37.3791 60.0048 37.5344C60.0581 37.7124 60.1339 37.8843 60.2307 38.0467C60.2384 38.0598 60.2567 38.0772 60.245 38.0894C60.2334 38.1016 60.2104 38.0894 60.1961 38.0798C60.0398 38.0168 59.8972 37.9298 59.7743 37.8228C59.6943 37.7539 59.6169 37.6825 59.5388 37.6128C59.5283 37.6045 59.5213 37.593 59.5193 37.5806C59.4785 37.427 59.4525 37.2704 59.4424 37.1127C59.4432 37.1025 59.4432 37.0923 59.4424 37.0822V36.799C59.4432 36.7836 59.4432 36.7682 59.4424 36.7528C59.4474 36.5765 59.4735 36.4012 59.5205 36.23C59.6779 35.6596 60.0274 35.1472 60.5202 34.7632C61.0131 34.3791 61.6257 34.1422 62.2736 34.0848C62.3335 34.0844 62.3934 34.0809 62.4528 34.0744L62.5648 34.0718ZM61.7668 36.7938H62.3798C62.4027 36.7938 62.4124 36.7938 62.4124 36.7667C62.4124 36.3973 62.4124 36.0273 62.4124 35.6567C62.4124 35.6401 62.4124 35.6323 62.3875 35.6305C62.2639 35.6227 62.1403 35.614 62.0167 35.6035C61.8239 35.587 61.6307 35.5643 61.4379 35.5321C61.4317 35.5301 61.4251 35.5294 61.4185 35.5299C61.4123 35.5304 61.4057 35.5323 61.4002 35.5353C61.3944 35.5383 61.3898 35.5423 61.3863 35.5472C61.3824 35.5521 61.38 35.5576 61.3789 35.5634C61.3528 35.6297 61.3248 35.6951 61.3019 35.7621C61.1927 36.088 61.132 36.4255 61.1212 36.7659C61.1212 36.792 61.1309 36.7938 61.155 36.7938H61.7668ZM60.3679 36.7938C60.5066 36.7938 60.6466 36.7938 60.7853 36.7938C60.8125 36.7938 60.8211 36.7859 60.823 36.7624C60.8327 36.657 60.8444 36.5524 60.8568 36.447C60.8786 36.2618 60.9183 36.0787 60.9758 35.8998C61.0209 35.7621 61.0722 35.6262 61.1289 35.4929C61.1289 35.4824 61.1453 35.4728 61.1192 35.4667C60.9482 35.4291 60.7818 35.3763 60.6225 35.309C60.5964 35.2986 60.5848 35.309 60.5704 35.323C60.3006 35.6 60.1059 35.93 60.0021 36.2867C59.9543 36.4398 59.9263 36.5974 59.9181 36.7563C59.9181 36.7885 59.9286 36.7938 59.9605 36.7938C60.0966 36.7929 60.2314 36.7938 60.3679 36.7938ZM62.4116 34.971C62.4116 34.8394 62.4116 34.7096 62.4116 34.5754C62.4116 34.5083 62.4116 34.5074 62.3351 34.5118C62.2499 34.512 62.1675 34.5401 62.1038 34.5911C61.8799 34.785 61.6902 35.009 61.5421 35.255C61.5188 35.2933 61.5207 35.296 61.5689 35.3038C61.8391 35.3447 62.1123 35.3744 62.3864 35.3909C62.4105 35.3909 62.4155 35.3857 62.4155 35.3656C62.4116 35.235 62.4116 35.1034 62.4116 34.971ZM63.5964 35.296C63.5521 35.228 63.5085 35.1653 63.4623 35.1043C63.315 34.904 63.1389 34.7224 62.9383 34.564C62.9061 34.5367 62.8649 34.5201 62.8205 34.517C62.7887 34.517 62.758 34.51 62.7241 34.5074C62.6779 34.5022 62.6779 34.5074 62.6779 34.5431C62.6779 34.8167 62.6779 35.0904 62.6779 35.3639C62.6779 35.3892 62.6845 35.3927 62.7105 35.3909C62.8967 35.3778 63.0829 35.3631 63.2683 35.3413C63.3775 35.3291 63.4864 35.3186 63.5964 35.296ZM63.3783 34.6268C63.39 34.6407 63.4005 34.6555 63.4129 34.6686C63.5762 34.839 63.7188 35.0244 63.8385 35.2219C63.8409 35.2271 63.844 35.232 63.8483 35.2361C63.8525 35.2402 63.8576 35.2436 63.863 35.2459C63.8688 35.2483 63.8751 35.2496 63.8813 35.2498C63.8875 35.25 63.8937 35.2491 63.8996 35.2472C64.0298 35.2211 64.1588 35.1888 64.2855 35.1505C64.3606 35.1287 64.3606 35.1269 64.2999 35.0799C64.1207 34.9434 63.9229 34.8284 63.7114 34.7374C63.6049 34.6903 63.4934 34.6532 63.3783 34.6268ZM61.6879 34.6425L61.6502 34.6529C61.4698 34.7137 61.2972 34.792 61.1359 34.8864C61.0287 34.9489 60.9256 35.0173 60.8281 35.0912C60.7923 35.1191 60.795 35.1348 60.8394 35.147C60.9641 35.1832 61.0908 35.2137 61.2187 35.2385C61.2249 35.2404 61.2312 35.2412 61.2374 35.2409C61.244 35.2405 61.2502 35.2391 61.256 35.2366C61.2615 35.2341 61.2669 35.2306 61.2708 35.2263C61.2751 35.2219 61.2786 35.2169 61.2805 35.2115C61.3847 35.0358 61.5052 34.8685 61.6405 34.7113C61.6607 34.6912 61.6766 34.6678 61.6879 34.6425Z" fill="url(#paint12_linear_255_19651)" stroke="url(#paint13_linear_255_19651)" stroke-width="0.84" stroke-miterlimit="10"/>
<path d="M62.5508 39.7489C62.4785 39.7376 62.405 39.7427 62.332 39.7376C62.0731 39.7198 61.8177 39.6729 61.5713 39.5982C61.183 39.4781 60.823 39.293 60.5101 39.0529C60.4965 39.0432 60.4849 39.0327 60.4658 39.0161C60.521 39.0238 60.5758 39.0339 60.6298 39.0467C60.7741 39.0691 60.921 39.0734 61.0667 39.0598C61.1425 39.0529 61.2179 39.0424 61.2926 39.0277C61.2996 39.0265 61.3066 39.0269 61.3132 39.0285C61.3198 39.03 61.326 39.0331 61.3311 39.037C61.4306 39.0842 61.5336 39.1257 61.6389 39.1609C61.6533 39.1675 61.6692 39.171 61.6852 39.1702C61.6525 39.1179 61.6164 39.068 61.5763 39.0199C61.5417 38.9742 61.5417 38.9754 61.5977 38.9553C61.6537 38.9351 61.7163 38.9142 61.7749 38.8917C61.7796 38.8893 61.7847 38.8881 61.7897 38.8874C61.7948 38.8869 61.8002 38.8874 61.8053 38.8888C61.8099 38.8902 61.8146 38.8925 61.8185 38.8956C61.8224 38.8983 61.8259 38.9022 61.8282 38.9065C61.8745 38.9607 61.9199 39.0145 61.967 39.0676C62.0198 39.1284 62.0758 39.1865 62.1349 39.2419C62.1625 39.269 62.1998 39.2868 62.2402 39.2918C62.2896 39.2976 62.3366 39.3011 62.3887 39.3073C62.407 39.3073 62.4109 39.3073 62.4101 39.2891C62.4101 39.2461 62.4101 39.202 62.4101 39.1602C62.4101 39.1478 62.4101 39.1261 62.4369 39.1416C62.4641 39.1574 62.4571 39.133 62.4602 39.1234C62.4882 39.0292 62.5162 38.9351 62.5422 38.8412C62.5955 38.6529 62.6491 38.4646 62.7016 38.2756C62.702 38.2709 62.7035 38.2661 62.7059 38.2619C62.7086 38.2576 62.7121 38.2541 62.716 38.251C62.7203 38.2479 62.7249 38.2458 62.73 38.2444C62.735 38.2432 62.7405 38.2427 62.7459 38.2434C62.8427 38.242 62.9395 38.2467 63.0355 38.2574C63.203 38.273 63.3709 38.2922 63.5381 38.3182L63.5999 38.327C63.6527 38.3358 63.6566 38.3348 63.6799 38.2905C63.7596 38.1313 63.8242 37.9663 63.8727 37.7973C63.9326 37.6006 63.9715 37.3993 63.9897 37.196C63.9897 37.1534 63.9944 37.1089 63.9983 37.0671C63.9983 37.0418 63.9983 37.034 63.9625 37.034C63.7522 37.034 63.5412 37.034 63.3297 37.034C63.2524 37.034 63.1762 37.034 63.1 37.0288C63.0538 37.0288 63.0506 37.0235 63.0615 36.9843C63.0747 36.9312 63.0915 36.8789 63.1027 36.8257C63.1086 36.8031 63.1202 36.7988 63.1435 36.7988H63.6935C63.7899 36.7988 63.8786 36.7988 63.9715 36.7988C63.9963 36.7988 64.0022 36.7926 64.0002 36.7708C63.9917 36.7046 63.9936 36.702 64.0679 36.6951C64.1421 36.6881 64.2066 36.6864 64.2754 36.682C64.2918 36.682 64.2976 36.682 64.2995 36.7003C64.3015 36.7186 64.31 36.7456 64.31 36.7682C64.31 36.7909 64.3256 36.7988 64.3516 36.7988H65.1803C65.2083 36.7988 65.2192 36.7935 65.2172 36.7665C65.2087 36.6337 65.1889 36.5017 65.1574 36.3718C65.1531 36.3597 65.1531 36.3468 65.157 36.3348C65.1609 36.3226 65.1686 36.3119 65.1795 36.3038C65.2837 36.2167 65.3832 36.1147 65.4932 36.0268L65.5056 36.0163C65.5352 35.9963 65.5402 35.9963 65.55 36.0276C65.6125 36.2062 65.6557 36.3897 65.6794 36.5757C65.6852 36.6393 65.6911 36.7029 65.693 36.7665C65.6938 36.778 65.6957 36.7893 65.6988 36.8005V37.0706C65.6988 37.0819 65.6988 37.0932 65.693 37.1046C65.6809 37.3041 65.6436 37.5017 65.5818 37.6936C65.3968 38.2683 65.0159 38.7758 64.4935 39.1443C63.9707 39.5122 63.3328 39.7225 62.6705 39.7446C62.6301 39.7434 62.59 39.7458 62.55 39.7508L62.5508 39.7489ZM64.7761 37.0375H64.4142C64.3178 37.0375 64.3178 37.0375 64.3178 37.1246C64.2995 37.3902 64.2486 37.6532 64.1662 37.9088C64.1161 38.0656 64.0477 38.2173 63.9847 38.3696C63.9656 38.4184 63.9606 38.4106 64.0166 38.4262C64.1639 38.4698 64.31 38.5172 64.4546 38.5683C64.4655 38.5736 64.4779 38.575 64.49 38.5724C64.5016 38.5695 64.5118 38.5629 64.5184 38.5537C64.8285 38.251 65.0482 37.8822 65.1574 37.4818C65.197 37.3459 65.2207 37.2066 65.2285 37.0662C65.2285 37.0445 65.2227 37.0383 65.1978 37.0383L64.7761 37.0375ZM62.6802 38.901C62.6802 39.0312 62.6802 39.1625 62.6802 39.2907C62.6802 39.3108 62.6868 39.3162 62.7082 39.3143C62.77 39.3073 62.8326 39.3019 62.8944 39.2961C62.9379 39.2942 62.9791 39.2771 63.0094 39.2488C63.2046 39.0536 63.3748 38.8391 63.5167 38.6093C63.5322 38.584 63.5245 38.5781 63.4976 38.5736C63.3876 38.5553 63.2784 38.5378 63.1676 38.5248C63.0168 38.5075 62.8664 38.4935 62.7148 38.4838C62.6861 38.4838 62.6802 38.4909 62.6802 38.5144C62.681 38.6406 62.6802 38.7697 62.6802 38.8983V38.901ZM64.2762 38.7557C64.1382 38.7064 63.9963 38.6666 63.8517 38.6373C63.8448 38.6356 63.8378 38.6363 63.8315 38.6394C63.8253 38.6425 63.821 38.6477 63.8187 38.6539C63.7239 38.8118 63.6185 38.9646 63.5035 39.1114C63.4887 39.1296 63.4763 39.1478 63.4627 39.1671C63.7592 39.0746 64.0348 38.9344 64.2762 38.7531V38.7557Z" fill="url(#paint14_linear_255_19651)" stroke="url(#paint15_linear_255_19651)" stroke-width="0.84" stroke-miterlimit="10"/>
<path d="M59.667 37.9755C59.7265 38.0278 59.791 38.0751 59.8598 38.1166C60.0246 38.2171 60.2112 38.2849 60.4071 38.3152C60.5793 38.3446 60.7577 38.3233 60.9155 38.2543C60.9823 38.2221 61.0399 38.1762 61.0834 38.1201C61.0997 38.1009 61.1009 38.087 61.0729 38.0713C60.9617 38.0051 60.8451 37.9467 60.7312 37.8839L60.7157 37.8752C60.7631 37.8535 60.8074 37.8325 60.8529 37.8134L62.6273 37.0248L62.8465 36.9299C62.8551 36.9299 62.8648 36.916 62.8753 36.9238C62.8862 36.9316 62.8753 36.9412 62.8753 36.9499C62.8251 37.1338 62.7789 37.3167 62.7241 37.5006L62.417 38.5854C62.3941 38.6674 62.3688 38.7491 62.3474 38.831C62.3401 38.859 62.3303 38.8642 62.3023 38.8486C62.1885 38.7874 62.0785 38.7214 61.9685 38.6551C61.9572 38.6465 61.9436 38.6413 61.9288 38.6402C61.9144 38.6392 61.8997 38.6423 61.8872 38.6489C61.7041 38.7356 61.5098 38.8005 61.3085 38.8424C61.085 38.8931 60.8517 38.9001 60.6251 38.8625C60.4032 38.8166 60.1999 38.7162 60.0374 38.5724C59.8567 38.4227 59.7288 38.228 59.6697 38.0129C59.6693 38.0059 59.6693 37.999 59.6697 37.992C59.6682 37.9866 59.6674 37.981 59.667 37.9755Z" fill="url(#paint16_linear_255_19651)" stroke="url(#paint17_linear_255_19651)" stroke-width="0.84" stroke-miterlimit="10"/>
<path d="M64.335 36.4922C64.3412 36.4738 64.3528 36.4572 64.3684 36.4443C64.6172 36.1816 64.7773 35.8597 64.829 35.5172C64.8636 35.3433 64.8539 35.1645 64.801 34.9944C64.7641 34.8792 64.6949 34.7744 64.6001 34.6903C64.583 34.6756 64.5674 34.659 64.5441 34.6372C64.5822 34.6484 64.6187 34.6633 64.6533 34.6816C64.871 34.77 65.0595 34.9085 65.1994 35.0833C65.3467 35.2745 65.4334 35.4983 65.4501 35.7307C65.454 35.7589 65.4497 35.7874 65.4385 35.8138C65.4268 35.8403 65.4085 35.8638 65.3848 35.8823C65.248 36.0164 65.0968 36.1379 64.9332 36.2448C64.7656 36.3483 64.5822 36.4293 64.389 36.4852C64.3719 36.4922 64.3532 36.4946 64.335 36.4922Z" fill="url(#paint18_linear_255_19651)" stroke="url(#paint19_linear_255_19651)" stroke-width="0.84" stroke-miterlimit="10"/>
</g>
</g>
<defs>
<filter id="filter0_d_255_19651" x="-1.80629" y="0.160156" width="128.771" height="68.3015" filterUnits="userSpaceOnUse" color-interpolation-filters="sRGB">
<feFlood flood-opacity="0" result="BackgroundImageFix"/>
<feColorMatrix in="SourceAlpha" type="matrix" values="0 0 0 0 0 0 0 0 0 0 0 0 0 0 0 0 0 0 127 0" result="hardAlpha"/>
<feOffset dy="3.36"/>
<feGaussianBlur stdDeviation="1.68"/>
<feComposite in2="hardAlpha" operator="out"/>
<feColorMatrix type="matrix" values="0 0 0 0 0 0 0 0 0 0 0 0 0 0 0 0 0 0 0.25 0"/>
<feBlend mode="normal" in2="BackgroundImageFix" result="effect1_dropShadow_255_19651"/>
<feBlend mode="normal" in="SourceGraphic" in2="effect1_dropShadow_255_19651" result="shape"/>
</filter>
<linearGradient id="paint0_linear_255_19651" x1="62.6676" y1="36.0079" x2="62.6676" y2="18.3305" gradientUnits="userSpaceOnUse">
<stop stop-color="white"/>
<stop offset="1" stop-color="#D9D9D9"/>
</linearGradient>
<linearGradient id="paint1_linear_255_19651" x1="51.7348" y1="27.1744" x2="73.6008" y2="27.1744" gradientUnits="userSpaceOnUse">
<stop stop-color="white"/>
<stop offset="1" stop-color="#D9D9D9"/>
</linearGradient>
<linearGradient id="paint2_linear_255_19651" x1="69.5527" y1="28.4577" x2="89.1461" y2="28.4577" gradientUnits="userSpaceOnUse">
<stop stop-color="white"/>
<stop offset="1" stop-color="#D9D9D9"/>
</linearGradient>
<linearGradient id="paint3_linear_255_19651" x1="89.1947" y1="28.4438" x2="69.4765" y2="28.4438" gradientUnits="userSpaceOnUse">
<stop stop-color="white"/>
<stop offset="1" stop-color="#D9D9D9"/>
</linearGradient>
<linearGradient id="paint4_linear_255_19651" x1="76.1465" y1="27.5363" x2="95.7305" y2="27.5363" gradientUnits="userSpaceOnUse">
<stop stop-color="white"/>
<stop offset="1" stop-color="#D9D9D9"/>
</linearGradient>
<linearGradient id="paint5_linear_255_19651" x1="95.7787" y1="27.5223" x2="76.0703" y2="27.5223" gradientUnits="userSpaceOnUse">
<stop stop-color="white"/>
<stop offset="1" stop-color="#D9D9D9"/>
</linearGradient>
<linearGradient id="paint6_linear_255_19651" x1="62.6675" y1="38.8104" x2="62.6675" y2="25.0244" gradientUnits="userSpaceOnUse">
<stop stop-color="white"/>
<stop offset="1" stop-color="#D9D9D9"/>
</linearGradient>
<linearGradient id="paint7_linear_255_19651" x1="53.9972" y1="31.9174" x2="71.3385" y2="31.9174" gradientUnits="userSpaceOnUse">
<stop stop-color="white"/>
<stop offset="1" stop-color="#D9D9D9"/>
</linearGradient>
<linearGradient id="paint8_linear_255_19651" x1="50.6514" y1="35.34" x2="37.9795" y2="35.34" gradientUnits="userSpaceOnUse">
<stop stop-color="white"/>
<stop offset="1" stop-color="#D9D9D9"/>
</linearGradient>
<linearGradient id="paint9_linear_255_19651" x1="37.8956" y1="35.34" x2="50.7303" y2="35.34" gradientUnits="userSpaceOnUse">
<stop stop-color="white"/>
<stop offset="1" stop-color="#D9D9D9"/>
</linearGradient>
<linearGradient id="paint10_linear_255_19651" x1="55.6976" y1="35.3551" x2="43.2861" y2="35.3551" gradientUnits="userSpaceOnUse">
<stop stop-color="white"/>
<stop offset="1" stop-color="#D9D9D9"/>
</linearGradient>
<linearGradient id="paint11_linear_255_19651" x1="43.2072" y1="35.3551" x2="55.7699" y2="35.3551" gradientUnits="userSpaceOnUse">
<stop stop-color="white"/>
<stop offset="1" stop-color="#D9D9D9"/>
</linearGradient>
<linearGradient id="paint12_linear_255_19651" x1="59.4373" y1="36.0845" x2="64.6637" y2="36.0845" gradientUnits="userSpaceOnUse">
<stop stop-color="white"/>
<stop offset="1" stop-color="#D9D9D9"/>
</linearGradient>
<linearGradient id="paint13_linear_255_19651" x1="59.3891" y1="36.0845" x2="64.7119" y2="36.0845" gradientUnits="userSpaceOnUse">
<stop stop-color="white"/>
<stop offset="1" stop-color="#D9D9D9"/>
</linearGradient>
<linearGradient id="paint14_linear_255_19651" x1="60.4666" y1="37.8722" x2="65.7066" y2="37.8722" gradientUnits="userSpaceOnUse">
<stop stop-color="white"/>
<stop offset="1" stop-color="#D9D9D9"/>
</linearGradient>
<linearGradient id="paint15_linear_255_19651" x1="60.3333" y1="37.8722" x2="65.7544" y2="37.8722" gradientUnits="userSpaceOnUse">
<stop stop-color="white"/>
<stop offset="1" stop-color="#D9D9D9"/>
</linearGradient>
<linearGradient id="paint16_linear_255_19651" x1="59.6658" y1="37.904" x2="62.8823" y2="37.904" gradientUnits="userSpaceOnUse">
<stop stop-color="white"/>
<stop offset="1" stop-color="#D9D9D9"/>
</linearGradient>
<linearGradient id="paint17_linear_255_19651" x1="59.6176" y1="37.904" x2="62.9305" y2="37.904" gradientUnits="userSpaceOnUse">
<stop stop-color="white"/>
<stop offset="1" stop-color="#D9D9D9"/>
</linearGradient>
<linearGradient id="paint18_linear_255_19651" x1="64.335" y1="35.5643" x2="65.4513" y2="35.5643" gradientUnits="userSpaceOnUse">
<stop stop-color="white"/>
<stop offset="1" stop-color="#D9D9D9"/>
</linearGradient>
<linearGradient id="paint19_linear_255_19651" x1="64.277" y1="35.5433" x2="65.4995" y2="35.5433" gradientUnits="userSpaceOnUse">
<stop stop-color="white"/>
<stop offset="1" stop-color="#D9D9D9"/>
</linearGradient>
<clipPath id="clip0_255_19651">
<rect width="125.16" height="64.68" fill="white" transform="translate(0 0.160156)"/>
</clipPath>
</defs>
</svg>
