<svg width="114" height="59" viewBox="0 0 114 59" fill="none" xmlns="http://www.w3.org/2000/svg">
<g clip-path="url(#clip0_255_19585)">
<g filter="url(#filter0_d_255_19585)">
<path d="M104.947 0.100098H8.45168C4.56168 0.100098 1.4082 3.25287 1.4082 7.14201V49.0414C1.4082 52.9306 4.56168 56.0833 8.45168 56.0833H104.947C108.837 56.0833 111.991 52.9306 111.991 49.0414V7.14201C111.991 3.25287 108.837 0.100098 104.947 0.100098Z" fill="#3558A8"/>
</g>
<g filter="url(#filter1_d_255_19585)">
<g filter="url(#filter2_d_255_19585)">
<path d="M28.3098 20.4805C27.4278 21.4947 25.6547 24.2264 27.391 27.8168L25.4066 26.2684L25.3301 25.0851C25.7392 23.1789 26.809 21.5257 28.3098 20.4805Z" fill="url(#paint0_linear_255_19585)"/>
</g>
<path d="M31.2536 31.7578C31.3524 31.2904 31.5474 30.8545 31.8236 30.484C32.0998 30.1134 32.4497 29.8181 32.846 29.6211L35.9696 27.8462C35.5319 28.8604 34.9254 31.0208 33.6912 31.0208H32.3499C32.4887 31.3476 32.5489 31.7084 32.5248 32.0684C32.5007 32.4284 32.393 32.7755 32.2121 33.0763L31.6456 34.1412L31.0331 35.3076C30.7269 35.8586 30.5217 36.3829 29.9307 36.3829V35.5917C30.0662 35.5914 30.1992 35.5516 30.3165 35.4766C30.4083 35.4157 30.4864 35.3326 30.5453 35.2336C30.6041 35.1347 30.6421 35.0225 30.6565 34.9053L30.7024 34.5334C30.8384 33.593 31.0224 32.6617 31.2536 31.7442V31.7578Z" fill="url(#paint1_linear_255_19585)"/>
<path d="M31.2674 31.7578C31.3661 31.2904 31.5612 30.8545 31.8373 30.484C32.1135 30.1134 32.4634 29.8181 32.8598 29.6211L35.9833 27.8462C33.9316 29.682 32.0482 29.922 31.6042 32.1364C31.4817 32.5793 31.3868 33.0391 31.298 33.4887C31.1877 34.0668 31.0928 34.6483 30.9918 35.2299C30.9918 35.2839 30.9918 35.3347 30.9764 35.3854C30.7039 35.9061 30.4803 36.3758 29.9199 36.3758V35.5917C30.0554 35.5914 30.1885 35.5516 30.3058 35.4766C30.3975 35.4157 30.4757 35.3326 30.5345 35.2336C30.5933 35.1347 30.6313 35.0225 30.6457 34.9053L30.7162 34.5334C30.8521 33.593 31.0361 32.6617 31.2674 31.7442V31.7578Z" fill="white"/>
<path d="M26.8254 26.105C26.96 26.707 27.1659 27.2867 27.4379 27.8292L25.5821 26.4161C25.5239 26.2977 25.4688 26.1828 25.4167 26.078L25.3555 25.0975C25.561 24.135 25.9379 23.2271 26.464 22.4268C26.3971 22.9189 26.3755 23.4173 26.3997 23.9143C26.4369 24.6643 26.5794 25.4034 26.8223 26.105H26.8254Z" fill="white"/>
<path d="M28.5969 31.7578C28.4981 31.2904 28.3031 30.8545 28.0269 30.484C27.7507 30.1134 27.4008 29.8181 27.0045 29.6211L23.8809 27.8462C24.3157 28.8604 24.9251 31.0208 26.1592 31.0208H27.5006C27.3618 31.3476 27.3016 31.7084 27.3257 32.0684C27.3498 32.4284 27.4575 32.7755 27.6384 33.0763L28.2049 34.1412L28.8174 35.3076C29.1236 35.8586 29.3257 36.3829 29.9198 36.3829V35.5917C29.7843 35.5914 29.6513 35.5516 29.534 35.4766C29.4422 35.4157 29.3641 35.3326 29.3052 35.2336C29.2464 35.1347 29.2084 35.0225 29.194 34.9053L29.1481 34.5334C29.0121 33.593 28.8281 32.6617 28.5969 31.7442V31.7578Z" fill="url(#paint2_linear_255_19585)"/>
<path d="M28.5969 31.7578C28.4981 31.2904 28.3031 30.8545 28.0269 30.484C27.7507 30.1134 27.4008 29.8181 27.0045 29.6211L23.8809 27.8462C25.9326 29.682 27.816 29.922 28.26 32.1364C28.3825 32.5793 28.4775 33.0391 28.5663 33.4887C28.6765 34.0668 28.7714 34.6483 28.8725 35.2299C28.8725 35.2839 28.8725 35.3347 28.8878 35.3854C29.1604 35.9061 29.3809 36.3758 29.9443 36.3758V35.5917C29.8088 35.5914 29.6758 35.5516 29.5585 35.4766C29.4667 35.4157 29.3885 35.3326 29.3297 35.2336C29.2709 35.1347 29.2329 35.0225 29.2185 34.9053L29.1481 34.5334C29.0121 33.593 28.8281 32.6617 28.5969 31.7442V31.7578Z" fill="white"/>
<path d="M29.9498 35.8373V35.6038C29.8143 35.6035 29.6813 35.564 29.564 35.489C29.4722 35.4278 29.3941 35.3447 29.3352 35.246C29.2764 35.1471 29.2384 35.0349 29.224 34.9177L29.1689 34.5458C29.123 34.2584 29.077 33.988 29.0342 33.7378C29.0679 34.1063 29.1659 35.1509 29.1659 35.1509C29.1973 35.351 29.2949 35.5309 29.4398 35.6559C29.5847 35.7809 29.7665 35.8418 29.9498 35.8271V35.8373Z" fill="white"/>
<path d="M28.2002 34.144L27.2662 36.0033C27.071 36.3723 26.9973 36.8043 27.0576 37.2265C27.1179 37.6486 27.3084 38.0345 27.597 38.3194L29.9243 40.5911L32.2518 38.3194C32.5403 38.0345 32.7309 37.6486 32.7911 37.2265C32.8514 36.8043 32.7777 36.3723 32.5825 36.0033L31.6485 34.144L31.036 35.3104C30.7298 35.8614 30.5246 36.3857 29.9335 36.3857C29.3425 36.3857 29.1251 35.8614 28.8311 35.3104L28.2186 34.144H28.2002Z" fill="url(#paint3_linear_255_19585)"/>
<path d="M29.9268 40.5911L32.2541 38.3194C32.5427 38.0345 32.7332 37.6486 32.7935 37.2265C32.8538 36.8043 32.7801 36.3723 32.5849 36.0033L31.6509 34.144L31.0384 35.3104C30.7321 35.8614 30.527 36.3857 29.9359 36.3857V40.5911H29.9268Z" fill="url(#paint4_linear_255_19585)"/>
<path d="M28.2172 34.1284L28.0488 34.4665L28.548 36.0419C28.6413 36.3693 28.8267 36.6552 29.0773 36.858C29.3279 37.0612 29.6305 37.1703 29.9413 37.1703C30.2521 37.1703 30.5548 37.0612 30.8054 36.858C31.056 36.6552 31.2414 36.3693 31.3347 36.0419L31.8339 34.4665L31.6655 34.1284L31.053 35.2948C30.7468 35.8458 30.5416 36.37 29.9505 36.37C29.3595 36.37 29.1421 35.8458 28.8481 35.2948L28.2172 34.1284Z" fill="white"/>
<path d="M25.5252 22.6513C25.5245 21.6633 25.7057 20.6853 26.0579 19.7769C26.4101 18.8685 26.9259 18.0487 27.574 17.3672C26.5263 17.8334 25.6595 18.6898 25.1241 19.7878C24.7842 18.4423 24.0308 16.4409 22.8916 15.5923C24.0645 17.712 24.2329 20.1699 24.3309 22.3809C23.6357 21.0996 23.2744 18.635 23.2744 18.635C23.0402 20.3583 23.1897 22.1186 23.7099 23.7638C24.2301 25.409 25.1054 26.8895 26.2602 28.0775L26.986 28.1485C27.3873 28.1824 27.7796 28.297 28.1435 28.4866C28.2027 28.5211 28.26 28.5595 28.315 28.6016C27.9679 28.3281 27.6449 28.0191 27.3504 27.6786C26.1789 26.3244 25.5252 24.5239 25.5252 22.6513Z" fill="url(#paint5_linear_255_19585)"/>
<path d="M23.2673 18.6455C23.1954 19.1771 23.1595 19.7139 23.1602 20.2514C23.1566 22.2874 23.6816 24.2819 24.673 25.9987C25.1415 25.8905 25.705 25.7451 25.705 25.7451C23.1724 23.2535 23.2551 18.6455 23.2551 18.6455H23.2673Z" fill="#E0E5E6"/>
<path d="M25.1087 19.7878C24.7841 18.4423 24.0308 16.4409 22.8916 15.5923C22.8916 15.5923 24.6494 17.6207 24.7627 21.4242L25.1087 19.7878Z" fill="#E0E5E6"/>
<path d="M27.5639 17.3755C26.5163 17.8417 25.6495 18.6981 25.1141 19.7961L24.9609 22.7002C24.9878 21.6499 25.2373 20.6211 25.6893 19.6964C26.1413 18.7717 26.7834 17.9768 27.5639 17.3755Z" fill="#E0E5E6"/>
<path d="M27.0045 29.6224C27.4008 29.8194 27.7507 30.1146 28.0269 30.4852C28.3031 30.8558 28.4981 31.2917 28.5969 31.759C28.854 32.7948 29.0585 33.8456 29.2094 34.9065C29.2369 35.0972 29.3251 35.2707 29.4581 35.3961C29.5912 35.5211 29.7603 35.5901 29.9351 35.5901C30.11 35.5901 30.2791 35.5211 30.4121 35.3961C30.5452 35.2707 30.6333 35.0972 30.6609 34.9065C30.8117 33.8456 31.0162 32.7948 31.2734 31.759C31.3721 31.2917 31.5672 30.8558 31.8434 30.4852C32.1195 30.1146 32.4694 29.8194 32.8658 29.6224L35.9894 27.8475L32.8995 28.1585C32.4197 28.1895 31.9544 28.3521 31.5459 28.6318C31.6442 28.3082 31.6645 27.962 31.6049 27.6271C31.5453 27.2922 31.4079 26.9802 31.206 26.7217C31.2442 26.8621 31.2638 27.0078 31.2642 27.1544C31.2642 27.5417 31.1248 27.9132 30.8767 28.1871C30.6286 28.461 30.2921 28.6149 29.9412 28.6149C29.5904 28.6149 29.2539 28.461 29.0058 28.1871C28.7577 27.9132 28.6183 27.5417 28.6183 27.1544C28.6187 27.0078 28.6383 26.8621 28.6765 26.7217C28.4747 26.9802 28.3372 27.2922 28.2776 27.6271C28.218 27.962 28.2383 28.3082 28.3366 28.6318C27.7853 28.1822 26.8667 28.1484 26.1531 28.0774L23.8809 27.8475L27.0045 29.6224Z" fill="url(#paint6_linear_255_19585)"/>
<path d="M28.8369 32.8374C28.9594 33.446 29.0789 34.1559 29.1952 34.9065C29.2228 35.097 29.311 35.2706 29.444 35.3959C29.577 35.5213 29.7462 35.5899 29.921 35.5899C30.0959 35.5899 30.265 35.5213 30.398 35.3959C30.531 35.2706 30.6192 35.097 30.6468 34.9065C30.754 34.1999 30.8673 33.5305 30.9836 32.9456C30.6774 34.6157 29.1462 34.6157 28.8614 32.9456C28.8554 32.909 28.8472 32.8729 28.8369 32.8374Z" fill="#E0E5E6"/>
<path d="M28.3385 28.6318L29.5114 29.4838C29.0942 29.2117 28.78 28.7823 28.627 28.2747C28.4739 27.7671 28.4922 27.2156 28.6784 26.7217C28.4766 26.9802 28.3391 27.2922 28.2795 27.6271C28.2199 27.962 28.2403 28.3082 28.3385 28.6318Z" fill="#E0E5E6"/>
<path d="M28.0518 28.4333C27.5067 28.1527 26.7656 28.1189 26.1531 28.058L23.8809 27.8281L26.637 28.7172C27.2759 28.9265 27.8719 29.271 28.3917 29.7315L28.3305 28.6057L28.0518 28.4333Z" fill="#E0E5E6"/>
<path d="M27.968 30.2521C27.7031 29.9518 27.392 29.7057 27.0493 29.5253L23.8828 27.8349L27.0064 29.6098C27.4028 29.8068 27.7527 30.102 28.0288 30.4726C28.3051 30.8432 28.5001 31.2791 28.5988 31.7464C28.8288 32.6618 29.0118 33.5907 29.147 34.5288L29.2021 34.8872C29.2297 35.0778 29.3179 35.2513 29.4509 35.3767C29.5839 35.5017 29.7531 35.5707 29.9279 35.5707C30.1027 35.5707 30.2719 35.5017 30.4049 35.3767C30.5379 35.2513 30.6261 35.0778 30.6537 34.8872L30.7088 34.5288C30.8448 33.5884 31.0288 32.6572 31.26 31.7397C31.3588 31.2723 31.5538 30.8364 31.83 30.4659C32.1062 30.0953 32.4561 29.8 32.8524 29.603L35.9759 27.8281L32.8096 29.5185C32.4668 29.699 32.1558 29.945 31.8909 30.2454C31.552 30.6677 31.3067 31.1711 31.1743 31.716C31.0487 32.1724 30.9507 32.6457 30.868 33.1157C30.7578 33.6994 30.6557 34.2865 30.5618 34.877C30.5363 35.0422 30.4586 35.1921 30.3426 35.3001C30.2266 35.408 30.0797 35.4675 29.9279 35.4675C29.7761 35.4675 29.6292 35.408 29.5132 35.3001C29.3972 35.1921 29.3196 35.0422 29.294 34.877C29.2062 34.2888 29.1041 33.7016 28.9877 33.1157C28.8989 32.6457 28.801 32.1724 28.6815 31.716C28.5467 31.1722 28.3017 30.6693 27.9649 30.2454L27.968 30.2521Z" fill="#E0E5E6"/>
<path d="M28.8414 35.1011L27.7298 33.0185C27.3776 32.3424 27.2398 31.7474 27.5062 31.0205C27.3674 31.3474 27.3072 31.7082 27.3314 32.0682C27.3555 32.4282 27.4632 32.7752 27.644 33.076L28.2106 34.141L28.823 35.3073L28.869 35.392C29.1415 35.9124 29.362 36.3824 29.9255 36.3824C30.489 36.3824 30.7095 35.9124 30.982 35.392L31.0279 35.3073L31.6404 34.141L32.2069 33.076C32.3878 32.7752 32.4955 32.4282 32.5196 32.0682C32.5438 31.7082 32.4835 31.3474 32.3447 31.0205C32.6112 31.7474 32.4734 32.3525 32.1181 33.0185L31.0096 35.1011L30.9299 35.2498C30.7891 35.5825 30.5904 35.8811 30.345 36.1289C30.2178 36.2215 30.0688 36.2712 29.9163 36.2712C29.7638 36.2712 29.6148 36.2215 29.4876 36.1289C29.2422 35.8811 29.0435 35.5825 28.9027 35.2498L28.823 35.1011H28.8414Z" fill="#E0E5E6"/>
<path d="M29.9268 35.8373V35.6038C30.0623 35.6035 30.1953 35.564 30.3126 35.489C30.4044 35.4278 30.4825 35.3447 30.5414 35.246C30.6002 35.1471 30.6382 35.0349 30.6525 34.9177L30.7077 34.5458C30.7536 34.2584 30.7965 33.988 30.8424 33.7378C30.8087 34.1063 30.7077 35.1509 30.7077 35.1509C30.679 35.3524 30.5828 35.5348 30.4382 35.6619C30.2937 35.789 30.1111 35.8517 29.9268 35.8373Z" fill="white"/>
<path d="M31.5566 20.4805C32.4386 21.4947 34.2117 24.2264 32.4754 27.8168L34.4689 26.2684L34.5363 25.0851C34.1287 23.1781 33.0586 21.5244 31.5566 20.4805Z" fill="url(#paint7_linear_255_19585)"/>
<path d="M33.0627 26.105C32.9281 26.707 32.7222 27.2867 32.4502 27.8292L34.2876 26.3992C34.3458 26.2808 34.4009 26.1659 34.453 26.0611L34.5326 25.0975C34.3294 24.1347 33.9535 23.2265 33.4271 22.4268C33.4941 22.9189 33.5157 23.4173 33.4914 23.9143C33.4543 24.6643 33.3117 25.4034 33.0688 26.105H33.0627Z" fill="white"/>
<path d="M34.3494 22.6513C34.3502 21.6633 34.1689 20.6853 33.8168 19.7769C33.4645 18.8685 32.9488 18.0487 32.3007 17.3672C33.3478 17.8344 34.2143 18.6906 34.7505 19.7878C35.0874 18.4423 35.8437 16.4409 36.9829 15.5923C35.807 17.712 35.6387 20.1699 35.5436 22.3809C36.2388 21.0996 36.6001 18.662 36.6001 18.662C36.6716 19.1892 36.7075 19.7214 36.7075 20.2544C36.7065 21.723 36.4314 23.1757 35.8993 24.5217C35.3668 25.8677 34.5892 27.0781 33.6144 28.0775L32.8886 28.1485C32.4873 28.1824 32.095 28.297 31.7311 28.4866C31.6719 28.5211 31.6146 28.5595 31.5596 28.6016C31.9067 28.3281 32.2297 28.0191 32.5242 27.6786C33.3341 26.7325 33.9017 25.5657 34.1687 24.2978C34.282 23.7533 34.3395 23.1965 34.3402 22.6378L34.3494 22.6513Z" fill="url(#paint8_linear_255_19585)"/>
<path d="M36.5991 18.6346C36.6702 19.1617 36.7061 19.694 36.7061 20.227C36.7096 22.263 36.1845 24.2575 35.1933 25.9743C34.7247 25.8661 34.1582 25.7207 34.1582 25.7207C36.6938 23.2291 36.6082 18.6211 36.6082 18.6211L36.5991 18.6346Z" fill="#E0E5E6"/>
<path d="M34.749 19.7878C35.0706 18.4423 35.8271 16.4409 36.9663 15.5923C36.9663 15.5923 35.2084 17.6207 35.0951 21.4242L34.749 19.7878Z" fill="#E0E5E6"/>
<path d="M32.29 17.3755C33.3372 17.8426 34.2036 18.6988 34.7399 19.7961L34.8931 22.7002C34.8657 21.6504 34.616 20.6223 34.164 19.6982C33.712 18.7742 33.0702 17.9798 32.29 17.3789V17.3755Z" fill="#E0E5E6"/>
<path d="M31.8017 28.4333C32.3468 28.1527 33.0879 28.1189 33.7004 28.058L35.9727 27.8281L33.2165 28.7172C32.5788 28.9274 31.984 29.2718 31.4648 29.7315L31.5261 28.6057L31.7986 28.4265L31.8017 28.4333Z" fill="#E0E5E6"/>
<path d="M31.5479 28.6318L30.375 29.4838C30.7923 29.2117 31.1064 28.7823 31.2594 28.2747C31.4125 27.7671 31.3943 27.2156 31.208 26.7217C31.4098 26.9802 31.5473 27.2922 31.6069 27.6271C31.6665 27.962 31.6462 28.3082 31.5479 28.6318Z" fill="#E0E5E6"/>
<path d="M41.6855 31.9812V21.7036H47.994V23.7862H43.8356V26.004H47.2714V27.9276H43.8356V31.9846L41.6855 31.9812Z" fill="white"/>
<path d="M48.9766 23.5116V21.4121H51.0745V23.5116H48.9766ZM48.9766 31.9635V24.3703H51.0745V31.9804L48.9766 31.9635Z" fill="white"/>
<path d="M59.1607 31.9873H57.0599V27.7173C57.0885 27.3322 56.999 26.9475 56.8057 26.6254C56.724 26.5153 56.6204 26.4274 56.5032 26.3688C56.3859 26.3101 56.2577 26.2822 56.1288 26.2873C55.9763 26.2884 55.8252 26.3228 55.6847 26.3887C55.5294 26.4607 55.3832 26.5551 55.2501 26.6693C55.11 26.7884 54.9842 26.9271 54.8765 27.0818C54.7673 27.2443 54.6814 27.4245 54.6222 27.6159V31.9873H52.5215V24.3772H54.4109V25.6618C54.6694 25.2039 55.043 24.8387 55.4857 24.6104C55.9879 24.357 56.5352 24.2311 57.0874 24.2419C57.4607 24.2241 57.8319 24.3163 58.1623 24.509C58.4236 24.6773 58.6409 24.9172 58.793 25.2054C58.9458 25.4933 59.0497 25.8095 59.0994 26.1385C59.1473 26.4638 59.1719 26.7928 59.173 27.1223L59.1607 31.9873Z" fill="white"/>
<path d="M60.7266 31.9824V21.7048H64.2022C64.8938 21.689 65.5813 21.8269 66.2233 22.1105C66.7667 22.3528 67.2562 22.7221 67.658 23.1931C68.0595 23.664 68.3642 24.2255 68.5508 24.8388C68.7537 25.4788 68.8572 26.1521 68.8568 26.8301C68.8653 27.5534 68.7519 28.2721 68.5233 28.9499C68.3194 29.5585 68 30.1119 67.5862 30.5727C67.1675 31.0293 66.6667 31.384 66.1162 31.6139C65.5066 31.8674 64.8597 31.9924 64.2082 31.9824H60.7266ZM66.6551 26.8301C66.6593 26.4109 66.6047 25.9935 66.4927 25.5928C66.3923 25.2394 66.2289 24.9118 66.012 24.6292C65.8021 24.3571 65.5366 24.1439 65.2372 24.0072C64.9097 23.856 64.5572 23.7812 64.2022 23.7874H62.8794V29.8999H64.2022C64.5635 29.9074 64.922 29.8278 65.2527 29.6666C65.5492 29.5208 65.8116 29.3009 66.0183 29.0242C66.2296 28.7363 66.3906 28.4072 66.4927 28.054C66.6036 27.6577 66.6586 27.2449 66.6551 26.8301Z" fill="white"/>
<path d="M73.2345 32.132C72.7024 32.1409 72.1741 32.0353 71.6789 31.821C71.2422 31.6291 70.8453 31.3416 70.5122 30.9758C70.1956 30.6215 69.9487 30.1992 69.7864 29.7351C69.6184 29.2682 69.5331 28.7701 69.5353 28.2678C69.5317 27.7357 69.617 27.2074 69.7864 26.7093C69.9452 26.2251 70.1949 25.7834 70.5189 25.413C70.8429 25.0425 71.2338 24.7515 71.6666 24.5591C72.1653 24.3403 72.6981 24.2322 73.2345 24.2413C73.7691 24.2319 74.2998 24.3399 74.7964 24.5591C75.2296 24.7563 75.6215 25.0498 75.9476 25.4212C76.2618 25.7809 76.5055 26.2077 76.6643 26.6755C76.8267 27.152 76.9087 27.6573 76.9063 28.1664C76.9063 28.3016 76.9063 28.4334 76.9063 28.5619C76.8996 28.6754 76.8862 28.7884 76.8665 28.9H71.7645C71.7691 29.1228 71.8166 29.342 71.904 29.543C71.991 29.7441 72.1156 29.9225 72.2699 30.0664C72.5611 30.3252 72.9246 30.4649 73.2989 30.4619C73.6075 30.4604 73.9114 30.3756 74.184 30.2151C74.4449 30.0775 74.6495 29.836 74.7566 29.539L76.5386 30.1239C76.2576 30.736 75.8198 31.2437 75.2803 31.5844C74.6569 31.9712 73.9491 32.1607 73.2345 32.132ZM74.689 27.4699C74.6675 27.0371 74.4992 26.6292 74.2174 26.3272C73.9378 26.0544 73.5772 25.9038 73.2039 25.9038C72.8306 25.9038 72.4699 26.0544 72.1903 26.3272C71.9163 26.6316 71.7508 27.035 71.7247 27.4632L74.689 27.4699Z" fill="white"/>
<path d="M81.1671 32.1321C80.6353 32.1409 80.1067 32.0353 79.6115 31.821C79.1745 31.6299 78.7776 31.3424 78.4448 30.9758C78.1285 30.6208 77.8806 30.1987 77.7158 29.7351C77.5506 29.2676 77.4664 28.7698 77.4678 28.2678C77.465 27.7361 77.5488 27.2081 77.7158 26.7093C77.8774 26.2335 78.1232 25.7979 78.4384 25.428C78.7667 25.0524 79.1618 24.7565 79.5992 24.5591C80.0979 24.34 80.6307 24.232 81.1671 24.2413C81.7006 24.2316 82.2306 24.3397 82.7258 24.5591C83.16 24.7563 83.5531 25.0497 83.8806 25.4212C84.1944 25.7809 84.4381 26.2078 84.5969 26.6755C84.7578 27.1524 84.8399 27.6575 84.8388 28.1664C84.8388 28.3017 84.8388 28.4335 84.8388 28.562C84.8307 28.6753 84.8174 28.7881 84.799 28.9H79.6971C79.7006 29.1231 79.7475 29.3428 79.8345 29.5441C79.9218 29.7454 80.0472 29.9235 80.2025 30.0664C80.4934 30.3262 80.8572 30.4661 81.2315 30.462C81.5404 30.46 81.844 30.3753 82.1165 30.2152C82.3775 30.0782 82.5814 29.8363 82.686 29.539L84.4715 30.1239C84.1901 30.7261 83.7587 31.227 83.228 31.5675C82.6018 31.9627 81.8883 32.1582 81.1671 32.1321ZM82.6156 27.47C82.5927 27.0376 82.4247 26.6301 82.144 26.3273C81.87 26.0465 81.5073 25.8959 81.1336 25.908C80.947 25.901 80.761 25.9349 80.5863 26.0081C80.4117 26.0812 80.2521 26.192 80.1169 26.334C79.8415 26.6375 79.676 27.0414 79.6513 27.47H82.6156Z" fill="white"/>
<path d="M90.1543 26.3906C89.6838 26.393 89.2175 26.4857 88.7763 26.6644C88.4068 26.801 88.092 27.0746 87.8849 27.4386V32.0061H85.7842V24.3959H87.7134V25.9308C87.925 25.4522 88.2409 25.0387 88.6322 24.7272C88.9773 24.4495 89.3904 24.2939 89.8173 24.281H90.0286C90.0722 24.2761 90.1166 24.2761 90.1603 24.281L90.1543 26.3906Z" fill="white"/>
<path d="M41.963 34.6009L42.9002 36.2204L43.8373 34.5874H44.0546L42.9981 36.4401V37.5728H42.8051V36.4298L41.7549 34.6009H41.963Z" fill="white"/>
<path d="M45.3666 37.5857C45.1895 37.5878 45.0144 37.5438 44.8553 37.4571C44.7056 37.373 44.5718 37.2582 44.4601 37.1191C44.3485 36.9779 44.2611 36.8153 44.203 36.6392C44.1449 36.4625 44.115 36.2759 44.1143 36.0878C44.1132 35.8938 44.1453 35.7009 44.209 35.5199C44.2714 35.3456 44.3605 35.1843 44.4724 35.0434C44.5837 34.9027 44.719 34.7877 44.8708 34.7053C45.0257 34.6207 45.1969 34.5778 45.3698 34.5802C45.5473 34.5784 45.7227 34.6236 45.8811 34.712C46.0312 34.7958 46.1653 34.9105 46.2763 35.0501C46.3886 35.2005 46.4746 35.3724 46.5305 35.5572C46.657 35.915 46.657 36.3118 46.5305 36.6695C46.4696 36.8449 46.3805 37.0065 46.2671 37.1462C46.1551 37.2857 46.0199 37.4005 45.8688 37.4843C45.7107 37.56 45.5388 37.5945 45.3666 37.5857ZM44.3224 36.0914C44.3171 36.254 44.3379 36.4167 44.3837 36.5716C44.4316 36.7241 44.5052 36.8653 44.601 36.9874C44.6947 37.1079 44.8091 37.2068 44.938 37.2779C45.0725 37.3505 45.2201 37.3874 45.3698 37.3864C45.5209 37.3892 45.6702 37.3508 45.8047 37.2748C45.9315 37.2008 46.0442 37.0994 46.1354 36.9772C46.2273 36.8515 46.2999 36.7096 46.3499 36.5579C46.3992 36.4061 46.4249 36.2459 46.4263 36.0847C46.4263 35.9174 46.3992 35.7512 46.3467 35.5946C46.2939 35.4435 46.2196 35.3031 46.1263 35.1786C46.0333 35.0565 45.9202 34.9554 45.7924 34.8811C45.6586 34.8088 45.5114 34.7712 45.362 34.7712C45.2131 34.7712 45.0659 34.8088 44.932 34.8811C44.8028 34.9562 44.6883 35.0584 44.595 35.1819C44.5024 35.3059 44.4298 35.4467 44.3805 35.5977C44.3354 35.7572 44.3157 35.9245 44.3224 36.0914Z" fill="white"/>
<path d="M48.2328 37.3729C48.3892 37.3785 48.5441 37.3402 48.6829 37.2613C48.7994 37.1905 48.8974 37.0881 48.9678 36.9638C49.0372 36.836 49.0868 36.6965 49.115 36.5511C49.1428 36.3966 49.1573 36.2392 49.1576 36.0814V34.5938H49.3506V36.0779C49.3502 36.2691 49.3305 36.4596 49.2925 36.6458C49.2559 36.817 49.1907 36.9786 49.0995 37.1226C49.0122 37.2648 48.8945 37.381 48.7565 37.4606C48.591 37.5433 48.4114 37.5859 48.23 37.5859C48.0483 37.5859 47.8687 37.5433 47.7031 37.4606C47.5644 37.381 47.4453 37.2648 47.3569 37.1226C47.2685 36.9782 47.2062 36.8162 47.1735 36.6458C47.1365 36.4652 47.1178 36.2804 47.1182 36.0948V34.5938H47.308V36.0779C47.308 36.2371 47.3235 36.3958 47.3541 36.5511C47.3798 36.6979 47.4309 36.8381 47.5041 36.9638C47.5746 37.086 47.6728 37.1863 47.7887 37.2543C47.925 37.3363 48.0778 37.3771 48.2328 37.3729Z" fill="white"/>
<path d="M50.0088 37.5655V34.5938H51.1206C51.2266 34.5933 51.3312 34.6199 51.4266 34.6715C51.52 34.7228 51.6034 34.794 51.6718 34.8811C51.7415 34.9689 51.7964 35.0696 51.8341 35.1786C51.8736 35.2859 51.8933 35.4008 51.8922 35.5167C51.8922 35.6237 51.8767 35.7297 51.8461 35.8311C51.8193 35.93 51.7767 36.0226 51.7207 36.105C51.6654 36.1853 51.5967 36.2529 51.5186 36.3043C51.4411 36.3582 51.3548 36.3937 51.2643 36.4092L51.938 37.5655H51.7175L51.0805 36.4328H50.2018V37.5655H50.0088ZM50.2018 36.2536H51.1389C51.221 36.2554 51.3023 36.2332 51.3745 36.1895C51.4443 36.1497 51.5059 36.0945 51.5552 36.0272C51.6059 35.9575 51.6453 35.8786 51.6718 35.7938C51.6964 35.7065 51.7087 35.6153 51.7084 35.5234C51.7077 35.3378 51.6457 35.1587 51.5337 35.0198C51.4802 34.9556 51.4168 34.9019 51.3471 34.8609C51.2749 34.8205 51.1953 34.7997 51.1143 34.8H50.1954L50.2018 36.2536Z" fill="white"/>
<path d="M53.4258 37.5655V34.5938H55.1683V34.7831H53.6156V35.9561H54.9324V36.142H53.6156V37.5655H53.4258Z" fill="white"/>
<path d="M55.666 37.5655V34.5938H55.859V37.5655H55.666Z" fill="white"/>
<path d="M56.7262 34.9927V37.5655H56.5332V34.5938H56.6804L58.5575 37.1937V34.5938H58.7505V37.5655H58.573L56.7262 34.9927Z" fill="white"/>
<path d="M60.2952 34.5938H60.4607L61.5936 37.5486H61.3887L61.015 36.5751H59.738L59.3644 37.5655H59.1562L60.2952 34.5938ZM60.9629 36.399L60.3779 34.8608L59.7838 36.4092L60.9629 36.399Z" fill="white"/>
<path d="M62.194 34.9927V37.5655H62.001V34.5938H62.1478L64.0253 37.1937V34.5938H64.2302V37.5655H64.0527L62.194 34.9927Z" fill="white"/>
<path d="M64.7354 36.055C64.7357 35.8751 64.7646 35.6963 64.8213 35.5276C64.8745 35.354 64.9579 35.1932 65.0664 35.0543C65.1784 34.9146 65.3133 34.7999 65.4644 34.7162C65.6327 34.6287 65.8172 34.5848 66.0032 34.5878C66.2191 34.5788 66.4325 34.6412 66.616 34.7669C66.7769 34.8796 66.9072 35.0385 66.9924 35.2267L66.8364 35.328C66.7928 35.2333 66.7357 35.1466 66.6677 35.0712C66.5459 34.9399 66.393 34.8486 66.2268 34.8075C66.1497 34.7876 66.0704 34.7774 65.9912 34.7771C65.8338 34.7747 65.6785 34.8141 65.538 34.892C65.4105 34.9653 65.2978 35.0666 65.2073 35.1895C65.1157 35.3128 65.0463 35.4537 65.0019 35.6054C64.8998 35.9167 64.8998 36.2575 65.0019 36.5688C65.0548 36.7223 65.1316 36.8638 65.2284 36.9881C65.3235 37.1078 65.439 37.2053 65.5686 37.2754C65.6993 37.3493 65.8444 37.3863 65.9912 37.3835C66.0747 37.3839 66.1581 37.3722 66.2391 37.3497C66.3247 37.3293 66.4071 37.2951 66.4842 37.2483C66.5638 37.199 66.6371 37.1374 66.7015 37.0659C66.7713 36.9899 66.829 36.9022 66.873 36.8054L67.0386 36.8934C66.9938 37.0029 66.9315 37.1025 66.8547 37.1877C66.6973 37.355 66.5015 37.4719 66.2881 37.5257C66.1881 37.5546 66.0852 37.5694 65.9821 37.5698C65.8063 37.5719 65.6327 37.5265 65.4767 37.4377C65.1745 37.256 64.9428 36.9592 64.8245 36.6026C64.766 36.4272 64.7357 36.242 64.7354 36.055Z" fill="white"/>
<path d="M69.296 37.356V37.5655H67.5137V34.5938H69.2622V34.7831H67.7067V35.9462H69.0664V36.1286H67.7067V37.356H69.296Z" fill="white"/>
<path d="M70.7871 37.5655V34.5938H71.8803C71.9866 34.5928 72.0916 34.6194 72.1867 34.6715C72.28 34.7228 72.3634 34.794 72.4318 34.8811C72.5022 34.968 72.5575 35.069 72.5938 35.1786C72.6336 35.286 72.6533 35.4008 72.6522 35.5167C72.6512 35.6318 72.6336 35.7459 72.6001 35.8547C72.5645 35.9624 72.5117 36.0621 72.4437 36.149C72.3772 36.2342 72.2958 36.3039 72.205 36.355C72.1099 36.4068 72.0049 36.4335 71.8989 36.4328H70.9801V37.5655H70.7871ZM70.9801 36.2536H71.8989C71.9806 36.255 72.0616 36.2339 72.1345 36.193C72.2043 36.1532 72.2659 36.098 72.3152 36.0307C72.3652 35.9613 72.4025 35.8821 72.4254 35.7973C72.4525 35.7093 72.4659 35.6166 72.4652 35.5233C72.4652 35.3367 72.4032 35.1561 72.2909 35.0164C72.237 34.9523 72.1736 34.8986 72.1039 34.8575C72.032 34.8202 71.9535 34.8006 71.8743 34.8H70.9738L70.9801 36.2536Z" fill="white"/>
<path d="M73.816 34.5938H73.9816L75.1113 37.5655H74.9092L74.5355 36.592H73.2585L72.8852 37.5655H72.6768L73.816 34.5938ZM74.4838 36.399L73.8988 34.8608L73.3015 36.4092L74.4838 36.399Z" fill="white"/>
<path d="M75.5107 37.5655V34.5938H76.6254C76.7317 34.5928 76.8367 34.6194 76.9318 34.6715C77.0251 34.7228 77.1086 34.794 77.1769 34.8811C77.2473 34.968 77.3026 35.069 77.3389 35.1786C77.3787 35.286 77.3984 35.4008 77.3973 35.5167C77.3984 35.6233 77.384 35.7297 77.3544 35.8311C77.3251 35.9297 77.2818 36.0219 77.2258 36.105C77.1716 36.1849 77.104 36.2529 77.0265 36.3043C76.948 36.3575 76.8606 36.393 76.7694 36.4092L77.4371 37.5588H77.2135L76.5641 36.443H75.6977V37.5655H75.5107ZM75.7037 36.2536H76.6437C76.725 36.2554 76.8053 36.2332 76.8765 36.1895C76.9466 36.1497 77.0078 36.0944 77.0571 36.0272C77.1089 35.9582 77.1484 35.879 77.1737 35.7941C77.1994 35.7064 77.2128 35.6152 77.2135 35.5233C77.2096 35.3378 77.1469 35.1594 77.036 35.0197C76.9828 34.9548 76.9194 34.9011 76.849 34.8608C76.7768 34.8205 76.6972 34.7997 76.6162 34.8H75.6977L75.7037 36.2536Z" fill="white"/>
<path d="M79.7843 34.7831H78.8042V37.5655H78.6204V34.7831H77.6406V34.5938H79.7843V34.7831Z" fill="white"/>
<path d="M80.3928 34.9927V37.5655H80.2002V34.5938H80.347L82.2241 37.1937V34.5938H82.4171V37.5655H82.2396L80.3928 34.9927Z" fill="white"/>
<path d="M84.9044 37.356V37.5655H83.1221V34.5938H84.871V34.7831H83.3151V35.9462H84.6748V36.1286H83.3151V37.356H84.9044Z" fill="white"/>
<path d="M85.4287 37.5655V34.5938H86.5433C86.6497 34.5925 86.7546 34.6191 86.8497 34.6716C86.9431 34.7228 87.0265 34.7941 87.0948 34.8812C87.1653 34.9681 87.2206 35.069 87.2572 35.1787C87.2977 35.2858 87.3185 35.4008 87.3181 35.5167C87.3185 35.6237 87.303 35.7297 87.2723 35.8311C87.2431 35.9297 87.1998 36.0219 87.1438 36.105C87.0896 36.185 87.0219 36.2529 86.9448 36.3043C86.8659 36.3575 86.7786 36.393 86.6874 36.4092L87.3551 37.5588H87.1315L86.4824 36.443H85.6157V37.5655H85.4287ZM85.6217 36.2536H86.562C86.6434 36.2554 86.7237 36.2332 86.7948 36.1895C86.8645 36.1501 86.9258 36.0948 86.9755 36.0272C87.0269 35.9582 87.0663 35.879 87.0917 35.7941C87.1174 35.7065 87.1308 35.6153 87.1315 35.5234C87.1322 35.4308 87.1156 35.3385 87.0825 35.2531C87.0529 35.1672 87.0093 35.0881 86.954 35.0198C86.9008 34.9549 86.8374 34.9011 86.767 34.8609C86.6951 34.8202 86.6152 34.7993 86.5342 34.8001H85.6157L85.6217 36.2536Z" fill="white"/>
</g>
</g>
<defs>
<filter id="filter0_d_255_19585" x="-1.9518" y="0.100098" width="117.303" height="62.7034" filterUnits="userSpaceOnUse" color-interpolation-filters="sRGB">
<feFlood flood-opacity="0" result="BackgroundImageFix"/>
<feColorMatrix in="SourceAlpha" type="matrix" values="0 0 0 0 0 0 0 0 0 0 0 0 0 0 0 0 0 0 127 0" result="hardAlpha"/>
<feOffset dy="3.36"/>
<feGaussianBlur stdDeviation="1.68"/>
<feComposite in2="hardAlpha" operator="out"/>
<feColorMatrix type="matrix" values="0 0 0 0 0 0 0 0 0 0 0 0 0 0 0 0 0 0 0.25 0"/>
<feBlend mode="normal" in2="BackgroundImageFix" result="effect1_dropShadow_255_19585"/>
<feBlend mode="normal" in="SourceGraphic" in2="effect1_dropShadow_255_19585" result="shape"/>
</filter>
<filter id="filter1_d_255_19585" x="19.5316" y="15.5923" width="73.9886" height="31.719" filterUnits="userSpaceOnUse" color-interpolation-filters="sRGB">
<feFlood flood-opacity="0" result="BackgroundImageFix"/>
<feColorMatrix in="SourceAlpha" type="matrix" values="0 0 0 0 0 0 0 0 0 0 0 0 0 0 0 0 0 0 127 0" result="hardAlpha"/>
<feOffset dy="3.36"/>
<feGaussianBlur stdDeviation="1.68"/>
<feComposite in2="hardAlpha" operator="out"/>
<feColorMatrix type="matrix" values="0 0 0 0 0 0 0 0 0 0 0 0 0 0 0 0 0 0 0.25 0"/>
<feBlend mode="normal" in2="BackgroundImageFix" result="effect1_dropShadow_255_19585"/>
<feBlend mode="normal" in="SourceGraphic" in2="effect1_dropShadow_255_19585" result="shape"/>
</filter>
<filter id="filter2_d_255_19585" x="21.9701" y="20.4805" width="9.69949" height="14.0564" filterUnits="userSpaceOnUse" color-interpolation-filters="sRGB">
<feFlood flood-opacity="0" result="BackgroundImageFix"/>
<feColorMatrix in="SourceAlpha" type="matrix" values="0 0 0 0 0 0 0 0 0 0 0 0 0 0 0 0 0 0 127 0" result="hardAlpha"/>
<feOffset dy="3.36"/>
<feGaussianBlur stdDeviation="1.68"/>
<feComposite in2="hardAlpha" operator="out"/>
<feColorMatrix type="matrix" values="0 0 0 0 0 0 0 0 0 0 0 0 0 0 0 0 0 0 0.25 0"/>
<feBlend mode="normal" in2="BackgroundImageFix" result="effect1_dropShadow_255_19585"/>
<feBlend mode="normal" in="SourceGraphic" in2="effect1_dropShadow_255_19585" result="shape"/>
</filter>
<linearGradient id="paint0_linear_255_19585" x1="25.0116" y1="26.5321" x2="33.7944" y2="20.4481" gradientUnits="userSpaceOnUse">
<stop stop-color="#2D479D"/>
<stop offset="0.5" stop-color="#457DC0"/>
<stop offset="1" stop-color="#85D2DD"/>
</linearGradient>
<linearGradient id="paint1_linear_255_19585" x1="31.615" y1="30.037" x2="38.4847" y2="38.8307" gradientUnits="userSpaceOnUse">
<stop stop-color="#2D479D"/>
<stop offset="0.5" stop-color="#457DC0"/>
<stop offset="1" stop-color="#85D2DD"/>
</linearGradient>
<linearGradient id="paint2_linear_255_19585" x1="28.2355" y1="30.037" x2="21.3657" y2="38.8307" gradientUnits="userSpaceOnUse">
<stop stop-color="#2D479D"/>
<stop offset="0.5" stop-color="#457DC0"/>
<stop offset="1" stop-color="#85D2DD"/>
</linearGradient>
<linearGradient id="paint3_linear_255_19585" x1="29.9243" y1="34.4483" x2="29.9243" y2="42.535" gradientUnits="userSpaceOnUse">
<stop stop-color="#EFF1F7"/>
<stop offset="0.949653" stop-color="#457DC0"/>
<stop offset="1" stop-color="#85D2DD"/>
</linearGradient>
<linearGradient id="paint4_linear_255_19585" x1="31.3691" y1="34.4483" x2="31.3691" y2="44.4251" gradientUnits="userSpaceOnUse">
<stop stop-color="#2D479D"/>
<stop offset="0.5" stop-color="#457DC0"/>
<stop offset="1" stop-color="#85D2DD"/>
</linearGradient>
<linearGradient id="paint5_linear_255_19585" x1="24.7137" y1="29.2675" x2="26.9219" y2="14.5825" gradientUnits="userSpaceOnUse">
<stop stop-color="#2D479D"/>
<stop offset="0.5" stop-color="#457DC0"/>
<stop offset="1" stop-color="#85D2DD"/>
</linearGradient>
<linearGradient id="paint6_linear_255_19585" x1="29.929" y1="45.8097" x2="29.929" y2="19.1859" gradientUnits="userSpaceOnUse">
<stop stop-color="#2D479D"/>
<stop offset="0.5" stop-color="#457DC0"/>
<stop offset="1" stop-color="#85D2DD"/>
</linearGradient>
<linearGradient id="paint7_linear_255_19585" x1="30.5093" y1="25.484" x2="39.2918" y2="19.4033" gradientUnits="userSpaceOnUse">
<stop stop-color="#2D479D"/>
<stop offset="0.5" stop-color="#457DC0"/>
<stop offset="1" stop-color="#85D2DD"/>
</linearGradient>
<linearGradient id="paint8_linear_255_19585" x1="33.2592" y1="29.2506" x2="35.4712" y2="14.5624" gradientUnits="userSpaceOnUse">
<stop stop-color="#2D479D"/>
<stop offset="0.5" stop-color="#457DC0"/>
<stop offset="1" stop-color="#85D2DD"/>
</linearGradient>
<clipPath id="clip0_255_19585">
<rect width="113.4" height="58.8" fill="white" transform="translate(0 0.100098)"/>
</clipPath>
</defs>
</svg>
