<svg width="109" height="57" viewBox="0 0 109 57" fill="none" xmlns="http://www.w3.org/2000/svg">
<g clip-path="url(#clip0_255_19561)">
<g filter="url(#filter0_d_255_19561)">
<path d="M100.284 0.359863H8.07711C4.36 0.359863 1.34668 3.37752 1.34668 7.09998V47.2037C1.34668 50.9262 4.36 53.9438 8.07711 53.9438H100.284C104.001 53.9438 107.015 50.9262 107.015 47.2037V7.09998C107.015 3.37752 104.001 0.359863 100.284 0.359863Z" fill="#17A7AE"/>
</g>
<mask id="mask0_255_19561" style="mask-type:luminance" maskUnits="userSpaceOnUse" x="21" y="10" width="66" height="30">
<path d="M86.6113 10.8071H21.5381V39.9952H86.6113V10.8071Z" fill="white"/>
</mask>
<g mask="url(#mask0_255_19561)">
<path d="M42.6973 39.9382C43.0435 39.2935 43.3885 38.6478 43.7364 38.0048C44.1776 37.1895 44.6202 36.3757 45.0644 35.5628C45.0862 35.5264 45.1 35.485 45.1047 35.4415C45.1095 35.398 45.1047 35.3542 45.0916 35.3131C44.3358 32.5397 43.5816 29.7657 42.8288 26.9911C42.7689 26.7698 42.7686 26.7698 42.9749 26.7698C43.867 26.7698 44.7591 26.772 45.6513 26.7672C45.7603 26.7672 45.8034 26.7922 45.8269 26.9208C46.0907 28.3785 46.3643 29.8362 46.6326 31.2939C46.6914 31.6142 46.7275 31.9392 46.7399 32.2658C46.8271 32.0041 46.8981 31.7686 46.9819 31.5406C47.3426 30.5587 47.7962 29.625 48.2088 28.6693C48.4652 28.0732 48.7318 27.4815 48.9919 26.8872C49.0222 26.8184 49.0454 26.7657 49.1332 26.7661C50.1304 26.7698 51.1278 26.7687 52.1246 26.7691C52.1428 26.7716 52.1606 26.7756 52.1781 26.781C52.0539 27.0371 51.9355 27.286 51.8143 27.5338C50.4174 30.3894 49.0205 33.2448 47.6236 36.1C47.0165 37.3409 46.4094 38.5817 45.803 39.8226C45.7855 39.86 45.7556 39.8903 45.761 39.9348L42.6973 39.9382Z" fill="#E0E0E0"/>
<path d="M81.1887 29.2847C81.3771 28.9775 81.5511 28.6661 81.7587 28.3795C82.2211 27.7418 82.8087 27.3849 83.5608 27.3576C83.8694 27.3459 84.178 27.3829 84.4772 27.4675C84.5697 27.4936 84.5811 27.5343 84.5492 27.6278C84.4304 27.9705 84.3143 28.3144 84.2069 28.6613C84.1729 28.7734 84.1285 28.7862 84.0329 28.7517C83.5672 28.5847 83.0974 28.5779 82.634 28.7566C82.0939 28.9648 81.7762 29.413 81.5821 29.9822C81.3822 30.5649 81.3276 31.1749 81.325 31.7901C81.3186 33.1081 81.3209 34.426 81.325 35.744C81.325 35.8755 81.2953 35.9109 81.1759 35.9072C80.8518 35.8974 80.5267 35.896 80.2027 35.9072C80.0714 35.9115 80.0475 35.8647 80.0479 35.7309C80.0516 33.5991 80.0522 31.4673 80.0502 29.3356C80.0502 28.8104 80.0529 28.2853 80.0482 27.7601C80.0482 27.6517 80.0748 27.6155 80.1761 27.6177C80.4719 27.625 80.7677 27.625 81.0635 27.6177C81.1627 27.6155 81.1937 27.6473 81.1927 27.7583C81.186 28.2677 81.1887 28.7764 81.1887 29.2847Z" fill="white"/>
<path d="M46.4757 10.8865C46.0035 11.2767 45.5624 11.7043 45.1286 12.1416L44.2745 13.0686L43.3568 14.1671L42.2133 15.6532L41.0388 17.3479L40.1275 18.8L39.2065 20.4446C38.9622 20.9522 38.7158 21.4586 38.4742 21.9681C38.3692 22.1897 38.274 22.4166 38.174 22.6427C37.996 23.1368 37.7954 23.6212 37.6427 24.1265C37.5679 24.3737 37.4956 24.6214 37.4091 24.8703C37.3361 24.5138 37.2651 24.1583 37.1769 23.8074C36.9881 23.172 36.7576 22.5597 36.4524 21.9815C36.3844 21.8552 36.3184 21.7296 36.2511 21.6036C35.8779 20.984 35.4368 20.4266 34.9956 19.8689C34.658 19.4712 34.2869 19.1125 33.9268 18.7405L33.2153 18.1163C32.7884 17.7893 32.367 17.4537 31.8848 17.1576C32.2272 17.0111 32.5475 16.8997 32.8929 16.899C33.179 16.8384 33.463 16.8758 33.743 16.939C33.8157 16.9554 33.8951 16.9551 33.9638 16.9951C34.3538 17.0604 34.7102 17.2294 35.0551 17.4297C35.5098 17.6843 35.9459 17.9713 36.338 18.3331C36.6247 18.5817 36.9074 18.8351 37.1422 19.1453C37.2069 19.1412 37.2217 19.0761 37.2499 19.0332C37.5128 18.6247 37.7729 18.2139 38.0347 17.8042C38.0586 17.7722 38.0842 17.742 38.1118 17.7138C38.4365 17.195 38.7757 16.6912 39.1388 16.2079C39.4161 15.7914 39.7156 15.3933 40.0353 15.0156C40.3187 14.6368 40.6242 14.2786 40.9497 13.9432C41.3292 13.5159 41.7408 13.1242 42.1796 12.7722C42.5364 12.4585 42.9193 12.1832 43.3238 11.9499C43.6031 11.7625 43.8983 11.6051 44.2052 11.4797C44.502 11.3304 44.8112 11.2123 45.1286 11.1272C45.5385 10.9888 45.9601 10.8973 46.3868 10.854C46.4185 10.8589 46.4538 10.8503 46.4757 10.8865Z" fill="url(#paint0_linear_255_19561)"/>
<path d="M31.8196 26.1434C31.6951 24.6517 30.8355 23.4541 29.5462 22.9821C28.9157 22.7511 28.2618 22.6901 27.6079 22.679C26.2581 22.6554 24.9076 22.6684 23.5574 22.6621C23.4675 22.6621 23.4437 22.6995 23.4319 22.7851C23.3273 23.5202 23.2217 24.2553 23.1149 24.9904C22.8527 26.8118 22.5906 28.633 22.3284 30.4537C22.1116 31.9533 21.8978 33.454 21.6772 34.9538C21.6365 35.2295 21.6243 35.5119 21.5381 35.7788V35.9049H24.3721C24.7247 35.9049 24.7247 35.9049 24.7844 35.5311C24.7915 35.4843 24.7959 35.4374 24.8031 35.3909C24.9953 34.0722 25.1876 32.7531 25.3799 31.4337C25.3965 31.319 25.4383 31.2932 25.5373 31.2948C25.9286 31.3014 26.3202 31.3067 26.7111 31.2948C27.367 31.2761 28.0243 31.2846 28.6792 31.1852C29.8427 31.0077 30.6982 30.3427 31.2703 29.2251C31.7582 28.2653 31.9088 27.2322 31.8196 26.1434ZM28.3313 28.0313C28.0959 28.2425 27.8044 28.3139 27.5136 28.3696C27.1249 28.4425 26.7311 28.4769 26.3368 28.4724C26.1936 28.4724 26.0507 28.4698 25.9079 28.4724C25.84 28.4742 25.8061 28.4668 25.8214 28.3722C25.9598 27.4426 26.0928 26.5123 26.2286 25.5824C26.2367 25.5252 26.2347 25.4744 26.3144 25.4747C26.8275 25.477 27.3422 25.4545 27.8444 25.6033C28.3025 25.739 28.6565 26.0104 28.7392 26.5613C28.8213 27.1193 28.761 27.6444 28.3297 28.0313H28.3313Z" fill="#E0E0E0"/>
<path d="M42.0766 26.7672C41.2895 26.7724 40.5021 26.7697 39.7146 26.7697C39.4434 26.7697 39.4434 26.7697 39.4043 27.0737C39.3606 27.4037 39.3108 27.733 39.2596 28.0903L39.158 27.9454C38.8757 27.5507 38.5546 27.1978 38.1535 26.9533C37.1062 26.3116 36.0159 26.3351 34.934 26.7949C33.8187 27.2688 33.083 28.201 32.5909 29.3757C32.2838 30.1087 32.1559 30.888 32.1291 31.6931C32.1023 32.4982 32.1766 33.2872 32.4715 34.0325C32.8379 34.9583 33.4029 35.7007 34.2922 36.0229C35.6158 36.5025 36.8151 36.1854 37.8701 35.1888C38.0239 35.0439 38.1599 34.8788 38.3224 34.6901C38.279 35.0793 38.245 35.4274 38.1992 35.7739C38.1844 35.8861 38.213 35.9063 38.3066 35.906C39.1371 35.9026 39.9673 35.9026 40.7975 35.906C40.8783 35.906 40.9119 35.8851 40.9254 35.7884C41.0543 34.8667 41.1899 33.9466 41.3222 33.0253C41.6136 30.9912 41.9054 28.958 42.1981 26.9256C42.2173 26.7933 42.1921 26.7665 42.0766 26.7672ZM37.5588 33.4614C37.0709 33.6778 36.5705 33.6603 36.0839 33.4453C35.4731 33.1766 35.1487 32.6604 35.082 31.9503C35.0215 31.3085 35.1076 30.6922 35.429 30.1401C35.8271 29.4569 36.3989 29.1014 37.1399 29.0902C37.9728 29.0625 38.5788 29.6112 38.7818 30.269C39.1025 31.3081 38.74 32.9385 37.5588 33.4614Z" fill="#E0E0E0"/>
<path d="M60.1031 22.0041C60.1175 21.9028 60.0741 21.8815 59.9897 21.8826C59.6461 21.8871 59.3025 21.8916 58.9592 21.8826C58.8337 21.8785 58.8139 21.9248 58.8142 22.05C58.8182 23.489 58.8169 24.9281 58.8169 26.3663V29.1696C58.7045 28.94 58.5756 28.721 58.4309 28.5144C58.2899 28.3156 58.1274 28.1367 57.9466 27.9818C57.1447 27.3112 56.2348 27.2166 55.2858 27.4177C54.1557 27.6577 53.3938 28.4198 52.921 29.5512C52.6565 30.1866 52.5576 30.8617 52.5394 31.5542C52.5145 32.4951 52.6269 33.407 53.0351 34.2517C53.8084 35.8484 55.2286 36.4473 56.6658 36.1982C57.5744 36.0412 58.2424 35.4781 58.7314 34.6376C58.7654 34.581 58.7832 34.5095 58.8553 34.46C58.8553 34.8954 58.86 35.3099 58.8526 35.7241C58.8502 35.8609 58.8744 35.9155 59.0134 35.9108C59.3186 35.898 59.6242 35.8963 59.9294 35.9108C60.0802 35.9185 60.1058 35.8646 60.1058 35.7113C60.1021 31.1693 60.1011 26.6272 60.1024 22.0852C60.1007 22.0582 60.1011 22.031 60.1031 22.0041ZM58.4945 33.5857C58.0685 34.4216 57.4005 34.8256 56.5437 34.8711C56.1668 34.8913 55.7922 34.8711 55.4328 34.7195C54.8792 34.4863 54.4737 34.069 54.2365 33.4806C53.8111 32.4263 53.7569 31.3364 54.1194 30.2524C54.427 29.3296 55.2185 28.7667 56.1126 28.7461C56.5952 28.7346 57.0643 28.7738 57.4984 29.0265C58.2223 29.4485 58.6224 30.1317 58.7876 30.9981C58.8334 31.2616 58.8563 31.5293 58.8556 31.7976C58.8482 32.4408 58.7725 33.0404 58.4945 33.5857Z" fill="white"/>
<path d="M63.6103 31.9717C64.5603 31.9717 65.5097 31.9717 66.4583 31.9717H69.3063C69.3837 31.9717 69.4517 31.9873 69.4524 31.8513C69.455 31.251 69.4184 30.6552 69.2632 30.0774C68.958 28.9209 68.3378 28.053 67.304 27.5959C66.7454 27.3488 66.1588 27.2797 65.5561 27.325C65.1102 27.3582 64.6795 27.4505 64.2723 27.6445C63.3899 28.0646 62.7751 28.7886 62.4029 29.7526C61.9957 30.8066 61.9722 31.9059 62.1862 33.0096C62.41 34.1658 62.9666 35.0862 63.9021 35.6941C64.6431 36.1764 65.4585 36.3024 66.3092 36.2313C67.6493 36.1191 68.6353 35.3969 69.3241 34.1459C69.3854 34.0338 69.3918 33.9751 69.279 33.9007C69.0829 33.7721 68.8984 33.6219 68.7086 33.4817C68.6215 33.4174 68.5303 33.3015 68.4462 33.3067C68.3445 33.3128 68.3186 33.4805 68.2601 33.577C67.6856 34.5204 66.9365 35.1196 65.8543 35.0613C65.0059 35.0154 64.3271 34.6275 63.8691 33.8218C63.5636 33.2877 63.4814 32.6911 63.465 32.0759C63.4613 31.9418 63.544 31.9717 63.6103 31.9717ZM63.4838 30.6952C63.5811 30.0142 63.8422 29.4353 64.3604 29.0267C64.6694 28.7782 65.0321 28.6235 65.4124 28.5782C65.9583 28.5173 66.498 28.5491 66.9991 28.8331C67.688 29.2241 67.9831 29.8902 68.0649 30.7049C68.076 30.8208 68.0285 30.8301 67.9437 30.8298C67.2185 30.8271 66.4933 30.8298 65.7685 30.8298C65.0432 30.8298 64.3275 30.8298 63.6073 30.832C63.5124 30.8316 63.4666 30.8156 63.4838 30.6956V30.6952Z" fill="white"/>
<path d="M72.2929 31.9686C73.2325 31.9734 74.1724 31.9712 75.1123 31.9712C76.0626 31.9712 77.0126 31.9712 77.9606 31.9738C78.0649 31.9738 78.0996 31.9473 78.0962 31.8265C78.0892 31.3328 78.0683 30.8414 77.9687 30.3577C77.7708 29.3937 77.3579 28.574 76.6115 27.9943C75.7476 27.3242 74.7714 27.1899 73.7612 27.3791C72.4437 27.6261 71.5334 28.4858 71.0464 29.8378C70.5767 31.1389 70.6056 32.4702 71.0734 33.7679C71.4398 34.7872 72.0971 35.5246 73.0279 35.9448C73.6525 36.2259 74.3057 36.2909 74.9747 36.2299C76.3261 36.1063 77.3115 35.3652 77.9919 34.0943C78.0404 34.003 78.0124 33.9683 77.9482 33.9223C77.7372 33.7702 77.5282 33.6143 77.3179 33.46C77.0719 33.2791 77.0722 33.2795 76.9164 33.5436C76.8804 33.6054 76.8434 33.6667 76.8047 33.726C76.2376 34.5924 75.506 35.1118 74.4992 35.0629C73.8207 35.0302 73.2436 34.764 72.7879 34.1951C72.3171 33.6031 72.1546 32.897 72.1371 32.132C72.1361 31.9967 72.1775 31.9679 72.2929 31.9686ZM72.16 30.6604C72.307 29.4416 73.2204 28.5632 74.3376 28.5565C74.7165 28.5542 75.0887 28.5815 75.4434 28.7351C76.1723 29.0505 76.5577 29.6647 76.6812 30.4963C76.7303 30.8271 76.7263 30.8279 76.4227 30.8279H74.4207C73.7107 30.8279 73.0003 30.8241 72.2902 30.8316C72.1586 30.8342 72.1452 30.7804 72.16 30.6634V30.6604Z" fill="white"/>
<path d="M83.7363 24.5903C83.7363 24.2825 83.8198 23.9817 83.9753 23.726C84.1311 23.4704 84.3522 23.2715 84.6109 23.1547C84.8694 23.0379 85.1534 23.0084 85.4274 23.0699C85.7013 23.1315 85.9523 23.2813 86.1485 23.5004C86.3447 23.7196 86.4776 23.998 86.5298 24.3003C86.5823 24.6028 86.5517 24.9155 86.4423 25.1987C86.3329 25.4819 86.1495 25.723 85.9153 25.8911C85.6811 26.0592 85.4072 26.1469 85.1275 26.143C84.757 26.1374 84.4033 25.9714 84.1428 25.6809C83.8827 25.3903 83.7367 24.9986 83.7363 24.5903ZM85.1457 25.9516C85.39 25.9516 85.6286 25.8718 85.8319 25.7223C86.0351 25.5728 86.1933 25.3603 86.2868 25.1117C86.38 24.8631 86.4046 24.5895 86.3568 24.3255C86.3094 24.0616 86.1916 23.8192 86.019 23.6289C85.846 23.4387 85.6259 23.3091 85.3863 23.2567C85.1467 23.2042 84.8983 23.2312 84.6725 23.3342C84.4471 23.4373 84.2542 23.6117 84.1183 23.8355C83.9827 24.0593 83.9103 24.3224 83.9103 24.5914C83.911 24.952 84.0416 25.2976 84.2731 25.5525C84.5046 25.8074 84.8182 25.9509 85.1457 25.9516Z" fill="#FCFFFF"/>
<path d="M85.4287 24.7137C85.5394 24.9428 85.6501 25.1704 85.7605 25.3985C85.7605 25.4007 85.7605 25.404 85.7605 25.4088H85.6333C85.5902 25.4088 85.5468 25.4088 85.5037 25.4088C85.4976 25.4095 85.4916 25.4078 85.4865 25.4043C85.4815 25.4009 85.4778 25.3956 85.4758 25.3895C85.3836 25.1936 85.2904 24.9981 85.1985 24.8022C85.1958 24.795 85.1911 24.7888 85.185 24.7846C85.179 24.7804 85.1719 24.7785 85.1645 24.7791C85.0777 24.7791 84.9908 24.7791 84.9013 24.7791V25.4067H84.6436V23.7733H84.6661C84.8337 23.7733 85.0013 23.7733 85.1689 23.7733C85.2755 23.7697 85.3812 23.793 85.4781 23.8417C85.5394 23.8731 85.5919 23.9219 85.6302 23.983C85.6686 24.0442 85.6915 24.1155 85.6965 24.1897C85.711 24.2913 85.6979 24.3953 85.6585 24.4887C85.6144 24.5843 85.5414 24.6602 85.4519 24.7032L85.4287 24.7137ZM84.8996 24.5477C84.902 24.5488 84.9044 24.5495 84.9071 24.55C85.004 24.55 85.1012 24.55 85.1981 24.55C85.255 24.5496 85.3099 24.5288 85.355 24.4909C85.427 24.4292 85.4462 24.344 85.4398 24.2491C85.4394 24.2028 85.427 24.1574 85.4034 24.119C85.3799 24.0804 85.3469 24.0502 85.3082 24.0323C85.2628 24.0126 85.2143 24.0031 85.1655 24.0042H84.9195H84.8996V24.5477Z" fill="#FCFFFF"/>
</g>
</g>
<defs>
<filter id="filter0_d_255_19561" x="-2.01332" y="0.359863" width="112.388" height="60.304" filterUnits="userSpaceOnUse" color-interpolation-filters="sRGB">
<feFlood flood-opacity="0" result="BackgroundImageFix"/>
<feColorMatrix in="SourceAlpha" type="matrix" values="0 0 0 0 0 0 0 0 0 0 0 0 0 0 0 0 0 0 127 0" result="hardAlpha"/>
<feOffset dy="3.36"/>
<feGaussianBlur stdDeviation="1.68"/>
<feComposite in2="hardAlpha" operator="out"/>
<feColorMatrix type="matrix" values="0 0 0 0 0 0 0 0 0 0 0 0 0 0 0 0 0 0 0.25 0"/>
<feBlend mode="normal" in2="BackgroundImageFix" result="effect1_dropShadow_255_19561"/>
<feBlend mode="normal" in="SourceGraphic" in2="effect1_dropShadow_255_19561" result="shape"/>
</filter>
<linearGradient id="paint0_linear_255_19561" x1="31.8848" y1="17.8614" x2="46.4757" y2="17.8614" gradientUnits="userSpaceOnUse">
<stop stop-color="#E0E0E0"/>
<stop offset="1" stop-color="#F5F5F5"/>
</linearGradient>
<clipPath id="clip0_255_19561">
<rect width="108.36" height="56.28" fill="white" transform="translate(0 0.359863)"/>
</clipPath>
</defs>
</svg>
