<svg width="131" height="69" viewBox="0 0 131 69" fill="none" xmlns="http://www.w3.org/2000/svg">
<g clip-path="url(#clip0_255_19517)">
<g filter="url(#filter0_d_255_19517)">
<path d="M121.236 0.5H9.76409C5.27034 0.5 1.62744 4.14606 1.62744 8.64371V57.0988C1.62744 61.5965 5.27034 65.2425 9.76409 65.2425H121.236C125.73 65.2425 129.373 61.5965 129.373 57.0988V8.64371C129.373 4.14606 125.73 0.5 121.236 0.5Z" fill="#091468"/>
</g>
<path d="M55.9756 22.3257L48.8646 41.3068H46.5586L44.4443 33.889L46.3662 33.6708L47.9036 38.9071L50.5944 30.6164L47.7116 22.3257H49.8255L51.9398 28.4346L53.8617 22.3257H55.9756Z" fill="white"/>
<path d="M60.2765 31.6816L59.8188 18.4355L74.9782 18.4544L60.6642 32.1198" fill="#F9BF77"/>
<path d="M67.8389 31.6816L67.3809 18.4355L82.5407 18.4544L68.2267 32.1198" fill="#F9BF77"/>
<path d="M28.478 30.857L30.2222 19.4683H34.162C34.9691 19.4683 35.6223 19.6314 36.1217 19.9576C36.621 20.2801 36.9681 20.7269 37.163 21.2978C37.358 21.865 37.399 22.5119 37.2861 23.2386C37.1767 23.9689 36.9356 24.6177 36.5628 25.1849C36.1935 25.7521 35.7061 26.1988 35.1008 26.5251C34.4955 26.8476 33.7875 27.0089 32.977 27.0089H30.3659L30.6275 25.3128H32.9821C33.4541 25.3128 33.8542 25.2238 34.1825 25.0458C34.5143 24.8679 34.7759 24.6232 34.9674 24.3118C35.1589 24.0004 35.2855 23.6426 35.347 23.2386C35.4052 22.8345 35.3864 22.4786 35.2906 22.1709C35.1949 21.8632 35.0085 21.624 34.7314 21.4535C34.4579 21.2793 34.0834 21.1922 33.608 21.1922H31.8638L30.3812 30.857H28.478Z" fill="#FCFCFC"/>
<path d="M37.4272 26.5666C37.5819 25.7304 37.886 24.9887 38.3396 24.3416C38.8035 23.6945 39.3653 23.1967 40.025 22.8483C40.6849 22.4999 41.3806 22.3257 42.1125 22.3257C42.7516 22.3257 43.2878 22.4501 43.7207 22.699C44.1641 22.9479 44.4888 23.2615 44.695 23.6398L44.9115 22.4601H47.0917L45.5762 30.7328H43.396L43.6279 29.5233C43.2878 29.9116 42.8444 30.2351 42.298 30.494C41.7622 30.7428 41.1743 30.8673 40.5353 30.8673C39.9065 30.8673 39.3498 30.7328 38.8653 30.4641C38.3808 30.1853 38.0045 29.797 37.7365 29.2993C37.4685 28.7916 37.3345 28.2042 37.3345 27.5372C37.3345 27.2286 37.3654 26.9051 37.4272 26.5666ZM44.1536 26.5965C44.195 26.3376 44.2154 26.1485 44.2154 26.029C44.2154 25.4417 44.0352 24.9837 43.6743 24.6552C43.324 24.3267 42.8806 24.1624 42.3444 24.1624C41.9424 24.1624 41.5506 24.257 41.1694 24.4461C40.798 24.6353 40.4735 24.914 40.1951 25.2824C39.9168 25.6407 39.7312 26.0688 39.6384 26.5666C39.6075 26.7557 39.5921 26.9349 39.5921 27.1042C39.5921 27.7015 39.7673 28.1744 40.1178 28.5228C40.4683 28.8613 40.9115 29.0305 41.4477 29.0305C41.8497 29.0305 42.2414 28.9359 42.6226 28.7468C43.0042 28.5477 43.3289 28.264 43.597 27.8956C43.8753 27.5273 44.0608 27.0942 44.1536 26.5965Z" fill="#FCFCFC"/>
<path d="M56.4189 33.5547C57.4477 33.5547 58.2634 33.8537 58.8651 34.4518C59.4672 35.0397 59.7679 35.8355 59.7679 36.839C59.7679 37.1634 59.7439 37.4523 59.6951 37.7057C59.6369 38.0098 59.5738 38.2734 59.5059 38.4964H53.6085C53.5987 38.5673 53.5938 38.6687 53.5938 38.8005C53.5938 39.3276 53.7395 39.7433 54.0308 40.0473C54.3314 40.3413 54.7248 40.4883 55.2102 40.4883C55.6178 40.4883 55.9673 40.3971 56.2586 40.2146C56.5596 40.022 56.8021 39.7737 56.9868 39.4695H59.1857C58.8265 40.2805 58.2683 40.9495 57.5108 41.4765C56.7634 41.9936 55.914 42.2522 54.9624 42.2522C53.9335 42.2522 53.1085 41.948 52.4868 41.3397C51.8656 40.7316 51.5552 39.9054 51.5552 38.8613C51.5552 38.5572 51.5841 38.2379 51.6422 37.9034C51.7879 37.0316 52.0841 36.2663 52.5308 35.6074C52.9868 34.9485 53.5499 34.4417 54.2199 34.0869C54.8896 33.7321 55.6227 33.5547 56.4189 33.5547ZM57.6711 37.204C57.6906 37.0418 57.7004 36.9252 57.7004 36.8542C57.7004 36.3676 57.5499 35.9875 57.2488 35.7138C56.9477 35.4401 56.5547 35.3033 56.0694 35.3033C55.5547 35.3033 55.0938 35.4756 54.6858 35.8203C54.2781 36.1548 53.9917 36.616 53.8265 37.204H57.6711Z" fill="#FCFCFC"/>
<path d="M66.3379 33.5698C67.1727 33.5698 67.8281 33.8081 68.3037 34.2845C68.789 34.7508 69.0319 35.4198 69.0319 36.2916C69.0319 36.616 69.0075 36.9099 68.9591 37.1735L68.1145 42.1153H66.0905L66.8765 37.4624C66.9058 37.2799 66.9205 37.1025 66.9205 36.9302C66.9205 36.4234 66.7894 36.0381 66.527 35.7746C66.2748 35.511 65.9107 35.3793 65.4351 35.3793C64.8916 35.3793 64.4253 35.5516 64.0372 35.8962C63.6585 36.2308 63.4062 36.7173 63.2797 37.356L62.4791 42.1153H60.4258L61.8529 33.6915H63.9062L63.7313 34.7254C64.0612 34.3706 64.4546 34.0919 64.9107 33.8891C65.3672 33.6763 65.8428 33.5698 66.3379 33.5698Z" fill="#FCFCFC"/>
<path d="M70.257 37.8729C70.4026 37.0214 70.689 36.2662 71.1162 35.6073C71.5531 34.9484 72.0824 34.4416 72.7037 34.0868C73.3347 33.732 73.9945 33.5546 74.6841 33.5546C75.2081 33.5546 75.6886 33.6762 76.1255 33.9195C76.5625 34.1527 76.8875 34.4669 77.1011 34.8623L77.7858 30.8633H79.8391L77.9315 42.1153H75.8782L76.0967 40.8684C75.7761 41.2838 75.3635 41.6185 74.8587 41.8718C74.3635 42.1255 73.8151 42.2521 73.213 42.2521C72.6211 42.2521 72.0918 42.1153 71.626 41.8417C71.1695 41.5578 70.8107 41.1623 70.5483 40.6555C70.296 40.1385 70.1699 39.5405 70.1699 38.8613C70.1699 38.547 70.1988 38.2176 70.257 37.8729ZM76.5918 37.9033C76.6304 37.6398 76.6499 37.4472 76.6499 37.3255C76.6499 36.7274 76.4799 36.2611 76.1402 35.9266C75.8102 35.5921 75.3928 35.4249 74.888 35.4249C74.5092 35.4249 74.1402 35.5212 73.781 35.7138C73.4315 35.9064 73.126 36.1902 72.8636 36.5653C72.6016 36.9302 72.427 37.3661 72.3396 37.8729C72.3103 38.0655 72.2956 38.248 72.2956 38.4203C72.2956 39.0285 72.4608 39.51 72.7907 39.8648C73.1211 40.2095 73.5385 40.3818 74.0434 40.3818C74.4217 40.3818 74.7907 40.2855 75.15 40.0929C75.5092 39.8901 75.8151 39.6012 76.0674 39.2262C76.3294 38.8511 76.5043 38.4102 76.5918 37.9033Z" fill="#FCFCFC"/>
<path d="M83.5342 42.2522C82.845 42.2522 82.2331 42.1052 81.6993 41.8112C81.1749 41.5172 80.7673 41.1016 80.476 40.5643C80.1847 40.0271 80.0391 39.4087 80.0391 38.7093C80.0391 37.7564 80.2526 36.8897 80.6798 36.1092C81.1168 35.3185 81.7091 34.6951 82.4565 34.2389C83.2136 33.7828 84.0533 33.5547 84.9756 33.5547C85.6651 33.5547 86.2766 33.7067 86.8104 34.0108C87.3543 34.3048 87.7717 34.7204 88.063 35.2577C88.3637 35.7949 88.5142 36.4133 88.5142 37.1127C88.5142 38.0757 88.2957 38.9475 87.8592 39.728C87.4223 40.5086 86.8201 41.1269 86.0533 41.5832C85.2962 42.029 84.4564 42.2522 83.5342 42.2522ZM83.8108 40.4275C84.2962 40.4275 84.738 40.2805 85.1359 39.9865C85.5337 39.6926 85.8446 39.3023 86.0679 38.8157C86.2913 38.3291 86.4027 37.8172 86.4027 37.28C86.4027 36.6718 86.2376 36.2055 85.9076 35.8811C85.5874 35.5466 85.1794 35.3793 84.6843 35.3793C84.1892 35.3793 83.7477 35.5263 83.3592 35.8203C82.9809 36.1143 82.6847 36.5096 82.4711 37.0063C82.2575 37.4929 82.1505 38.0098 82.1505 38.5572C82.1505 39.1553 82.3011 39.6165 82.6021 39.9409C82.9129 40.2653 83.3157 40.4275 83.8108 40.4275Z" fill="#FCFCFC"/>
<path d="M92.4416 35.1816C92.7911 34.6748 93.1987 34.2794 93.6645 33.9956C94.1308 33.7117 94.6356 33.5698 95.1792 33.5698L94.8004 35.805H94.2618C93.6597 35.805 93.1743 35.9418 92.8057 36.2156C92.4465 36.4893 92.1841 36.9555 92.0193 37.6144L91.2618 42.1153H89.2085L90.6357 33.6915H92.6889L92.4416 35.1816Z" fill="#FCFCFC"/>
<path d="M98.2561 42.2522C97.6637 42.2522 97.1251 42.1508 96.6397 41.948C96.1641 41.735 95.7854 41.4464 95.5038 41.0813C95.2321 40.7063 95.0962 40.2805 95.0962 39.8041C95.0962 39.7331 95.106 39.6165 95.1251 39.4544H97.1055C97.0766 39.8091 97.1784 40.098 97.4115 40.3211C97.6446 40.5339 97.9745 40.6404 98.4017 40.6404C98.7898 40.6404 99.1104 40.5694 99.3626 40.4275C99.625 40.2754 99.756 40.0575 99.756 39.7736C99.756 39.5202 99.6344 39.3175 99.3919 39.1655C99.1588 39.0134 98.7853 38.8411 98.2707 38.6485C97.7561 38.4559 97.3289 38.2683 96.9892 38.0858C96.6495 37.9034 96.3582 37.65 96.1153 37.3256C95.8728 37.0012 95.7512 36.5907 95.7512 36.094C95.7512 35.5973 95.8875 35.1563 96.1592 34.7711C96.4408 34.3859 96.8289 34.0869 97.324 33.874C97.8191 33.6611 98.3871 33.5547 99.0278 33.5547C99.6393 33.5547 100.178 33.6611 100.644 33.874C101.11 34.0869 101.47 34.3859 101.722 34.7711C101.984 35.1462 102.115 35.577 102.115 36.0636C102.115 36.1852 102.11 36.2764 102.101 36.3372H100.207C100.237 35.9824 100.139 35.6986 99.9163 35.4858C99.693 35.2729 99.3675 35.1664 98.9404 35.1664C98.5909 35.1664 98.3045 35.2475 98.0811 35.4097C97.8582 35.5618 97.7463 35.7696 97.7463 36.0331C97.7463 36.2967 97.8724 36.5146 98.1251 36.687C98.3773 36.8491 98.7658 37.0316 99.2898 37.2344C99.8142 37.4473 100.232 37.6449 100.542 37.8274C100.863 37.9997 101.139 38.243 101.372 38.5572C101.606 38.8613 101.722 39.2465 101.722 39.7128C101.722 40.2298 101.571 40.6809 101.27 41.0661C100.97 41.4512 100.557 41.7452 100.033 41.948C99.5083 42.1508 98.9163 42.2522 98.2561 42.2522Z" fill="#FCFCFC"/>
<path d="M65.8403 47.3797H64.7216L64.5369 47.9095H63.9453L64.9551 45.126H65.6109L66.6206 47.9095H66.0254L65.8403 47.3797ZM65.6874 46.9339L65.2809 45.771L64.8745 46.9339H65.6874Z" fill="#FCFCFC"/>
<path d="M67.5615 47.4671H68.487V47.9093H66.998V45.1299H67.5615V47.4671Z" fill="#FCFCFC"/>
<path d="M72.5988 45.1299L71.814 47.9093H71.1505L70.6232 45.93L70.0719 47.9093L69.4121 47.9134L68.6558 45.1299H69.2591L69.7542 47.288L70.3254 45.1299H70.9531L71.4922 47.2762L71.991 45.1299H72.5988Z" fill="#FCFCFC"/>
<path d="M74.6885 47.3797H73.5697L73.3846 47.9095H72.7935L73.8032 45.126H74.459L75.4688 47.9095H74.8736L74.6885 47.3797ZM74.5355 46.9339L74.1291 45.771L73.7227 46.9339H74.5355Z" fill="#FCFCFC"/>
<path d="M78.0795 45.1299L77.13 46.9415V47.9093H76.5669V46.9415L75.6133 45.1299H76.2488L76.8525 46.3999L77.4518 45.1299H78.0795Z" fill="#FCFCFC"/>
<path d="M79.3744 47.9369C79.1787 47.9369 79.0018 47.9039 78.8435 47.8375C78.6877 47.7712 78.5644 47.6755 78.4733 47.5509C78.3822 47.4259 78.335 47.2785 78.3325 47.1087H78.9358C78.944 47.2227 78.9843 47.3131 79.0567 47.3794C79.1315 47.4458 79.2336 47.4792 79.3622 47.4792C79.494 47.4792 79.597 47.4487 79.6722 47.3876C79.7475 47.3237 79.7849 47.2414 79.7849 47.1404C79.7849 47.0582 79.7593 46.9906 79.7084 46.9376C79.6576 46.8843 79.5929 46.8432 79.5152 46.8139C79.4403 46.7821 79.3358 46.7475 79.2015 46.7104C79.0192 46.6575 78.8703 46.6058 78.7548 46.5553C78.6421 46.502 78.5445 46.4238 78.4611 46.3204C78.3805 46.2141 78.3402 46.0732 78.3402 45.8981C78.3402 45.7336 78.3821 45.5903 78.4651 45.4681C78.5481 45.346 78.6649 45.2531 78.815 45.1892C78.9655 45.1228 79.1372 45.0898 79.3301 45.0898C79.6197 45.0898 79.8545 45.1603 80.0343 45.3008C80.2166 45.4388 80.3174 45.6326 80.3362 45.8822H79.7166C79.7113 45.7865 79.6694 45.7084 79.5917 45.6473C79.5168 45.5834 79.4159 45.5516 79.2898 45.5516C79.1799 45.5516 79.0917 45.5797 79.0245 45.6355C78.9599 45.6913 78.9277 45.7719 78.9277 45.8782C78.9277 45.9527 78.9521 46.015 79.0001 46.0655C79.0514 46.1131 79.1128 46.153 79.1852 46.1848C79.2605 46.2141 79.3651 46.2487 79.4993 46.2882C79.6816 46.3415 79.8305 46.3945 79.9456 46.4478C80.0611 46.5007 80.1604 46.5805 80.2434 46.6864C80.3268 46.7927 80.3683 46.932 80.3683 47.1046C80.3683 47.2532 80.3293 47.3913 80.2515 47.5187C80.1738 47.6462 80.0599 47.7484 79.9094 47.8253C79.7593 47.8998 79.5811 47.9369 79.3744 47.9369Z" fill="#FCFCFC"/>
<path d="M85.569 45.1299L84.7846 47.9093H84.1207L83.5934 45.93L83.0422 47.9093L82.3823 47.9134L81.626 45.1299H82.2297L82.7244 47.288L83.2956 45.1299H83.9234L84.4624 47.2762L84.9616 45.1299H85.569Z" fill="#FCFCFC"/>
<path d="M86.5005 45.1299V47.9093H85.937V45.1299H86.5005Z" fill="#FCFCFC"/>
<path d="M88.9675 45.1299V45.5798H88.2193V47.9093H87.6559V45.5798H86.9077V45.1299H88.9675Z" fill="#FCFCFC"/>
<path d="M91.7084 45.1299V47.9093H91.145V46.7265H89.942V47.9093H89.3789V45.1299H89.942V46.2724H91.145V45.1299H91.7084Z" fill="#FCFCFC"/>
<path d="M95.4545 45.1299L94.505 46.9415V47.9093H93.9415V46.9415L92.9883 45.1299H93.6238L94.2275 46.3999L94.8268 45.1299H95.4545Z" fill="#FCFCFC"/>
<path d="M97.0832 47.9369C96.8204 47.9369 96.5787 47.8758 96.359 47.7537C96.1389 47.6315 95.9648 47.4629 95.8358 47.2479C95.7073 47.0305 95.6426 46.785 95.6426 46.5113C95.6426 46.2405 95.7073 45.9979 95.8358 45.7825C95.9648 45.565 96.1389 45.3952 96.359 45.2731C96.5787 45.1509 96.8204 45.0898 97.0832 45.0898C97.3488 45.0898 97.5901 45.1509 97.8073 45.2731C98.0274 45.3952 98.2003 45.565 98.3265 45.7825C98.455 45.9979 98.5197 46.2405 98.5197 46.5113C98.5197 46.785 98.455 47.0305 98.3265 47.2479C98.2003 47.4629 98.0274 47.6315 97.8073 47.7537C97.5872 47.8758 97.346 47.9369 97.0832 47.9369ZM97.0832 47.4393C97.252 47.4393 97.4009 47.4018 97.5299 47.3277C97.6584 47.2508 97.7589 47.1421 97.8313 47.0012C97.9037 46.8603 97.94 46.697 97.94 46.5113C97.94 46.3257 97.9037 46.1636 97.8313 46.0256C97.7589 45.8847 97.6584 45.7772 97.5299 45.7031C97.4009 45.6285 97.252 45.5915 97.0832 45.5915C96.9143 45.5915 96.7638 45.6285 96.6324 45.7031C96.5038 45.7772 96.4034 45.8847 96.3305 46.0256C96.2581 46.1636 96.2219 46.3257 96.2219 46.5113C96.2219 46.697 96.2581 46.8603 96.3305 47.0012C96.4034 47.1421 96.5038 47.2508 96.6324 47.3277C96.7638 47.4018 96.9143 47.4393 97.0832 47.4393Z" fill="#FCFCFC"/>
<path d="M99.4937 45.1299V46.8498C99.4937 47.0384 99.5434 47.1833 99.6426 47.2839C99.7419 47.3824 99.8814 47.4313 100.061 47.4313C100.244 47.4313 100.384 47.3824 100.484 47.2839C100.583 47.1833 100.632 47.0384 100.632 46.8498V45.1299H101.2V46.8462C101.2 47.0823 101.147 47.2827 101.043 47.4472C100.941 47.6092 100.803 47.7314 100.628 47.8136C100.457 47.8959 100.265 47.937 100.053 47.937C99.844 47.937 99.6536 47.8959 99.4819 47.8136C99.3127 47.7314 99.1788 47.6092 99.0796 47.4472C98.9803 47.2827 98.9307 47.0823 98.9307 46.8462V45.1299H99.4937Z" fill="#FCFCFC"/>
<path d="M74.617 18.5283L67.7179 26.1208L67.521 18.5283H74.617Z" fill="#FFA700"/>
</g>
<defs>
<filter id="filter0_d_255_19517" x="-2.37256" y="0.5" width="135.745" height="72.7427" filterUnits="userSpaceOnUse" color-interpolation-filters="sRGB">
<feFlood flood-opacity="0" result="BackgroundImageFix"/>
<feColorMatrix in="SourceAlpha" type="matrix" values="0 0 0 0 0 0 0 0 0 0 0 0 0 0 0 0 0 0 127 0" result="hardAlpha"/>
<feOffset dy="4"/>
<feGaussianBlur stdDeviation="2"/>
<feComposite in2="hardAlpha" operator="out"/>
<feColorMatrix type="matrix" values="0 0 0 0 0 0 0 0 0 0 0 0 0 0 0 0 0 0 0.25 0"/>
<feBlend mode="normal" in2="BackgroundImageFix" result="effect1_dropShadow_255_19517"/>
<feBlend mode="normal" in="SourceGraphic" in2="effect1_dropShadow_255_19517" result="shape"/>
</filter>
<clipPath id="clip0_255_19517">
<rect width="131" height="68" fill="white" transform="translate(0 0.5)"/>
</clipPath>
</defs>
</svg>
