<svg width="74" height="43" viewBox="0 0 74 43" fill="none" xmlns="http://www.w3.org/2000/svg">
<g clip-path="url(#clip0_258_20000)">
<path d="M21.4705 15.6065C21.4579 16.3232 21.5449 17.0381 21.7292 17.7315C21.9508 18.3196 22.208 18.8941 22.4995 19.4519C22.6132 19.6161 22.6757 19.8094 22.6793 20.0082C22.6617 20.1535 22.6104 20.2929 22.5294 20.4157C22.4485 20.5384 22.34 20.6412 22.2123 20.7161L20.6743 21.7279C20.4798 21.8902 20.2283 21.9705 19.9741 21.9516C19.72 21.9326 19.4836 21.8159 19.3161 21.6266C18.9875 21.2857 18.6949 20.9128 18.443 20.5134C18.1737 20.0524 17.9253 19.5798 17.6986 19.097C16.8424 20.1453 15.7541 20.9867 14.5169 21.5567C13.2797 22.1267 11.9265 22.4102 10.561 22.3855C9.67716 22.4291 8.79331 22.2995 7.96067 22.0042C7.12802 21.7089 6.36314 21.2537 5.71033 20.6651C5.10507 20.061 4.63274 19.3405 4.32282 18.5485C4.01291 17.7566 3.87207 16.9101 3.90912 16.0621C3.87276 15.1287 4.0527 14.1995 4.43528 13.3448C4.81786 12.4902 5.39304 11.7327 6.11714 11.1297C7.60468 9.8904 9.55723 9.25769 12.0738 9.25769C12.9334 9.26528 13.7915 9.33299 14.6414 9.46031C15.5397 9.58775 16.4639 9.76361 17.4399 9.99172V8.24585C17.4399 6.42479 17.0518 5.15999 16.31 4.4266C15.5397 3.69575 14.23 3.33893 12.3557 3.33893C11.4741 3.34282 10.5956 3.44456 9.73703 3.64223C8.848 3.85843 7.97342 4.12869 7.11832 4.45145C6.8454 4.57664 6.5619 4.67812 6.27107 4.75475C6.14592 4.79765 6.01531 4.82317 5.88301 4.83057C5.54929 4.83057 5.36949 4.6031 5.36949 4.09718V2.93114C5.34406 2.64149 5.40664 2.35094 5.54929 2.09644C5.73118 1.88067 5.96053 1.70853 6.21997 1.59307C7.18472 1.09678 8.21309 0.731128 9.27719 0.506038C10.5096 0.196229 11.7772 0.043124 13.0491 0.0504554C15.9504 0.0504554 18.0556 0.708024 19.4164 1.99831C20.7513 3.2886 21.4213 5.2613 21.4213 7.89158V15.632H21.4724L21.4705 15.6065ZM11.6113 19.2493C12.4593 19.2355 13.2998 19.0904 14.102 18.8192C14.9982 18.5171 15.7961 17.9843 16.4128 17.2759C16.8002 16.8285 17.0809 16.3011 17.2342 15.7327C17.4 15.0538 17.4776 14.3569 17.4651 13.6587V12.6475C16.7293 12.4693 15.9833 12.3341 15.2312 12.2429C14.4738 12.1429 13.7105 12.0922 12.9462 12.0912C11.3293 12.0912 10.1219 12.3945 9.3244 13.0521C8.92396 13.3899 8.60879 13.8149 8.40382 14.2934C8.19885 14.7719 8.1097 15.2908 8.14343 15.8092C8.09299 16.2709 8.14774 16.7379 8.3037 17.1762C8.45965 17.6144 8.71287 18.0129 9.04492 18.3425C9.37697 18.6721 9.77947 18.9246 10.2231 19.0816C10.6667 19.2386 11.1403 19.2961 11.6094 19.2499L11.6113 19.2493ZM31.0981 21.8292C30.7728 21.8554 30.4479 21.775 30.1739 21.6005C29.919 21.3406 29.7414 21.0169 29.6604 20.6645L23.9864 2.17545C23.8688 1.86597 23.7912 1.54314 23.7555 1.21458C23.7449 1.13452 23.7527 1.05314 23.7783 0.97644C23.8039 0.899741 23.8466 0.829676 23.9033 0.771406C23.9601 0.713137 24.0293 0.668149 24.106 0.639756C24.1828 0.611363 24.265 0.600289 24.3466 0.60735H26.7344C27.0682 0.573845 27.4036 0.654136 27.6845 0.834822C27.9296 1.09789 28.0981 1.42127 28.1722 1.77084L32.2286 17.6302L36.0024 1.79632C36.0524 1.44404 36.2143 1.11637 36.4649 0.860309C36.7581 0.686942 37.0985 0.607257 37.4395 0.632199H39.3908C39.7322 0.603348 40.074 0.683072 40.3661 0.859672C40.621 1.11279 40.7836 1.44193 40.8285 1.79569L44.6547 17.8074L48.8651 1.79569C48.9438 1.44775 49.1117 1.12549 49.3528 0.859672C49.6367 0.685964 49.9696 0.606259 50.3029 0.632199H52.562C52.6453 0.622473 52.7298 0.631487 52.8091 0.658564C52.8883 0.685641 52.9603 0.730076 53.0197 0.788526C53.079 0.846976 53.1241 0.91792 53.1516 0.99602C53.1791 1.07412 53.1882 1.15734 53.1783 1.23943C53.1725 1.36807 53.1554 1.49598 53.1272 1.62174C53.0862 1.82912 53.026 2.03238 52.9474 2.22897L47.0937 20.7161C47.0191 21.0708 46.8405 21.3963 46.5801 21.6521C46.3044 21.8227 45.9807 21.9024 45.6559 21.8796H43.576C43.2345 21.9084 42.8927 21.8287 42.6006 21.6521C42.3463 21.3887 42.1842 21.052 42.1382 20.6912L38.3644 5.2613L34.6132 20.6657C34.5559 21.0231 34.3954 21.3567 34.1508 21.6266C33.8622 21.8113 33.5175 21.8917 33.1755 21.8541H31.0981V21.8292ZM62.2924 22.4868C61.0296 22.4828 59.7712 22.3385 58.5412 22.0567C57.5693 21.8602 56.6282 21.537 55.7427 21.0958C55.437 20.9511 55.1801 20.7226 55.0028 20.4376C54.906 20.2312 54.8536 20.0074 54.8489 19.7801V18.5662C54.8489 18.0603 55.0546 17.8328 55.4135 17.8328C55.5624 17.8334 55.71 17.859 55.8501 17.9087C56.004 17.959 56.2097 18.0603 56.4664 18.1361C57.322 18.5122 58.2178 18.7922 59.1369 18.9708C60.0914 19.1636 61.0639 19.257 62.0383 19.2493C63.271 19.3265 64.5005 19.0543 65.5812 18.4649C65.9756 18.228 66.2995 17.8927 66.5203 17.493C66.741 17.0933 66.8508 16.6432 66.8385 16.1883C66.8487 15.5668 66.6088 14.9665 66.171 14.5189C65.4656 13.9266 64.631 13.5025 63.7321 13.2796L60.2144 12.1664C58.6955 11.7778 57.3393 10.9283 56.3377 9.73812C55.563 8.74359 55.1397 7.52676 55.1322 6.27314C55.1149 5.3456 55.3451 4.42984 55.7996 3.61738C56.2378 2.84777 56.8323 2.17537 57.5459 1.64213C58.2967 1.07684 59.1495 0.656952 60.0592 0.404727C61.0525 0.125489 62.0816 -0.0107899 63.1144 0.000118246C63.6552 -0.00471889 64.1956 0.0291406 64.7313 0.10143C65.296 0.177254 65.8095 0.278565 66.2978 0.356301C66.7854 0.483737 67.2479 0.583774 67.6844 0.738608C68.0399 0.849372 68.3838 0.993393 68.7115 1.1687C68.9981 1.31002 69.245 1.51855 69.4307 1.77594C69.5942 2.00473 69.6755 2.2808 69.6616 2.5603V3.66772C69.6616 4.17364 69.4559 4.4266 69.0969 4.4266C68.7744 4.38926 68.4613 4.29493 68.1727 4.14815C66.704 3.50132 65.1084 3.18172 63.4999 3.21214C62.3829 3.15805 61.2702 3.38431 60.2661 3.8697C59.8979 4.08758 59.5977 4.40112 59.3984 4.77595C59.1991 5.15078 59.1084 5.57244 59.1363 5.9947C59.1286 6.31112 59.1888 6.62557 59.3127 6.91759C59.4366 7.20961 59.6215 7.47265 59.8554 7.68959C60.6434 8.30572 61.5528 8.7536 62.5259 9.00473L65.966 10.0924C67.4304 10.4679 68.7457 11.27 69.7398 12.3939C70.4831 13.3505 70.8726 14.5284 70.8438 15.7327C70.8535 16.6968 70.6337 17.6498 70.2022 18.5153C69.7729 19.3331 69.1685 20.0495 68.4308 20.6148C67.6349 21.2382 66.7173 21.6937 65.7351 21.9528C64.6257 22.3183 63.4622 22.4988 62.2924 22.4868Z" fill="#220F0F"/>
<path d="M66.8881 34.0967C58.9032 39.9141 47.2985 43 37.3113 43C23.9838 43.0725 11.1096 38.2374 1.21324 29.4427C0.468828 28.7852 1.13628 27.8746 2.03462 28.3806C13.0351 34.5745 25.4882 37.827 38.1585 37.8153C47.6219 37.7627 56.9828 35.8806 65.7103 32.2756C67.0679 31.6939 68.1978 33.1358 66.8881 34.0967ZM70.226 30.3787C69.1989 29.0885 63.4739 29.7467 60.8804 30.0755C60.1101 30.1768 59.982 29.4937 60.6747 28.9878C65.2447 25.8261 72.7419 26.7366 73.6143 27.7988C74.4875 28.8865 73.3835 36.2733 69.0955 39.8135C68.428 40.3697 67.8117 40.0683 68.0943 39.3579C69.0702 36.9806 71.2265 31.6429 70.226 30.3787Z" fill="#FF9900"/>
</g>
<defs>
<clipPath id="clip0_258_20000">
<rect width="73" height="43" fill="white" transform="translate(0.892578)"/>
</clipPath>
</defs>
</svg>
