<svg width="161" height="47" viewBox="0 0 161 47" fill="none" xmlns="http://www.w3.org/2000/svg">
<g clip-path="url(#clip0_258_20003)">
<path fill-rule="evenodd" clip-rule="evenodd" d="M150.039 19.5591C149.895 19.5881 149.751 19.9061 149.751 20.0791C149.712 22.1769 149.693 24.2749 149.693 26.3731C149.7 26.4161 149.721 26.4558 149.752 26.4867C149.783 26.5177 149.822 26.5384 149.866 26.5461C150.299 26.5751 151.338 26.6041 152.233 26.6041C153.037 26.6443 153.841 26.5267 154.601 26.2581C155.102 25.9701 155.511 25.5462 155.782 25.0354C156.053 24.5245 156.174 23.9476 156.131 23.3711C156.131 20.5711 154.168 19.5021 151.252 19.5021C150.846 19.4683 150.439 19.4878 150.039 19.5601V19.5591ZM157.484 32.4651C157.484 29.6071 155.376 28.0191 151.565 28.0191C151.006 28.0007 150.447 28.0104 149.89 28.0481C149.803 28.0771 149.69 28.1351 149.69 28.2211C149.69 30.2711 149.661 33.5331 149.748 34.8031C149.784 35.1164 149.888 35.4181 150.053 35.6873C150.217 35.9565 150.438 36.1867 150.701 36.3621C151.508 36.6384 152.361 36.7559 153.213 36.7081C153.784 36.7577 154.358 36.6823 154.897 36.4871C155.436 36.2918 155.926 35.9814 156.332 35.5775C156.739 35.1736 157.053 34.6858 157.251 34.1483C157.45 33.6108 157.529 33.0363 157.484 32.4651ZM144.149 17.9721C144.438 17.9721 145.304 18.0581 147.527 18.0581C149.635 18.0581 151.309 18.0001 153.359 18.0001C155.871 18.0001 159.335 18.8951 159.335 22.6481C159.291 23.5431 158.982 24.4049 158.448 25.1245C157.914 25.844 157.179 26.3889 156.335 26.6901C156.249 26.7191 156.249 26.7761 156.335 26.8051C158.76 27.4111 160.897 28.9131 160.897 31.7421C160.897 34.5141 159.165 36.2751 156.653 37.3721C154.94 38.0238 153.114 38.328 151.283 38.2671C149.811 38.2671 145.855 38.0941 143.661 38.1521C143.43 38.0651 143.861 37.0261 144.061 36.8521C144.56 36.8436 145.055 36.7659 145.533 36.6211C146.313 36.4211 146.399 36.1881 146.515 35.0041C146.573 33.9931 146.573 30.4131 146.573 27.8731C146.573 24.3791 146.602 22.0121 146.573 20.8571C146.544 19.9621 146.226 19.6731 145.591 19.5001C145.1 19.4141 144.291 19.3001 143.628 19.2121C143.483 19.0671 143.974 18.0861 144.148 17.9701L144.149 17.9721ZM127.49 35.9301C128.477 36.5045 129.612 36.7754 130.753 36.7091C131.593 36.7518 132.433 36.6284 133.226 36.346C134.019 36.0635 134.748 35.6276 135.372 35.0631C136.902 33.6771 137.972 31.5411 137.972 28.1341C137.972 24.8711 136.73 22.2151 134.19 20.6561C132.533 19.7377 130.654 19.298 128.762 19.3861C128.215 19.3497 127.666 19.4176 127.145 19.5861C127 19.7042 126.899 19.8665 126.856 20.0481C126.798 20.6261 126.798 25.0721 126.798 27.6701C126.798 30.3551 126.798 34.1081 126.856 34.5411C126.853 34.8046 126.908 35.0654 127.018 35.305C127.128 35.5446 127.289 35.757 127.491 35.9271L127.49 35.9301ZM120.936 17.9721C121.485 17.9721 123.592 18.0581 124.603 18.0581C126.422 18.0581 127.721 17.9721 131.157 17.9721C133.698 17.8599 136.196 18.6584 138.202 20.2241C139.251 21.1402 140.083 22.2792 140.637 23.5578C141.191 24.8365 141.452 26.2226 141.402 27.6151C141.482 29.2231 141.159 30.8257 140.464 32.2777C139.768 33.7296 138.721 34.985 137.418 35.9301C134.989 37.603 132.076 38.4251 129.132 38.2681C127.169 38.2681 123.791 38.2101 120.99 38.1811H120.961C120.817 37.9211 121.192 36.9111 121.423 36.8811C121.876 36.8605 122.323 36.7729 122.751 36.6211C123.357 36.3901 123.473 36.0721 123.56 35.0041C123.646 33.0121 123.618 30.6161 123.618 27.9041C123.618 25.9701 123.647 22.1871 123.589 20.9751C123.503 19.9651 123.07 19.7051 122.203 19.5311C121.77 19.4451 121.192 19.3311 120.384 19.2431C120.268 19.0431 120.784 18.1431 120.932 17.9731L120.936 17.9721Z" fill="black"/>
<path fill-rule="evenodd" clip-rule="evenodd" d="M86.0019 37.0551C85.3531 36.9977 84.7186 36.8318 84.1249 36.5641C84.0034 36.4366 83.923 36.2757 83.8939 36.1021C83.8359 35.0911 83.8359 32.2021 83.8359 30.2701C83.92 28.9172 83.5983 27.5699 82.9119 26.4011C82.5423 25.8563 82.0422 25.4128 81.4572 25.111C80.8722 24.8091 80.221 24.6586 79.5629 24.6731C77.9147 24.8762 76.3759 25.6053 75.1749 26.7521C75.1459 26.7811 74.9149 26.9831 74.9439 26.6651C74.9439 26.3471 75.0019 25.7121 75.0309 25.2791C75.0441 25.1696 75.0331 25.0585 74.9985 24.9537C74.964 24.849 74.9067 24.7532 74.8309 24.6731C73.3909 25.2362 71.8885 25.624 70.3559 25.8281C69.6629 25.9731 69.4899 26.6361 70.2119 26.8671H70.2409C70.841 27.0335 71.4137 27.2865 71.9409 27.6181C72.0473 27.721 72.1268 27.8486 72.1721 27.9895C72.2175 28.1304 72.2273 28.2804 72.2009 28.4261C72.2299 30.5911 72.2299 33.9111 72.1429 35.7261C72.1139 36.4481 71.9119 36.7071 71.3919 36.8261L71.4499 36.7971C71.05 36.896 70.6451 36.9731 70.2369 37.0281C70.151 37.234 70.1069 37.4549 70.1069 37.6781C70.1069 37.9012 70.151 38.1221 70.2369 38.3281C70.5549 38.3281 72.2289 38.2411 73.6149 38.2411C75.5199 38.2411 76.5019 38.3281 76.9929 38.3281C77.195 37.926 77.2461 37.4647 77.1369 37.0281C76.6876 37.0174 76.2414 36.9502 75.8089 36.8281C75.2889 36.7121 75.1449 36.4531 75.1159 35.8461C75.0579 34.3161 75.0579 31.0821 75.0579 28.8881C75.0382 28.6958 75.0588 28.5015 75.1183 28.3176C75.1779 28.1337 75.2752 27.9643 75.4039 27.8201C76.164 27.1988 77.1113 26.8518 78.0929 26.8351C78.8154 26.8079 79.5232 27.0438 80.0849 27.4991C80.6075 27.97 80.9368 28.6182 81.0089 29.3181C81.1529 30.5601 81.0959 33.0181 81.0959 35.1501C81.0959 36.3051 81.0089 36.5941 80.5759 36.7381C80.1456 36.8791 79.6995 36.9664 79.2479 36.9981C79.162 37.204 79.1179 37.425 79.1179 37.6481C79.1179 37.8712 79.162 38.0921 79.2479 38.2981C80.0849 38.2981 81.0669 38.2111 82.5109 38.2111C84.3009 38.2111 85.4559 38.2981 85.9179 38.2981C86.0773 37.9036 86.1074 37.4687 86.0039 37.0561L86.0019 37.0551ZM94.0019 26.0261C92.4719 26.0261 91.5189 27.2101 91.5189 29.0571C91.5189 30.9341 92.3559 33.0991 94.7189 33.0991C95.2731 33.0991 95.8076 32.8935 96.2189 32.5221C96.853 31.7862 97.1834 30.8366 97.1429 29.8661C97.1429 27.4661 95.9589 26.0261 93.9959 26.0261H94.0019ZM93.8019 38.7871C93.3675 38.7826 92.9396 38.8923 92.5609 39.1051C91.3479 39.8841 90.7999 40.6351 90.7999 41.5301C90.7929 41.9317 90.8809 42.3293 91.0566 42.6906C91.2322 43.0518 91.4907 43.3665 91.8109 43.6091C92.7971 44.3748 94.0287 44.7546 95.2749 44.6771C98.2199 44.6771 99.5189 43.0891 99.5189 41.5301C99.5374 41.0235 99.381 40.526 99.076 40.1212C98.771 39.7164 98.3359 39.4289 97.8439 39.3071C96.5375 38.8979 95.1693 38.7219 93.8019 38.7871ZM94.0019 46.2941C92.5267 46.3794 91.0675 45.9507 89.8729 45.0811C89.4232 44.7467 89.0528 44.3172 88.7884 43.8231C88.5239 43.3291 88.3718 42.7827 88.3429 42.2231C88.3543 41.6876 88.5597 41.1745 88.9209 40.7791C89.7239 39.9704 90.6148 39.254 91.5769 38.6431C91.6349 38.6141 91.6629 38.5851 91.6629 38.5271C91.6574 38.4953 91.644 38.4655 91.6239 38.4403C91.6038 38.4151 91.5776 38.3954 91.5479 38.3831C91.1085 38.2596 90.7069 38.0287 90.3792 37.7111C90.0514 37.3935 89.808 36.9993 89.6709 36.5641V36.5061C89.6419 36.3331 89.5849 36.1601 89.8439 35.9861C90.0439 35.8421 90.3349 35.6691 90.6519 35.4671C91.1134 35.2084 91.557 34.919 91.9799 34.6011C92.0018 34.5784 92.0184 34.5511 92.0284 34.5211C92.0385 34.4912 92.0417 34.4594 92.0379 34.4281C92.0323 34.3962 92.0187 34.3663 91.9985 34.3411C91.9782 34.3159 91.9518 34.2963 91.9219 34.2841C90.9825 34.0141 90.1662 33.4258 89.6132 32.6198C89.0602 31.8139 88.8048 30.8407 88.8909 29.8671C88.8808 29.1563 89.0437 28.4537 89.3657 27.8199C89.6876 27.1861 90.1589 26.6402 90.7389 26.2291C91.9767 25.4007 93.4107 24.9127 94.8969 24.8141H94.9839C96.0762 24.847 97.1531 25.082 98.1599 25.5071C98.7633 25.7144 99.399 25.8119 100.037 25.7951C100.408 25.8287 100.783 25.7789 101.132 25.6491C101.482 25.5193 101.798 25.3129 102.058 25.0451C102.132 25.2284 102.172 25.4242 102.174 25.6221C102.196 26.0937 102.064 26.5597 101.799 26.9501C101.64 27.1286 101.444 27.2702 101.225 27.3651C101.005 27.4599 100.768 27.5056 100.529 27.4991H100.384C100.131 27.4752 99.8807 27.4365 99.6329 27.3831L99.5179 27.4411C99.4889 27.4991 99.5179 27.5561 99.5469 27.6411L99.5759 27.6991C99.6578 28.1093 99.7156 28.524 99.7489 28.9411C99.8123 29.7491 99.6648 30.5597 99.3206 31.2935C98.9765 32.0273 98.4477 32.6592 97.7859 33.1271C96.8018 33.8645 95.6324 34.3146 94.4079 34.4271C94.2741 34.4293 94.1405 34.439 94.0079 34.4561C93.8629 34.4561 93.6609 34.4851 93.6329 34.4851H93.5929C93.3619 34.5431 92.7849 34.8311 92.7849 35.3221C92.7849 35.7551 93.0449 36.2751 94.2849 36.3611C94.5449 36.3901 94.8049 36.3901 95.0929 36.4191C96.6567 36.4675 98.2127 36.6607 99.7409 36.9961C100.379 37.22 100.932 37.6384 101.32 38.1925C101.708 38.7466 101.913 39.4085 101.906 40.0851C101.906 42.2211 100.376 44.2141 97.8349 45.4551C96.6292 46.0048 95.3199 46.2901 93.9949 46.2921L94.0019 46.2941ZM110.456 26.1731C109.904 26.1534 109.36 26.3046 108.897 26.6061C107.771 27.2991 107.197 28.6851 107.197 30.7061C107.197 34.4881 109.102 37.1441 111.816 37.1441C112.543 37.1676 113.253 36.9207 113.808 36.4511C114.645 35.7581 115.078 34.3721 115.078 32.4381C115.078 28.6851 113.201 26.1731 110.459 26.1731H110.456ZM110.976 38.5301C106.068 38.5301 104.307 34.9211 104.307 31.5431C104.266 30.4593 104.509 29.3836 105.01 28.4218C105.511 27.4599 106.254 26.645 107.165 26.0571C108.494 25.2345 110.019 24.7854 111.582 24.7571C112.442 24.7284 113.299 24.8796 114.098 25.2012C114.897 25.5227 115.62 26.0074 116.22 26.6244C116.821 27.2413 117.286 27.9768 117.586 28.7838C117.886 29.5908 118.015 30.4516 117.963 31.3111C118.027 32.4857 117.78 33.6563 117.248 34.7054C116.715 35.7544 115.916 36.6448 114.931 37.2871C113.744 38.0411 112.38 38.4704 110.976 38.5301ZM59.5259 26.1731C58.974 26.1535 58.4296 26.3047 57.9669 26.6061C56.8409 27.2991 56.2669 28.6851 56.2669 30.7061C56.2669 34.4881 58.1719 37.1441 60.8859 37.1441C61.6128 37.1676 62.3225 36.9207 62.8779 36.4511C63.7149 35.7581 64.1479 34.3721 64.1479 32.4381C64.1479 28.6851 62.2999 26.1731 59.5289 26.1731H59.5259ZM60.0459 38.5301C55.1379 38.5301 53.3769 34.9211 53.3769 31.5431C53.3364 30.4593 53.5786 29.3836 54.0797 28.4218C54.5808 27.4599 55.3235 26.645 56.2349 26.0571C57.5635 25.2345 59.0894 24.7854 60.6519 24.7571C61.5124 24.7284 62.3694 24.8796 63.1682 25.2012C63.9669 25.5227 64.6897 26.0074 65.2903 26.6244C65.8909 27.2413 66.3561 27.9768 66.6562 28.7838C66.9563 29.5908 67.0846 30.4516 67.0329 31.3111C67.0966 32.4857 66.8499 33.6563 66.3177 34.7054C65.7854 35.7544 64.9864 36.6448 64.0009 37.2871C62.8182 38.0493 61.4519 38.4794 60.0459 38.5301ZM27.0459 38.2411C26.9564 38.0319 26.9263 37.8022 26.9589 37.5771C26.9543 37.428 26.9841 37.2798 27.0459 37.1441C27.4741 37.0834 27.8982 36.9966 28.3159 36.8841C28.8939 36.7391 29.1239 36.4221 29.1529 35.7001C29.2399 33.9681 29.2399 30.6761 29.2109 28.4001V28.3421C29.2328 28.1914 29.2149 28.0376 29.1592 27.8958C29.1034 27.7541 29.0116 27.6294 28.8929 27.5341C28.3551 27.2009 27.7716 26.9479 27.1609 26.7831C26.9009 26.6971 26.7279 26.5521 26.7609 26.3831C26.7609 26.2101 26.9339 26.0081 27.3099 25.9501C28.8185 25.735 30.2994 25.3575 31.7269 24.8241C31.8275 24.9565 31.8788 25.1199 31.8719 25.2861L31.8429 25.6031C31.8139 25.9211 31.7849 26.2961 31.7849 26.6711C31.7907 26.7275 31.8178 26.7797 31.8607 26.8169C31.9036 26.854 31.9591 26.8734 32.0159 26.8711C32.0771 26.8649 32.1363 26.8451 32.1889 26.8131C33.4187 25.7302 34.9466 25.0436 36.5729 24.8431C37.2663 24.8404 37.9469 25.0307 38.5383 25.3928C39.1298 25.7548 39.6088 26.2743 39.9219 26.8931C39.941 26.9291 39.9699 26.959 40.0053 26.9794C40.0407 26.9997 40.0811 27.0097 40.1219 27.0081C40.1555 27.0091 40.189 27.0017 40.2191 26.9867C40.2493 26.9717 40.2753 26.9495 40.2949 26.9221C41.573 25.8052 43.1476 25.083 44.8279 24.8431C47.5129 24.8431 49.1009 26.8351 49.1009 30.2131C49.1009 31.1661 49.1009 32.4071 49.0719 33.5331C49.0719 34.5431 49.0429 35.4671 49.0429 36.1331C49.0649 36.2828 49.1241 36.4246 49.2149 36.5456C49.3057 36.6666 49.4253 36.763 49.5629 36.8261C50.0997 37.0372 50.6636 37.1718 51.2379 37.2261H51.2669C51.2994 37.6013 51.2401 37.9789 51.0939 38.3261C50.8529 38.3287 50.6119 38.3191 50.3719 38.2971C49.6412 38.2588 48.9096 38.2395 48.1779 38.2391C46.3879 38.2391 45.4639 38.2681 44.5689 38.3261C44.4964 37.963 44.4964 37.5892 44.5689 37.2261C44.9407 37.1628 45.3081 37.076 45.6689 36.9661C46.2469 36.7931 46.3909 36.5331 46.4199 35.7821C46.4199 35.2341 46.5349 30.5561 46.3619 29.4301C46.278 28.7172 45.928 28.0624 45.3819 27.5966C44.8359 27.1308 44.134 26.8885 43.4169 26.9181C42.3412 26.9743 41.3106 27.3683 40.4719 28.0441C40.4046 28.1262 40.3644 28.2272 40.3569 28.3331V28.3621C40.4653 29.1461 40.5038 29.9382 40.4719 30.7291V32.6061C40.4719 33.9061 40.4429 35.1181 40.4719 36.0421C40.4551 36.2513 40.5168 36.4593 40.6449 36.6257C40.7729 36.792 40.9583 36.9048 41.1649 36.9421C41.3379 36.9711 41.4529 37.0001 41.5979 37.0281C41.8579 37.0861 42.1179 37.1441 42.5219 37.2281C42.5834 37.4953 42.5734 37.774 42.4929 38.0361C42.4829 38.1414 42.443 38.2417 42.3779 38.3251C41.3959 38.2961 40.3859 38.2671 38.9129 38.2671C38.4799 38.2671 37.7289 38.2961 37.0939 38.2961C36.5739 38.2961 36.0829 38.3251 35.7939 38.3251C35.728 38.1398 35.6984 37.9435 35.7069 37.7471C35.6922 37.566 35.7326 37.3847 35.8229 37.2271C35.9538 37.1939 36.0879 37.1745 36.2229 37.1691C36.5689 37.1111 36.8579 37.0531 37.1469 36.9961C37.6379 36.8521 37.8109 36.5961 37.8399 35.9571C37.9758 33.7548 37.9661 31.546 37.8109 29.3451C37.7575 28.6411 37.4326 27.9854 36.9046 27.5167C36.3767 27.0479 35.6872 26.8028 34.9819 26.8331C33.9087 26.901 32.8816 27.2937 32.0369 27.9591C31.8659 28.1374 31.7724 28.3761 31.7769 28.6231V30.3231C31.7769 32.4021 31.7769 35.0001 31.8059 36.1231C31.8059 36.3458 31.8886 36.5606 32.0378 36.7259C32.1871 36.8912 32.3923 36.9953 32.6139 37.0181C32.8328 37.0692 33.0545 37.108 33.2779 37.1341L33.7979 37.2201C33.8538 37.5886 33.824 37.965 33.7109 38.3201C33.4219 38.3201 33.0759 38.2911 32.6719 38.2911C31.9218 38.2538 31.1709 38.2344 30.4199 38.2331C29.4089 38.2331 28.6879 38.2621 28.1099 38.2911C27.7559 38.2445 27.3988 38.2251 27.0419 38.2331L27.0459 38.2411Z" fill="black"/>
<path fill-rule="evenodd" clip-rule="evenodd" d="M11.8597 45.1681L10.6757 44.7681C10.6757 44.7681 10.8207 38.7341 8.65471 38.3011C7.21071 36.6261 8.88571 -32.7229 14.0827 38.0701C13.0879 38.569 12.3303 39.4405 11.9747 40.4951C11.7719 42.0457 11.7331 43.6133 11.8587 45.1721L11.8597 45.1681Z" fill="white"/>
<path fill-rule="evenodd" clip-rule="evenodd" d="M11.8597 45.1681L10.6757 44.7681C10.6757 44.7681 10.8207 38.7341 8.65471 38.3011C7.21071 36.6261 8.88571 -32.7229 14.0827 38.0701C13.0879 38.569 12.3303 39.4405 11.9747 40.4951C11.7719 42.0457 11.7331 43.6133 11.8587 45.1721L11.8597 45.1681Z" fill="#A6A385"/>
<path fill-rule="evenodd" clip-rule="evenodd" d="M12.4948 39.336C12.4948 39.336 22.8598 32.522 20.4348 18.346C18.0958 8.03904 12.5808 4.66104 11.9748 3.36204C11.4597 2.55961 11.0246 1.70852 10.6758 0.821045L11.1058 29.491C11.1058 29.52 10.2058 38.268 12.4918 39.336" fill="white"/>
<path fill-rule="evenodd" clip-rule="evenodd" d="M12.4948 39.336C12.4948 39.336 22.8598 32.522 20.4348 18.346C18.0958 8.03904 12.5808 4.66104 11.9748 3.36204C11.4597 2.55961 11.0246 1.70852 10.6758 0.821045L11.1058 29.491C11.1058 29.52 10.2058 38.268 12.4918 39.336" fill="#499D4A"/>
<path fill-rule="evenodd" clip-rule="evenodd" d="M10.0698 39.7111C10.0698 39.7111 0.340753 33.0711 0.917753 21.3781C1.46575 9.68512 8.33775 3.94012 9.66575 2.90313C9.98402 2.63518 10.2358 2.29702 10.4011 1.91526C10.5665 1.5335 10.641 1.11857 10.6188 0.703125C11.2248 2.00312 11.1098 20.1341 11.1958 22.2701C11.4558 30.4981 10.7338 38.1491 10.0698 39.7081V39.7111Z" fill="white"/>
<path fill-rule="evenodd" clip-rule="evenodd" d="M10.0698 39.7111C10.0698 39.7111 0.340753 33.0711 0.917753 21.3781C1.46575 9.68512 8.33775 3.94012 9.66575 2.90313C9.98402 2.63518 10.2358 2.29702 10.4011 1.91526C10.5665 1.5335 10.641 1.11857 10.6188 0.703125C11.2248 2.00312 11.1098 20.1341 11.1958 22.2701C11.4558 30.4981 10.7338 38.1491 10.0698 39.7081V39.7111Z" fill="#58AA50"/>
</g>
<defs>
<clipPath id="clip0_258_20003">
<rect width="160.002" height="45.588" fill="white" transform="translate(0.892578 0.706055)"/>
</clipPath>
</defs>
</svg>
