<svg width="129" height="61" viewBox="0 0 129 61" fill="none" xmlns="http://www.w3.org/2000/svg">
<g clip-path="url(#clip0_258_20016)">
<path d="M77.7747 10.5613C76.8743 7.73804 75.1044 5.27172 72.7181 3.51485C70.3317 1.75798 67.451 0.800503 64.4877 0.77928C61.9825 0.76491 59.5208 1.43336 57.3669 2.71283C55.213 3.99229 53.4484 5.83441 52.2627 8.04128C50.0844 8.43283 48.0879 9.50906 46.5634 11.1135C45.0389 12.7179 44.066 14.7668 43.7861 16.9622C43.5063 19.1576 43.9341 21.385 45.0073 23.3206C46.0806 25.2561 47.7433 26.7988 49.7537 27.7243L50.0147 27.8423H50.0317V24.8843C48.6522 24.0371 47.5723 22.7797 46.9434 21.288C46.3144 19.7964 46.1679 18.1453 46.5243 16.5662C46.8807 14.9871 47.7223 13.5591 48.931 12.4822C50.1397 11.4054 51.6551 10.7337 53.2647 10.5613L53.9957 10.4843L54.3157 9.82628C55.2248 7.89989 56.665 6.27306 58.4669 5.13702C60.2688 4.00099 62.3576 3.40298 64.4877 3.41328C67.0259 3.43135 69.4851 4.29743 71.4745 5.87383C73.4638 7.45023 74.869 9.64644 75.4667 12.1133L75.7177 13.1133H76.7617C78.4447 13.1477 80.0475 13.839 81.2277 15.0393C82.4078 16.2397 83.0718 17.8539 83.0777 19.5373C83.0769 20.7324 82.7095 21.8985 82.0249 22.8781C81.3404 23.8577 80.3717 24.6037 79.2497 25.0153V27.8153L79.4237 27.7593C81.2226 27.2565 82.809 26.1818 83.9429 24.6975C85.0768 23.2132 85.6966 21.4001 85.7087 19.5323C85.6927 17.3309 84.8804 15.2097 83.422 13.5607C81.9636 11.9117 79.9576 10.8462 77.7747 10.5613Z" fill="black"/>
<path d="M10.3706 37.1142C11.2832 37.116 12.1832 37.3272 13.0013 37.7315C13.8194 38.1358 14.5338 38.7224 15.0896 39.4462C15.1093 39.4724 15.1342 39.4943 15.1627 39.5106C15.1912 39.5268 15.2228 39.537 15.2554 39.5406C15.288 39.5441 15.321 39.541 15.3523 39.5313C15.3837 39.5216 15.4127 39.5056 15.4376 39.4842L17.4246 37.9012C17.45 37.8809 17.4712 37.8558 17.4868 37.8273C17.5025 37.7988 17.5124 37.7674 17.5159 37.7351C17.5194 37.7028 17.5166 37.6701 17.5074 37.6388C17.4983 37.6076 17.483 37.5785 17.4626 37.5532C16.6169 36.4557 15.5304 35.5672 14.2869 34.956C13.0434 34.3448 11.6762 34.0274 10.2906 34.0282C5.10162 34.0282 0.890625 38.5002 0.890625 43.9982C0.890625 49.4962 5.11162 53.9682 10.2906 53.9682C11.676 53.9725 13.0438 53.657 14.2872 53.0461C15.5307 52.4352 16.6164 51.5454 17.4596 50.4462C17.4808 50.421 17.4965 50.3918 17.5059 50.3603C17.5152 50.3288 17.5181 50.2957 17.5141 50.2631C17.5102 50.2305 17.4996 50.199 17.483 50.1706C17.4664 50.1423 17.4441 50.1176 17.4176 50.0982L15.4336 48.5322C15.4083 48.5118 15.3792 48.4966 15.348 48.4874C15.3168 48.4783 15.2841 48.4754 15.2517 48.4789C15.2194 48.4824 15.1881 48.4923 15.1596 48.508C15.1311 48.5237 15.1059 48.5448 15.0856 48.5702C14.527 49.2891 13.8123 49.8717 12.9955 50.2738C12.1786 50.6759 11.2811 50.887 10.3706 50.8912C6.82462 50.8912 4.05061 47.8632 4.05061 44.0042C4.05061 40.1452 6.82462 37.1142 10.3706 37.1142ZM20.0236 33.4602H22.5156C22.5811 33.4602 22.644 33.4862 22.6903 33.5325C22.7366 33.5789 22.7626 33.6417 22.7626 33.7072V53.4662C22.7626 53.5309 22.7369 53.593 22.6911 53.6387C22.6454 53.6845 22.5833 53.7102 22.5186 53.7102H20.0266C19.9611 53.7102 19.8983 53.6842 19.852 53.6379C19.8056 53.5915 19.7796 53.5287 19.7796 53.4632V33.7072C19.7792 33.6749 19.7852 33.6429 19.7973 33.6129C19.8094 33.583 19.8273 33.5557 19.85 33.5327C19.8727 33.5098 19.8997 33.4915 19.9296 33.4791C19.9594 33.4666 19.9913 33.4602 20.0236 33.4602ZM31.2536 40.2952C30.3617 40.2759 29.4753 40.4401 28.6496 40.7777C27.8238 41.1153 27.0762 41.619 26.4532 42.2576C25.8303 42.8962 25.3453 43.6561 25.0283 44.49C24.7113 45.3239 24.5692 46.214 24.6106 47.1052C24.5796 47.9988 24.7289 48.8895 25.0495 49.7243C25.3701 50.559 25.8555 51.3206 26.4767 51.9637C27.0979 52.6069 27.8422 53.1183 28.6653 53.4677C29.4884 53.817 30.3735 53.997 31.2676 53.997C32.1618 53.997 33.0468 53.817 33.8699 53.4677C34.693 53.1183 35.4373 52.6069 36.0586 51.9637C36.6798 51.3206 37.1652 50.559 37.4857 49.7243C37.8063 48.8895 37.9556 47.9988 37.9246 47.1052C37.9579 46.2137 37.8092 45.3248 37.4875 44.4927C37.1658 43.6606 36.678 42.9028 36.0537 42.2655C35.4294 41.6283 34.6818 41.1249 33.8565 40.7861C33.0313 40.4474 32.1456 40.2803 31.2536 40.2952ZM34.9176 47.1052C34.9603 47.6104 34.8976 48.119 34.7336 48.5988C34.5695 49.0785 34.3077 49.519 33.9646 49.8923C33.6215 50.2656 33.2046 50.5636 32.7404 50.7674C32.2761 50.9713 31.7746 51.0765 31.2676 51.0765C30.7606 51.0765 30.2591 50.9713 29.7949 50.7674C29.3306 50.5636 28.9138 50.2656 28.5707 49.8923C28.2276 49.519 27.9657 49.0785 27.8017 48.5988C27.6376 48.119 27.5749 47.6104 27.6176 47.1052C27.5852 46.6071 27.6549 46.1076 27.8225 45.6374C27.9901 45.1673 28.2521 44.7363 28.5923 44.3711C28.9326 44.0058 29.3439 43.714 29.801 43.5135C30.2582 43.313 30.7515 43.2081 31.2506 43.2052C31.7506 43.2106 32.2443 43.317 32.7021 43.5178C33.1599 43.7187 33.5725 44.01 33.915 44.3742C34.2576 44.7384 34.523 45.168 34.6955 45.6373C34.8679 46.1066 34.9438 46.6059 34.9186 47.1052H34.9176ZM51.3546 40.5802H48.8626C48.8303 40.5798 48.7983 40.5858 48.7683 40.5979C48.7384 40.61 48.7111 40.6279 48.6881 40.6506C48.6652 40.6733 48.6469 40.7003 48.6345 40.7301C48.622 40.7599 48.6156 40.7919 48.6156 40.8242V47.4362C48.6602 47.8906 48.6068 48.3493 48.459 48.7812C48.3111 49.2132 48.0723 49.6084 47.7587 49.9402C47.445 50.272 47.0638 50.5326 46.6408 50.7044C46.2178 50.8762 45.7628 50.9553 45.3066 50.9362C43.9566 50.9362 42.5956 49.9162 42.5956 47.6362V40.8262C42.5956 40.7939 42.5892 40.7619 42.5768 40.7321C42.5643 40.7023 42.5461 40.6753 42.5231 40.6526C42.5001 40.6299 42.4729 40.612 42.4429 40.5999C42.413 40.5878 42.3809 40.5818 42.3486 40.5822H39.8566C39.7919 40.5822 39.7298 40.6079 39.6841 40.6537C39.6383 40.6994 39.6126 40.7615 39.6126 40.8262V47.9602C39.6126 51.8752 41.3836 54.0292 44.6026 54.0292C45.3635 54.025 46.1105 53.8245 46.7713 53.4471C47.432 53.0698 47.9843 52.5284 48.3746 51.8752L48.6146 51.9242V53.4692C48.6146 53.5347 48.6406 53.5975 48.687 53.6439C48.7333 53.6902 48.7961 53.7162 48.8616 53.7162H51.3536C51.4191 53.7162 51.482 53.6902 51.5283 53.6439C51.5746 53.5975 51.6006 53.5347 51.6006 53.4692V40.8242C51.6006 40.7919 51.5942 40.7599 51.5818 40.7301C51.5693 40.7003 51.5511 40.6733 51.5281 40.6506C51.5051 40.6279 51.4779 40.61 51.4479 40.5979C51.418 40.5858 51.3869 40.5798 51.3546 40.5802ZM66.6546 33.4602H64.1546C64.1223 33.4602 64.0903 33.4666 64.0605 33.4791C64.0307 33.4915 64.0037 33.5098 63.981 33.5327C63.9583 33.5557 63.9404 33.583 63.9283 33.6129C63.9162 33.6429 63.9102 33.6749 63.9106 33.7072V42.5392L63.7576 42.2952C63.2832 41.6439 62.6554 41.1196 61.93 40.7688C61.2045 40.418 60.4038 40.2516 59.5986 40.2842C56.5506 40.2842 53.4666 42.6332 53.4666 47.1222C53.4666 51.0372 56.1146 53.9882 59.6226 53.9882C60.4261 54.0139 61.2236 53.8414 61.9446 53.4858C62.6656 53.1301 63.288 52.6024 63.7566 51.9492L63.9096 51.6982V53.4662C63.9092 53.4985 63.9152 53.5306 63.9273 53.5605C63.9394 53.5905 63.9573 53.6177 63.98 53.6407C64.0027 53.6637 64.0297 53.6819 64.0595 53.6943C64.0893 53.7068 64.1213 53.7132 64.1536 53.7132H66.6536C66.6859 53.7132 66.7179 53.7068 66.7477 53.6943C66.7775 53.6819 66.8045 53.6637 66.8272 53.6407C66.8499 53.6177 66.8678 53.5905 66.8799 53.5605C66.892 53.5306 66.898 53.4985 66.8976 53.4662V33.7072C66.898 33.6749 66.892 33.6429 66.8799 33.6129C66.8678 33.583 66.8499 33.5557 66.8272 33.5327C66.8045 33.5098 66.7775 33.4915 66.7477 33.4791C66.7179 33.4666 66.6869 33.4602 66.6546 33.4602ZM63.8706 47.1052C63.8873 47.6111 63.8034 48.1152 63.624 48.5885C63.4445 49.0618 63.1729 49.4947 62.825 49.8624C62.4771 50.23 62.0598 50.525 61.5971 50.7302C61.1344 50.9355 60.6357 51.047 60.1296 51.0582C59.6299 51.0417 59.1384 50.9259 58.6839 50.7174C58.2294 50.509 57.821 50.2121 57.4824 49.8441C57.1439 49.4762 56.882 49.0445 56.7121 48.5742C56.5421 48.104 56.4675 47.6046 56.4926 47.1052C56.468 46.6086 56.5433 46.1121 56.7141 45.645C56.8848 45.178 57.1476 44.75 57.4867 44.3864C57.8258 44.0227 58.2345 43.7308 58.6884 43.5279C59.1424 43.325 59.6325 43.2153 60.1296 43.2052C61.1406 43.2306 62.1003 43.6551 62.7994 44.3858C63.4984 45.1165 63.88 46.0941 63.8606 47.1052H63.8706ZM70.3946 40.5802H72.8866C72.9513 40.5802 73.0134 40.6059 73.0592 40.6517C73.1049 40.6974 73.1306 40.7595 73.1306 40.8242V53.4662C73.1306 53.5309 73.1049 53.593 73.0592 53.6387C73.0134 53.6845 72.9513 53.7102 72.8866 53.7102H70.3946C70.3291 53.7102 70.2663 53.6842 70.22 53.6379C70.1737 53.5915 70.1476 53.5287 70.1476 53.4632V40.8242C70.1484 40.7592 70.1748 40.6972 70.221 40.6515C70.2673 40.6058 70.3296 40.5802 70.3946 40.5802ZM71.6506 33.8602C71.3926 33.8546 71.1361 33.9006 70.8961 33.9955C70.6561 34.0904 70.4375 34.2322 70.253 34.4128C70.0686 34.5933 69.9221 34.8088 69.8221 35.0467C69.722 35.2846 69.6706 35.5401 69.6706 35.7982C69.6762 36.3181 69.8878 36.8146 70.259 37.1787C70.6302 37.5428 71.1307 37.7447 71.6506 37.7402C71.9062 37.7423 72.1598 37.6936 72.3964 37.5968C72.633 37.5001 72.848 37.3573 73.0289 37.1766C73.2098 36.996 73.353 36.7812 73.4501 36.5447C73.5472 36.3083 73.5964 36.0548 73.5946 35.7992C73.5989 35.5423 73.5512 35.2873 73.4544 35.0493C73.3576 34.8113 73.2138 34.5954 73.0315 34.4144C72.8492 34.2334 72.6322 34.0911 72.3935 33.996C72.1548 33.901 71.8994 33.8551 71.6426 33.8612L71.6506 33.8602ZM83.3916 40.2942C82.629 40.2924 81.8792 40.4903 81.2167 40.8682C80.5543 41.2461 80.0023 41.7908 79.6156 42.4482L79.3756 42.3992V40.8242C79.3756 40.7919 79.3692 40.7599 79.3568 40.7301C79.3443 40.7003 79.3261 40.6733 79.3031 40.6506C79.2801 40.6279 79.2529 40.61 79.2229 40.5979C79.193 40.5858 79.1609 40.5798 79.1286 40.5802H76.6366C76.5719 40.5802 76.5098 40.6059 76.4641 40.6517C76.4183 40.6974 76.3926 40.7595 76.3926 40.8242V53.4662C76.3922 53.4985 76.3982 53.5306 76.4103 53.5605C76.4224 53.5905 76.4403 53.6177 76.463 53.6407C76.4857 53.6637 76.5127 53.6819 76.5425 53.6943C76.5723 53.7068 76.6043 53.7132 76.6366 53.7132H79.1286C79.1941 53.7132 79.257 53.6872 79.3033 53.6409C79.3496 53.5945 79.3756 53.5317 79.3756 53.4662V46.8502C79.3334 46.3973 79.3886 45.9405 79.5376 45.5107C79.6865 45.0809 79.9258 44.6879 80.2393 44.3582C80.5527 44.0286 80.9332 43.7698 81.3549 43.5994C81.7767 43.429 82.2301 43.3508 82.6846 43.3702C84.0346 43.3702 85.3956 44.3832 85.3956 46.6412V53.4622C85.3956 53.5277 85.4217 53.5905 85.468 53.6369C85.5143 53.6832 85.5771 53.7092 85.6426 53.7092H88.1426C88.1751 53.7092 88.2072 53.7028 88.2371 53.6904C88.2671 53.678 88.2943 53.6598 88.3173 53.6369C88.3402 53.6139 88.3584 53.5867 88.3708 53.5567C88.3832 53.5268 88.3896 53.4946 88.3896 53.4622V46.3322C88.3776 42.4422 86.6036 40.2952 83.3876 40.2952L83.3916 40.2942ZM103.273 40.5792H100.781C100.748 40.5788 100.716 40.5848 100.686 40.5969C100.656 40.609 100.629 40.6269 100.606 40.6496C100.583 40.6723 100.565 40.6993 100.552 40.7291C100.54 40.7589 100.534 40.7909 100.534 40.8232V42.5632L100.384 42.3192C99.9066 41.6664 99.276 41.1413 98.5476 40.7905C97.8191 40.4398 97.0154 40.2741 96.2076 40.3082C93.1626 40.3082 90.0756 42.6572 90.0756 47.1462C90.0756 51.0612 92.7236 54.0122 96.2356 54.0122C97.0391 54.0375 97.8364 53.8647 98.5574 53.5092C99.2783 53.1536 99.9007 52.6261 100.37 51.9732L100.52 51.7222V53.4652C100.52 53.5307 100.546 53.5935 100.592 53.6399C100.638 53.6862 100.701 53.7122 100.767 53.7122H103.259C103.291 53.7122 103.323 53.7058 103.353 53.6933C103.382 53.6809 103.41 53.6627 103.432 53.6397C103.455 53.6167 103.473 53.5895 103.485 53.5595C103.497 53.5296 103.503 53.4975 103.503 53.4652V40.8242C103.503 40.7612 103.478 40.7006 103.435 40.6551C103.391 40.6096 103.332 40.5828 103.269 40.5802L103.273 40.5792ZM100.489 47.1042C100.505 47.6109 100.421 48.1159 100.241 48.5898C100.061 49.0637 99.7885 49.4971 99.4395 49.8649C99.0905 50.2326 98.672 50.5274 98.2082 50.7321C97.7444 50.9368 97.2445 51.0473 96.7376 51.0572C96.2381 51.0405 95.747 50.9244 95.2928 50.7158C94.8387 50.5072 94.4306 50.2103 94.0924 49.8423C93.7542 49.4744 93.4927 49.0427 93.3231 48.5726C93.1535 48.1025 93.0792 47.6033 93.1046 47.1042C93.0796 46.6078 93.1545 46.1114 93.3249 45.6445C93.4952 45.1776 93.7576 44.7496 94.0963 44.3859C94.4351 44.0222 94.8435 43.7302 95.2972 43.5273C95.7509 43.3243 96.2407 43.2144 96.7376 43.2042C97.7508 43.2263 98.7139 43.6492 99.4158 44.3803C100.118 45.1114 100.501 46.0909 100.482 47.1042H100.489ZM114.642 40.6242C114.073 40.3939 113.466 40.2757 112.853 40.2762C111.197 40.2762 109.992 41.2682 109.373 43.1472L109.15 43.1162V40.8242C109.15 40.7919 109.143 40.7599 109.131 40.7301C109.118 40.7003 109.1 40.6733 109.077 40.6506C109.054 40.6279 109.027 40.61 108.997 40.5979C108.967 40.5858 108.935 40.5798 108.903 40.5802H106.411C106.378 40.5798 106.346 40.5858 106.316 40.5979C106.286 40.61 106.259 40.6279 106.236 40.6506C106.213 40.6733 106.195 40.7003 106.182 40.7301C106.17 40.7599 106.164 40.7919 106.164 40.8242V53.4662C106.164 53.5317 106.19 53.5945 106.236 53.6409C106.282 53.6872 106.345 53.7132 106.411 53.7132H108.931C108.963 53.7132 108.995 53.7068 109.025 53.6943C109.054 53.6819 109.082 53.6637 109.104 53.6407C109.127 53.6177 109.145 53.5905 109.157 53.5605C109.169 53.5306 109.175 53.4985 109.175 53.4662V49.1502C109.175 44.0002 111.232 43.2342 112.46 43.2342C112.978 43.2354 113.491 43.3419 113.967 43.5472C114 43.5627 114.036 43.5707 114.073 43.5707C114.109 43.5707 114.145 43.5627 114.179 43.5472C114.211 43.5303 114.238 43.5066 114.26 43.4777C114.281 43.4489 114.296 43.4156 114.304 43.3802L114.798 40.9062C114.81 40.8482 114.8 40.7878 114.772 40.736C114.743 40.6842 114.697 40.6446 114.642 40.6242ZM128.468 40.6872C128.445 40.6534 128.415 40.6257 128.379 40.6068C128.343 40.5879 128.303 40.5784 128.263 40.5792H125.58C125.53 40.5797 125.482 40.5949 125.441 40.6229C125.4 40.6508 125.368 40.6903 125.35 40.7362L122.095 49.1502L118.817 40.7352C118.798 40.6893 118.766 40.6498 118.725 40.6219C118.684 40.5939 118.636 40.5787 118.587 40.5782H115.852C115.812 40.5783 115.773 40.5882 115.738 40.607C115.703 40.6259 115.673 40.6531 115.652 40.6862C115.629 40.7196 115.615 40.758 115.611 40.7982C115.606 40.8383 115.612 40.8789 115.628 40.9162L120.5 52.8802L117.81 59.8712C117.793 59.9092 117.785 59.9508 117.789 59.9923C117.792 60.0338 117.806 60.0737 117.829 60.1084C117.852 60.1432 117.883 60.1715 117.92 60.1909C117.957 60.2102 117.998 60.22 118.04 60.2192H120.65C120.699 60.2194 120.747 60.2044 120.787 60.1763C120.828 60.1482 120.859 60.1084 120.876 60.0622L128.483 40.9222C128.5 40.8848 128.507 40.8437 128.504 40.8027C128.5 40.7617 128.487 40.7223 128.464 40.6882L128.468 40.6872Z" fill="black"/>
<path d="M59.7523 27.5023L60.3303 28.0803C60.3459 28.0963 60.3565 28.1166 60.3607 28.1386C60.3649 28.1605 60.3626 28.1832 60.3542 28.2039C60.3457 28.2246 60.3313 28.2424 60.3129 28.2551C60.2944 28.2677 60.2727 28.2748 60.2503 28.2753H55.6913C55.1376 28.2753 54.6065 28.0553 54.2149 27.6637C53.8233 27.2721 53.6033 26.741 53.6033 26.1873V17.3333C53.6033 17.3028 53.5912 17.2735 53.5697 17.2519C53.5481 17.2304 53.5188 17.2183 53.4883 17.2183H52.5143C52.4916 17.2185 52.4694 17.2121 52.4503 17.1997C52.4313 17.1874 52.4163 17.1696 52.4073 17.1488C52.3983 17.1279 52.3957 17.1049 52.3998 17.0825C52.4039 17.0602 52.4145 17.0396 52.4303 17.0233L56.3003 13.1533C56.311 13.1424 56.3238 13.1337 56.3379 13.1278C56.352 13.1219 56.3671 13.1189 56.3823 13.1189C56.3976 13.1189 56.4127 13.1219 56.4268 13.1278C56.4409 13.1337 56.4536 13.1424 56.4643 13.1533L60.3303 17.0233C60.3459 17.0393 60.3565 17.0596 60.3607 17.0816C60.3649 17.1035 60.3626 17.1262 60.3542 17.1469C60.3457 17.1676 60.3313 17.1854 60.3129 17.1981C60.2944 17.2108 60.2727 17.2178 60.2503 17.2183H59.2613C59.2306 17.2183 59.201 17.2303 59.1789 17.2518C59.1569 17.2732 59.1441 17.3025 59.1433 17.3333V26.0333C59.1446 26.5841 59.3635 27.1121 59.7523 27.5023ZM68.3023 27.5023L68.8833 28.0803C68.8991 28.0966 68.9098 28.1172 68.9139 28.1395C68.9179 28.1619 68.9153 28.1849 68.9064 28.2058C68.8974 28.2266 68.8824 28.2444 68.8634 28.2567C68.8443 28.2691 68.8221 28.2755 68.7993 28.2753H64.2523C63.9778 28.2757 63.7059 28.2219 63.4521 28.1171C63.1984 28.0123 62.9678 27.8584 62.7736 27.6644C62.5794 27.4704 62.4253 27.24 62.3203 26.9863C62.2152 26.7327 62.1612 26.4608 62.1613 26.1863V19.5713C62.1614 19.5405 62.1493 19.5109 62.1279 19.4889C62.1064 19.4668 62.0771 19.454 62.0463 19.4533H61.0613C61.039 19.4528 61.0172 19.4458 60.9988 19.4331C60.9804 19.4204 60.966 19.4026 60.9575 19.3819C60.949 19.3612 60.9468 19.3385 60.951 19.3166C60.9552 19.2946 60.9658 19.2743 60.9813 19.2583L64.8473 15.3953C64.858 15.3844 64.8708 15.3757 64.8849 15.3698C64.899 15.3639 64.9141 15.3609 64.9293 15.3609C64.9446 15.3609 64.9597 15.3639 64.9738 15.3698C64.9879 15.3757 65.0006 15.3844 65.0113 15.3953L68.8813 19.2513C68.8971 19.2676 68.9078 19.2882 68.9119 19.3105C68.9159 19.3329 68.9133 19.3559 68.9044 19.3768C68.8954 19.3976 68.8804 19.4154 68.8614 19.4277C68.8423 19.4401 68.82 19.4465 68.7973 19.4463H67.8093C67.7786 19.447 67.7493 19.4598 67.7278 19.4819C67.7064 19.5039 67.6943 19.5335 67.6943 19.5643V26.0333C67.6948 26.5837 67.9126 27.1116 68.3003 27.5023H68.3023ZM76.8563 27.5023L77.4343 28.0803C77.4499 28.0963 77.4605 28.1166 77.4647 28.1386C77.4689 28.1605 77.4666 28.1832 77.4582 28.2039C77.4497 28.2246 77.4353 28.2424 77.4169 28.2551C77.3984 28.2677 77.3767 28.2748 77.3543 28.2753H72.7923C72.2386 28.2753 71.7075 28.0553 71.3159 27.6637C70.9243 27.2721 70.7043 26.741 70.7043 26.1873V21.7873C70.7043 21.7568 70.6922 21.7275 70.6707 21.706C70.6491 21.6844 70.6198 21.6723 70.5893 21.6723H69.6153C69.5919 21.6728 69.5689 21.6662 69.5494 21.6532C69.5298 21.6403 69.5147 21.6218 69.506 21.6C69.4973 21.5783 69.4954 21.5544 69.5007 21.5315C69.5059 21.5087 69.518 21.488 69.5353 21.4723L73.4053 17.6063C73.4157 17.5955 73.4281 17.5869 73.4419 17.5811C73.4556 17.5752 73.4704 17.5722 73.4853 17.5722C73.5003 17.5722 73.5151 17.5752 73.5288 17.5811C73.5426 17.5869 73.555 17.5955 73.5653 17.6063L77.4353 21.4723C77.4527 21.488 77.4648 21.5087 77.47 21.5315C77.4752 21.5544 77.4734 21.5783 77.4647 21.6C77.456 21.6218 77.4409 21.6403 77.4213 21.6532C77.4018 21.6662 77.3788 21.6728 77.3553 21.6723H76.3613C76.3308 21.6723 76.3016 21.6844 76.28 21.706C76.2585 21.7275 76.2463 21.7568 76.2463 21.7873V26.0293C76.2476 26.5801 76.4665 27.1081 76.8553 27.4983L76.8563 27.5023Z" fill="black"/>
</g>
<defs>
<clipPath id="clip0_258_20016">
<rect width="127.612" height="59.442" fill="white" transform="translate(0.894531 0.779053)"/>
</clipPath>
</defs>
</svg>
