<svg width="79" height="57" viewBox="0 0 79 57" fill="none" xmlns="http://www.w3.org/2000/svg">
<g clip-path="url(#clip0_258_20021)">
<path d="M45.6681 10.2779H47.0662L51.0473 6.33487L51.2439 4.66013C48.9629 2.66497 46.206 1.27877 43.2336 0.632514C40.2613 -0.0137461 37.1716 0.101273 34.2567 0.966702C31.3417 1.83213 28.6976 3.41939 26.5743 5.57852C24.4509 7.73764 22.9184 10.3973 22.1216 13.3063C22.5653 13.1251 23.0573 13.0957 23.5197 13.2227L31.4855 11.9214C31.4855 11.9214 31.8874 11.2573 32.1002 11.2966C33.8069 9.43985 36.1658 8.2997 38.6937 8.10965C41.2216 7.91959 43.7273 8.69401 45.6974 10.2743L45.6681 10.2779Z" fill="#EA4335"/>
<path d="M56.7188 13.3098C55.8041 9.97177 53.9251 6.971 51.3124 4.67603L45.7249 10.2103C46.8898 11.1531 47.8233 12.3457 48.455 13.6979C49.0868 15.0501 49.4004 16.5268 49.3722 18.0165V18.9995C50.666 19.0377 51.894 19.5735 52.7955 20.4935C53.6971 21.4134 54.2014 22.645 54.2014 23.9271C54.2014 25.2092 53.6971 26.4408 52.7955 27.3607C51.894 28.2807 50.666 28.8165 49.3722 28.8547H39.4222L38.4297 29.8522V35.7607L39.4222 36.7437H49.3722C52.1499 36.7632 54.8602 35.897 57.1025 34.2732C59.3448 32.6494 61.0002 30.3541 61.8239 27.7266C62.6477 25.0991 62.596 22.2788 61.6767 19.6826C60.7573 17.0864 59.0191 14.852 56.7188 13.3098Z" fill="#4285F4"/>
<path d="M29.4564 36.6835H39.4064V28.7938H29.4564C28.7534 28.7901 28.0592 28.6383 27.4201 28.3484L26.0219 28.7778L22.0049 32.7209L21.6558 34.1057C23.9008 35.7878 26.6414 36.6935 29.4564 36.6835Z" fill="#34A853"/>
<path d="M29.4572 11.0941C26.7619 11.1106 24.1392 11.9603 21.9552 13.5247C19.7712 15.089 18.1349 17.2899 17.2749 19.8199C16.4149 22.35 16.3741 25.0829 17.1582 27.637C17.9423 30.1911 19.5121 32.4389 21.6484 34.0666L27.4208 28.3536C26.6877 28.0255 26.0459 27.5262 25.5505 26.8984C25.0551 26.2707 24.7208 25.5332 24.5764 24.7494C24.432 23.9655 24.4817 23.1587 24.7214 22.3981C24.961 21.6375 25.3833 20.9458 25.9521 20.3824C26.521 19.819 27.2193 19.4007 27.9872 19.1633C28.7552 18.926 29.5698 18.8767 30.3612 19.0198C31.1525 19.1628 31.8971 19.4939 32.5309 19.9846C33.1647 20.4753 33.6688 21.1109 34.0001 21.837L39.768 16.1357C38.5595 14.5634 36.9996 13.2899 35.2106 12.4151C33.4216 11.5404 31.4523 11.0882 29.4572 11.0941Z" fill="#FBBC05"/>
<path d="M5.94219 53.1352C5.23229 53.1465 4.52737 53.0159 3.86957 52.7512C3.21177 52.4866 2.6146 52.0933 2.11375 51.5948C1.60554 51.1094 1.20132 50.5276 0.925224 49.884C0.649132 49.2404 0.506836 48.5483 0.506836 47.849C0.506836 47.1498 0.649132 46.4577 0.925224 45.8141C1.20132 45.1705 1.60554 44.5886 2.11375 44.1032C2.61018 43.5957 3.20529 43.193 3.86316 42.9196C4.52103 42.6461 5.22801 42.5075 5.94146 42.512C6.62081 42.5044 7.29492 42.6306 7.92458 42.8833C8.55425 43.136 9.1269 43.5102 9.60925 43.9841L8.5764 45.0231C7.86891 44.3458 6.91936 43.9738 5.93559 43.9884C5.42592 43.9828 4.92064 44.0822 4.45178 44.2802C3.98292 44.4782 3.5607 44.7705 3.21189 45.1386C2.47736 45.8516 2.05887 46.8243 2.04848 47.8429C2.03809 48.8615 2.43666 49.8425 3.1565 50.57C3.87635 51.2975 4.8585 51.712 5.88689 51.7223C6.91529 51.7326 7.90569 51.3378 8.64022 50.6249C9.09995 50.1332 9.38351 49.5054 9.44713 48.8382H5.95833V47.3699H10.879C10.9262 47.6658 10.9451 47.9655 10.9355 48.265C10.9661 48.8856 10.8694 49.5058 10.6513 50.0884C10.4332 50.6709 10.0982 51.2037 9.66647 51.6544C9.18485 52.1453 8.6046 52.5307 7.96321 52.7857C7.32182 53.0406 6.63357 53.1594 5.94293 53.1344L5.94219 53.1352ZM17.3791 52.1761C16.892 52.6569 16.2721 52.9839 15.5975 53.1159C14.9229 53.2479 14.2239 53.179 13.5889 52.9179C12.9538 52.6567 12.4111 52.215 12.0293 51.6485C11.6476 51.0821 11.4438 50.4163 11.4438 49.7352C11.4438 49.0541 11.6476 48.3883 12.0293 47.8219C12.4111 47.2554 12.9538 46.8137 13.5889 46.5525C14.2239 46.2914 14.9229 46.2224 15.5975 46.3545C16.2721 46.4865 16.892 46.8135 17.3791 47.2943C18.017 47.9498 18.3734 48.8248 18.3734 49.7352C18.3734 50.6456 18.017 51.5206 17.3791 52.1761ZM13.5514 51.217C13.892 51.577 14.363 51.7884 14.8609 51.8048C15.3588 51.8211 15.8429 51.6411 16.2069 51.3042L16.2949 51.217C16.6672 50.8107 16.8735 50.2817 16.8735 49.733C16.8735 49.1843 16.6672 48.6553 16.2949 48.249C16.1215 48.0695 15.9141 47.9257 15.6845 47.8257C15.4549 47.7258 15.2076 47.6717 14.9569 47.6665C14.7061 47.6613 14.4568 47.7051 14.2232 47.7955C13.9896 47.8858 13.7762 48.0209 13.5954 48.1931L13.5389 48.249C13.1649 48.6545 12.9575 49.1838 12.9575 49.733C12.9575 50.2822 13.1649 50.8116 13.5389 51.217H13.5514ZM24.9274 52.1761C24.4404 52.6569 23.8204 52.9839 23.1458 53.1159C22.4712 53.2479 21.7723 53.179 21.1372 52.9179C20.5021 52.6567 19.9594 52.215 19.5777 51.6485C19.1959 51.0821 18.9921 50.4163 18.9921 49.7352C18.9921 49.0541 19.1959 48.3883 19.5777 47.8219C19.9594 47.2554 20.5021 46.8137 21.1372 46.5525C21.7723 46.2914 22.4712 46.2224 23.1458 46.3545C23.8204 46.4865 24.4404 46.8135 24.9274 47.2943C25.5653 47.9498 25.9217 48.8248 25.9217 49.7352C25.9217 50.6456 25.5653 51.5206 24.9274 52.1761ZM21.0997 51.217C21.4404 51.577 21.9114 51.7884 22.4092 51.8048C22.9071 51.8211 23.3912 51.6411 23.7552 51.3042L23.8432 51.217C24.2155 50.8107 24.4218 50.2817 24.4218 49.733C24.4218 49.1843 24.2155 48.6553 23.8432 48.249C23.4932 47.8879 23.0127 47.6791 22.5074 47.6686C22.002 47.6581 21.5131 47.8468 21.1481 48.1931L21.0916 48.249C20.7176 48.6545 20.5102 49.1838 20.5102 49.733C20.5102 50.2822 20.7176 50.8116 21.0916 51.217H21.0997ZM29.8885 56.218C29.193 56.24 28.511 56.025 27.9563 55.6091C27.4644 55.2425 27.0769 54.7559 26.8317 54.1967L28.1521 53.6517C28.2959 53.986 28.5209 54.2798 28.8072 54.5069C29.1133 54.7522 29.4978 54.881 29.8914 54.8702C30.1407 54.8847 30.3902 54.846 30.623 54.7568C30.8559 54.6675 31.0667 54.5298 31.2412 54.3529C31.5899 53.9358 31.7626 53.4014 31.7231 52.8612V52.3679H31.671C31.4507 52.6241 31.1738 52.8267 30.8618 52.9599C30.5497 53.093 30.2109 53.1533 29.8716 53.1359C29.4366 53.1371 29.006 53.049 28.607 52.8772C28.2081 52.7054 27.8494 52.4535 27.5536 52.1376C26.918 51.4913 26.5623 50.6247 26.5623 49.7225C26.5623 48.8203 26.918 47.9537 27.5536 47.3074C27.8483 46.9896 28.2067 46.736 28.6057 46.5628C29.0048 46.3895 29.4359 46.3004 29.8716 46.3011C30.241 46.3001 30.606 46.3802 30.9404 46.5358C31.2294 46.6603 31.4871 46.8463 31.6952 47.0807H31.7473V46.5358H33.1851V52.6585C33.2217 53.1422 33.1588 53.6283 33 54.0871C32.8412 54.546 32.59 54.9681 32.2615 55.3279C31.948 55.6255 31.5775 55.8577 31.1717 56.0108C30.766 56.1639 30.3334 56.2349 29.8995 56.2194L29.8885 56.218ZM29.9926 51.8055C30.24 51.8109 30.4855 51.7624 30.7118 51.6633C30.9381 51.5642 31.1396 51.4171 31.302 51.2323C31.6597 50.8255 31.8477 50.2993 31.828 49.7603C31.8504 49.2125 31.6625 48.6767 31.302 48.2606C31.1398 48.0756 30.9383 47.9283 30.712 47.8292C30.4856 47.7301 30.24 47.6817 29.9926 47.6874C29.7382 47.6822 29.4856 47.7306 29.2515 47.8294C29.0174 47.9283 28.8072 48.0752 28.6348 48.2606C28.2516 48.6618 28.0436 49.1965 28.056 49.7486C28.0498 50.0197 28.0977 50.2892 28.1971 50.5419C28.2964 50.7945 28.4452 51.0252 28.6348 51.2207C28.8076 51.4109 29.0198 51.5619 29.2569 51.6635C29.494 51.765 29.7505 51.8147 30.0088 51.8092L29.9926 51.8055ZM35.7291 42.9058V52.9441H34.2289V42.9066L35.7291 42.9058ZM39.8744 53.1344C39.4277 53.1445 38.9835 53.0643 38.5691 52.8988C38.1547 52.7333 37.7787 52.4859 37.4639 52.1717C37.1426 51.8528 36.89 51.4725 36.7216 51.054C36.5531 50.6355 36.4722 50.1874 36.4839 49.737C36.467 49.2854 36.5418 48.8351 36.704 48.4128C36.8662 47.9904 37.1124 47.6046 37.428 47.2783C37.7259 46.9677 38.0859 46.722 38.485 46.5569C38.8841 46.3918 39.3136 46.3108 39.746 46.3192C40.1444 46.3146 40.5395 46.3905 40.9073 46.5423C41.2381 46.6742 41.5396 46.8689 41.7949 47.1156C42.0138 47.3251 42.208 47.5586 42.3736 47.8116C42.5074 48.0251 42.6216 48.25 42.7147 48.4837L42.8717 48.8818L38.2239 50.7477C38.3641 51.0673 38.5989 51.3373 38.8972 51.522C39.1955 51.7067 39.5434 51.7975 39.8949 51.7823C40.2363 51.7832 40.5721 51.6967 40.8698 51.5312C41.1674 51.3657 41.4169 51.1269 41.5939 50.8378L42.7551 51.6137C42.4597 52.0336 42.081 52.3896 41.6423 52.66C41.1128 52.9885 40.4967 53.1539 39.8722 53.1352L39.8744 53.1344ZM37.9385 49.6135L41.0232 48.3442C40.928 48.1206 40.7578 47.9366 40.5412 47.8232C40.2955 47.685 40.0168 47.615 39.7343 47.6205C39.2624 47.6323 38.8142 47.8281 38.4872 48.1654C38.2936 48.3555 38.1453 48.5859 38.0529 48.8399C37.9605 49.0939 37.9265 49.3652 37.9532 49.6338L37.9385 49.6135Z" fill="#0C0C0C"/>
<path d="M50.7857 53.1352C50.1582 53.1463 49.5346 53.0347 48.9507 52.807C48.3667 52.5792 47.8338 52.2397 47.3824 51.8079C46.931 51.376 46.57 50.8603 46.3199 50.2902C46.0699 49.72 45.9357 49.1067 45.9251 48.4852V48.2941C45.896 47.0397 46.3707 45.8252 47.2451 44.9174C48.1195 44.0095 49.3219 43.4825 50.5883 43.4523H50.7813C51.4326 43.4322 52.08 43.5581 52.6754 43.8206C53.2707 44.083 53.7985 44.4752 54.2194 44.9679L53.3839 45.7671C53.0766 45.3791 52.6809 45.0686 52.2291 44.8611C51.7774 44.6536 51.2825 44.555 50.7849 44.5734C50.3077 44.5631 49.8333 44.6483 49.3901 44.824C48.9469 44.9996 48.5441 45.2621 48.2057 45.5956C47.5327 46.3282 47.1598 47.283 47.1598 48.2734C47.1598 49.2638 47.5327 50.2186 48.2057 50.9511C48.5438 51.2848 48.9465 51.5473 49.3896 51.7229C49.8327 51.8986 50.307 51.9838 50.7842 51.9734C51.3386 51.9797 51.8874 51.862 52.3895 51.6291C52.8917 51.3963 53.3344 51.0543 53.6847 50.6285L54.5202 51.4561C54.0808 51.9672 53.5321 52.375 52.9137 52.6498C52.251 52.9699 51.5237 53.1373 50.7864 53.1396L50.7857 53.1352Z" fill="#0C0C0C"/>
<path d="M56.7711 52.9484H55.5659V43.6702H56.7711V52.9484Z" fill="black"/>
<path d="M58.7516 47.362C59.3807 46.7434 60.2313 46.3962 61.1177 46.3962C62.0042 46.3962 62.8547 46.7434 63.4838 47.362C64.0819 48.0262 64.4125 48.885 64.4125 49.775C64.4125 50.6649 64.0819 51.5238 63.4838 52.1879C62.8547 52.8065 62.0042 53.1537 61.1177 53.1537C60.2313 53.1537 59.3807 52.8065 58.7516 52.1879C58.1534 51.5238 57.8228 50.665 57.8228 49.775C57.8228 48.885 58.1534 48.0261 58.7516 47.362ZM59.6429 51.4366C59.8244 51.6297 60.0428 51.7851 60.2855 51.8938C60.5282 52.0025 60.7902 52.0623 61.0565 52.0698C61.3227 52.0772 61.5878 52.0321 61.8362 51.9372C62.0847 51.8422 62.3116 51.6992 62.5038 51.5165L62.5845 51.4366C62.9851 50.9726 63.2052 50.3822 63.2052 49.7717C63.2052 49.1612 62.9851 48.5708 62.5845 48.1068C62.403 47.9137 62.1846 47.7583 61.9419 47.6496C61.6993 47.5409 61.4372 47.481 61.1709 47.4736C60.9047 47.4662 60.6396 47.5113 60.3912 47.6062C60.1427 47.7012 59.9158 47.8442 59.7236 48.0268L59.6429 48.1068C59.2397 48.5688 59.0177 49.1591 59.0177 49.7699C59.0177 50.3806 59.2397 50.971 59.6429 51.433V51.4366Z" fill="#0C0C0C"/>
<path d="M71.0426 52.9477H69.8807V52.0685H69.8447C69.6389 52.4046 69.3465 52.6805 68.9975 52.8677C68.6314 53.0776 68.2152 53.1862 67.7922 53.1823C67.4532 53.2047 67.1135 53.151 66.7984 53.0252C66.4833 52.8994 66.2009 52.7047 65.9723 52.4558C65.5326 51.9056 65.3111 51.2151 65.3495 50.5144V46.6062H66.5547V50.2942C66.5547 51.4771 67.0822 52.0685 68.137 52.0685C68.3693 52.0738 68.5996 52.0246 68.809 51.925C69.0185 51.8254 69.2012 51.6781 69.3422 51.4953C69.6536 51.1049 69.8196 50.6202 69.8125 50.1228V46.6062H71.0177V52.9484L71.0426 52.9477Z" fill="#0C0C0C"/>
<path d="M75.12 53.1352C74.7128 53.1369 74.3102 53.051 73.9398 52.8834C73.5695 52.7158 73.2403 52.4705 72.9751 52.1645C72.3944 51.4944 72.0752 50.6405 72.0752 49.7574C72.0752 48.8743 72.3944 48.0204 72.9751 47.3503C73.2403 47.0443 73.5695 46.7991 73.9398 46.6315C74.3102 46.4639 74.7128 46.3779 75.12 46.3796C75.5758 46.3728 76.026 46.4795 76.4294 46.6899C76.785 46.8663 77.0861 47.1343 77.3009 47.4658H77.353L77.3009 46.5867V43.6506H78.5061V52.9289H77.3449V52.0497H77.2928C77.078 52.3812 76.7769 52.6493 76.4213 52.8257C76.0204 53.0346 75.573 53.141 75.12 53.1352ZM75.3166 52.049C75.5877 52.0527 75.8564 51.9993 76.1051 51.8924C76.3537 51.7854 76.5765 51.6273 76.7588 51.4285C77.134 50.9507 77.3377 50.3627 77.3377 49.7574C77.3377 49.1521 77.134 48.5641 76.7588 48.0863C76.4086 47.7061 75.9205 47.4792 75.4015 47.4554C74.8825 47.4315 74.3752 47.6127 73.9911 47.9592C73.947 47.9991 73.903 48.0427 73.8627 48.0863C73.4871 48.5616 73.2831 49.1477 73.2831 49.7512C73.2831 50.3548 73.4871 50.9409 73.8627 51.4162C74.0429 51.6227 74.2662 51.7882 74.5172 51.9011C74.7682 52.014 75.0409 52.0716 75.3166 52.0701V52.049Z" fill="#0C0C0C"/>
</g>
<defs>
<clipPath id="clip0_258_20021">
<rect width="78" height="56" fill="white" transform="translate(0.506348 0.220947)"/>
</clipPath>
</defs>
</svg>
