<svg width="56" height="38" viewBox="0 0 56 38" fill="none" xmlns="http://www.w3.org/2000/svg">
<g clip-path="url(#clip0_1_19026)">
<path d="M26.7354 29.277C26.7219 29.268 26.7081 29.258 26.6952 29.2468C26.5253 29.1009 26.5055 28.8442 26.6517 28.6752C28.1022 26.9896 29.9189 25.8454 32.3692 25.0752C34.3766 24.4439 36.0554 23.183 37.2245 21.4297C40.0029 17.2618 38.8819 11.5822 34.7261 8.76838C33.273 7.78496 31.5858 7.23969 29.8439 7.19093C29.6198 7.18511 29.4426 6.99812 29.449 6.77399C29.455 6.55047 29.6412 6.37345 29.8655 6.38029C31.7625 6.43321 33.6019 7.02844 35.1819 8.09719C39.7067 11.1602 40.9266 17.343 37.9019 21.8807C36.6478 23.7616 34.7708 25.171 32.6163 25.8487C30.3161 26.5719 28.6174 27.6389 27.2695 29.2051C27.1347 29.3623 26.9057 29.3904 26.7372 29.2783L26.7354 29.277Z" fill="black"/>
<path d="M25.7976 30.5219L17.9769 25.315C17.7901 25.1905 17.7393 24.939 17.8634 24.7525L17.9267 24.6575C19.369 22.4912 19.9015 20.1697 19.6522 17.1303C19.4678 14.8795 20.0326 12.6946 21.2863 10.8116C22.6902 8.70297 24.8225 7.22181 27.29 6.64182C27.5079 6.59038 27.7267 6.72544 27.7782 6.94386C27.8301 7.16168 27.6954 7.38003 27.4769 7.43107C25.2106 7.96349 23.2518 9.32386 21.9618 11.2614C20.8102 12.991 20.291 14.9982 20.4607 17.0658C20.7163 20.1864 20.1918 22.6052 18.7611 24.8633L26.2468 29.8472C26.4337 29.9716 26.4844 30.2232 26.3603 30.4096C26.2362 30.5961 25.9845 30.6463 25.7976 30.5219Z" fill="black"/>
<path d="M18.3639 33.2123C17.2722 32.4855 16.4403 31.5191 16.0207 30.4917C15.5291 29.2872 15.6343 28.1019 16.3256 27.0636L17.8643 24.7525C17.9884 24.566 18.2401 24.5158 18.4269 24.6402L26.2476 29.8472C26.4345 29.9716 26.4853 30.2231 26.3611 30.4096L24.8225 32.7206C24.1311 33.759 23.0781 34.3132 21.7773 34.3243C20.6675 34.3335 19.455 33.9387 18.3633 33.2119L18.3639 33.2123ZM18.3158 25.54L17.0018 27.5137C16.1536 28.7876 16.3587 30.9035 18.8131 32.5376C20.5336 33.6831 22.937 34.0882 24.1469 32.2709L25.461 30.2972L18.3165 25.5404L18.3158 25.54Z" fill="black"/>
<path d="M23.2972 28.8566C23.1104 28.7322 23.0596 28.4806 23.1837 28.2942C25.1634 25.3207 28.0997 22.6654 31.9105 20.4021L31.9209 20.3958C29.0574 19.8118 26.6011 18.1764 24.9577 15.7598L24.9559 15.7718C24.3378 20.1608 23.0206 23.894 21.0409 26.8675C20.9168 27.054 20.6651 27.1042 20.4783 26.9798C20.2914 26.8553 20.2406 26.6038 20.3648 26.4173C22.2767 23.5457 23.5506 19.9253 24.1516 15.6568L24.311 14.5245C24.3357 14.3515 24.4685 14.2133 24.6406 14.1827C24.8127 14.1521 24.9858 14.2346 25.0695 14.3886C26.735 17.4476 29.6775 19.4067 33.1422 19.7633C33.3166 19.7812 33.4595 19.9091 33.4977 20.0796C33.5358 20.2502 33.4595 20.426 33.3094 20.5155L32.3263 21.0994C28.62 23.3004 25.7712 25.8723 23.8593 28.7439C23.7351 28.9304 23.4835 28.9806 23.2966 28.8562L23.2972 28.8566Z" fill="black"/>
<path d="M24.7487 32.0975L16.928 26.8906C16.7411 26.7662 16.6903 26.5146 16.8145 26.3282C16.9386 26.1417 17.1903 26.0915 17.3771 26.2159L25.1978 31.4228C25.3847 31.5473 25.4355 31.7988 25.3113 31.9853C25.1872 32.1717 24.9355 32.2219 24.7487 32.0975Z" fill="black"/>
<path d="M23.5973 33.5666L16.0188 28.5209C15.8319 28.3965 15.7812 28.1449 15.9053 27.9585C16.0294 27.772 16.2811 27.7218 16.468 27.8462L24.0465 32.8919C24.2333 33.0163 24.2841 33.2679 24.16 33.4543C24.0358 33.6408 23.7842 33.691 23.5973 33.5666Z" fill="black"/>
<path d="M36.1099 6.55727C35.9231 6.43285 35.8723 6.1813 35.9964 5.99484L36.8438 4.72216C36.9679 4.53571 37.2196 4.4855 37.4064 4.60991C37.5933 4.73433 37.6441 4.98588 37.5199 5.17234L36.6726 6.44502C36.5485 6.63147 36.2968 6.68168 36.1099 6.55727Z" fill="black"/>
<path d="M17.9925 10.1714L16.717 9.32225C16.5302 9.19783 16.4794 8.94628 16.6035 8.75982C16.7277 8.57337 16.9793 8.52316 17.1662 8.64757L18.4417 9.49677C18.6286 9.62118 18.6793 9.87274 18.5552 10.0592C18.431 10.2457 18.1794 10.2959 17.9925 10.1714Z" fill="black"/>
<path d="M39.7639 24.6663C39.577 24.5419 39.5263 24.2903 39.6504 24.1039C39.7745 23.9174 40.0262 23.8672 40.2131 23.9916L41.4886 24.8408C41.6754 24.9652 41.7262 25.2168 41.602 25.4033C41.4779 25.5897 41.2262 25.6399 41.0394 25.5155L39.7639 24.6663Z" fill="black"/>
<path d="M14.5663 20.2734C14.4796 20.2157 14.415 20.1249 14.3929 20.0155C14.3485 19.7956 14.4906 19.5822 14.7106 19.5383L16.2114 19.2389C16.4313 19.195 16.6453 19.3374 16.6896 19.5573C16.734 19.7772 16.5919 19.9906 16.3719 20.0345L14.8711 20.3339C14.7617 20.3557 14.6529 20.3311 14.5663 20.2734Z" fill="black"/>
<path d="M41.6883 14.8633C41.6017 14.8056 41.5377 14.7151 41.515 14.6053C41.4706 14.3855 41.6127 14.172 41.8327 14.1281L43.3335 13.8287C43.5534 13.7849 43.7673 13.9273 43.8117 14.1471C43.8561 14.367 43.7139 14.5804 43.494 14.6243L41.9932 14.9237C41.8837 14.9456 41.775 14.921 41.6883 14.8633Z" fill="black"/>
<path d="M31.7649 31.7239C31.6782 31.6662 31.6142 31.5758 31.5915 31.4659L31.2888 29.9658C31.2445 29.7459 31.3866 29.5325 31.6065 29.4886C31.8265 29.4447 32.0404 29.5872 32.0847 29.807L32.3874 31.3072C32.4318 31.527 32.2897 31.7405 32.0697 31.7843C31.9603 31.8062 31.8516 31.7816 31.7649 31.7239Z" fill="black"/>
<path d="M26.2942 4.61396C26.2075 4.55626 26.1429 4.46543 26.1208 4.35602L25.8181 2.85588C25.7738 2.63602 25.9159 2.42258 26.1358 2.3787C26.3558 2.33482 26.5697 2.47724 26.614 2.6971L26.9167 4.19724C26.9611 4.41709 26.819 4.63054 26.599 4.67441C26.4896 4.69625 26.3809 4.67167 26.2942 4.61396Z" fill="black"/>
</g>
<defs>
<clipPath id="clip0_1_19026">
<rect width="56" height="37" fill="white" transform="translate(0 0.5)"/>
</clipPath>
</defs>
</svg>
