<svg width="56" height="38" viewBox="0 0 56 38" fill="none" xmlns="http://www.w3.org/2000/svg">
<path d="M44.9788 13.6913C44.9788 7.0992 39.5573 1.73926 32.8913 1.73926C26.2252 1.73926 20.8037 7.0992 20.8037 13.6913C20.8037 17.3262 22.424 20.5914 25.0424 22.7477L22.116 28.2308C22.0544 28.3541 22.0544 28.5389 22.116 28.6621C22.1776 28.7853 22.3624 28.8469 22.4918 28.7853L27.1062 27.9228L28.973 32.1738C29.0346 32.297 29.1578 32.4202 29.3488 32.4202C29.472 32.4202 29.663 32.3586 29.7246 32.2354L32.9036 26.0745L36.0826 32.2354C36.1442 32.3586 36.2674 32.4202 36.4584 32.4202C36.5816 32.4202 36.7726 32.3586 36.8342 32.1738L38.7071 27.9228L43.3215 28.7853C43.4448 28.7853 43.6358 28.7853 43.6974 28.6621C43.759 28.5389 43.8206 28.3541 43.6974 28.2308L40.771 22.7477C43.3585 20.5914 44.9788 17.3262 44.9788 13.6913ZM29.3981 31.1264L27.7162 27.3683C27.6546 27.1835 27.4697 27.1219 27.2787 27.1219L23.1633 27.9228L25.6585 23.2406C27.5252 24.596 29.7739 25.4585 32.2629 25.5817L29.3981 31.1264ZM42.6131 27.9228L38.4976 27.1219C38.3128 27.0603 38.1218 27.1835 38.0602 27.3683L36.3783 31.1264L33.5135 25.5817C35.947 25.4585 38.2512 24.596 40.1179 23.2406L42.6131 27.9228ZM32.8851 24.8424C26.6503 24.8424 21.6046 19.8521 21.6046 13.6913C21.6046 7.53046 26.6503 2.54016 32.8851 2.54016C39.1199 2.54016 44.1656 7.53046 44.1656 13.6913C44.1656 19.8521 39.1199 24.8424 32.8851 24.8424Z" fill="black"/>
<path d="M32.8848 5.62061C28.3997 5.62061 24.7217 9.25552 24.7217 13.6913C24.7217 18.1271 28.3997 21.762 32.8848 21.762C37.3699 21.762 41.0479 18.1271 41.0479 13.6913C41.0479 9.25552 37.4376 5.62061 32.8848 5.62061ZM32.8848 21.0227C28.831 21.0227 25.4671 17.7575 25.4671 13.6913C25.4671 9.62517 28.7693 6.35991 32.8848 6.35991C37.0002 6.35991 40.3024 9.62517 40.3024 13.6913C40.3024 17.7575 37.0002 21.0227 32.8848 21.0227Z" fill="black"/>
<path d="M38.1214 11.9046L36.1869 9.99481C36.1253 9.9332 36.0021 9.87158 35.9404 9.87158C35.8788 9.87158 35.7556 9.9332 35.694 9.99481L32.0776 13.5681L30.3957 11.9046C30.2725 11.7814 30.0199 11.7814 29.8351 11.9046L27.9006 13.8145C27.839 13.8761 27.7773 13.9993 27.7773 14.0609C27.7773 14.1225 27.839 14.2458 27.9006 14.3074L31.7634 18.1271C31.825 18.1887 31.9482 18.2503 32.0099 18.2503C32.0715 18.2503 32.1947 18.1887 32.2563 18.1271L38.0536 12.3975C38.3124 12.3359 38.3124 12.0895 38.1214 11.9046ZM32.0776 17.3878L28.7754 14.1226L30.1493 12.7672L31.8312 14.4306C31.9544 14.5538 32.207 14.5538 32.3918 14.4306L35.9466 10.9189L37.3205 12.2743L32.0776 17.3878Z" fill="black"/>
<path d="M47.3443 1C46.0382 1 44.9785 2.04737 44.9785 3.34115C44.9785 4.63492 46.0382 5.68226 47.3443 5.68226C48.6504 5.68226 49.71 4.63492 49.71 3.34115C49.7162 2.04737 48.5949 1 47.3443 1ZM47.3443 4.81972C46.4694 4.81972 45.7856 4.14203 45.7856 3.27952C45.7856 2.417 46.4694 1.73931 47.3443 1.73931C48.2191 1.73931 48.903 2.417 48.903 3.27952C48.903 4.14203 48.1575 4.81972 47.3443 4.81972Z" fill="black"/>
<path d="M17.7416 23.6719C16.2445 23.6719 15 24.904 15 26.3826C15 27.8612 16.2445 29.0934 17.7416 29.0934C19.2387 29.0934 20.4831 27.8612 20.4831 26.3826C20.4831 24.904 19.2387 23.6719 17.7416 23.6719ZM17.7416 28.2925C16.6819 28.2925 15.8071 27.43 15.8071 26.3826C15.8071 25.3353 16.6819 24.4728 17.7416 24.4728C18.8012 24.4728 19.6761 25.3353 19.6761 26.3826C19.6761 27.43 18.8012 28.2925 17.7416 28.2925Z" fill="black"/>
<path d="M46.7218 8.33142C47.0298 8.33142 47.2824 8.57787 47.2824 8.88591C47.2824 9.19395 47.0298 9.44036 46.7218 9.44036C46.4137 9.44036 46.1611 9.19395 46.1611 8.88591C46.1611 8.57787 46.4137 8.33142 46.7218 8.33142Z" fill="black"/>
<path d="M46.3468 24.9041C46.6548 24.9041 46.9074 25.1505 46.9074 25.4585C46.9074 25.7665 46.6548 26.013 46.3468 26.013C46.0387 26.013 45.7861 25.7665 45.7861 25.4585C45.7861 25.1505 46.0387 24.9041 46.3468 24.9041Z" fill="black"/>
<path d="M22.9786 1.36963C23.2866 1.36963 23.5392 1.61604 23.5392 1.92408C23.5392 2.23212 23.2866 2.47857 22.9786 2.47857C22.6706 2.47857 22.418 2.23212 22.418 1.92408C22.418 1.61604 22.6706 1.36963 22.9786 1.36963Z" fill="black"/>
<path d="M16.7433 8.70105C17.0513 8.70105 17.3039 8.9475 17.3039 9.25554C17.3039 9.56358 17.0513 9.81003 16.7433 9.81003C16.4352 9.81003 16.1826 9.56358 16.1826 9.25554C16.1826 8.9475 16.4352 8.70105 16.7433 8.70105Z" fill="black"/>
<path d="M19.4913 19.4825C19.7993 19.4825 20.0519 19.729 20.0519 20.037C20.0519 20.3451 19.7993 20.5915 19.4913 20.5915C19.1833 20.5915 18.9307 20.3451 18.9307 20.037C18.9307 19.729 19.1771 19.4825 19.4913 19.4825Z" fill="black"/>
<path d="M40.1173 31.8042C40.4253 31.8042 40.6779 32.0506 40.6779 32.3587C40.6779 32.6667 40.4253 32.9132 40.1173 32.9132C39.8092 32.9132 39.5566 32.6667 39.5566 32.3587C39.5566 32.0506 39.8092 31.8042 40.1173 31.8042Z" fill="black"/>
</svg>
