<svg width="48" height="49" viewBox="0 0 48 49" fill="none" xmlns="http://www.w3.org/2000/svg">
<path fill-rule="evenodd" clip-rule="evenodd" d="M29.573 2.8999C50.67 17.3599 43.848 33.3019 43.848 33.3019C43.848 33.3019 49.848 40.1299 47.422 46.0999C47.422 46.0999 44.947 41.9199 40.798 41.9199C36.797 41.9199 34.448 46.0999 26.398 46.0999C8.474 46.0999 0 31.0099 0 31.0099C16.147 41.7159 27.173 34.1339 27.173 34.1339C19.898 29.8779 4.423 9.5239 4.423 9.5239C17.899 21.0859 23.724 24.1339 23.724 24.1339C20.249 21.2379 10.498 7.0819 10.498 7.0819C18.298 15.0419 33.797 26.1489 33.797 26.1489C38.198 13.8569 29.573 2.8999 29.573 2.8999Z" fill="#DD574A"/>
</svg>
