<svg width="49" height="49" viewBox="0 0 49 49" fill="none" xmlns="http://www.w3.org/2000/svg">
<path d="M34.4351 21.1192C34.5191 20.8532 34.5851 20.6222 34.6521 20.3932C35.3357 17.767 36.1595 15.1793 37.1201 12.6412C37.2846 12.1201 37.6009 11.6599 38.0284 11.3194C38.456 10.979 38.9753 10.7739 39.5201 10.7302C40.3061 10.6462 41.1401 10.5802 41.6721 11.3302C41.8224 11.5539 42.017 11.7445 42.2438 11.89C42.4707 12.0355 42.725 12.1329 42.9911 12.1762C43.2601 12.2142 43.5241 12.2832 43.7771 12.3812C44.1271 12.5152 44.2611 12.3692 44.3571 12.0422C44.6571 10.9772 44.9741 9.9262 45.2891 8.8742C45.6391 7.6742 45.6391 7.6892 44.4791 7.2782C44.255 7.17854 44.0132 7.12505 43.768 7.12092C43.5228 7.1168 43.2793 7.16213 43.0521 7.2542C42.6796 7.43024 42.2601 7.48067 41.8565 7.3979C41.453 7.31513 41.0872 7.10364 40.8141 6.7952C40.1263 6.08807 39.2868 5.54644 38.3591 5.2112C35.6614 4.19906 32.7529 3.88032 29.9001 4.2842C28.5001 4.4462 27.1591 4.9342 25.9821 5.7112C25.8206 5.83806 25.6673 5.975 25.5231 6.1212C27.0762 5.96788 28.6415 5.98431 30.1911 6.1702C30.7045 6.20372 31.2055 6.34224 31.6633 6.57721C32.121 6.81217 32.5256 7.13857 32.8521 7.5362C33.4885 8.46424 33.8339 9.56093 33.8441 10.6862C33.9301 12.2264 33.7266 13.769 33.2441 15.2342C32.7841 16.8062 32.3441 18.4022 31.9011 19.9762C31.8411 20.1812 31.7911 20.3632 32.0711 20.4352C32.8511 20.6582 33.6131 20.8772 34.4351 21.1192ZM26.9961 44.9002C27.3536 44.9349 27.7133 44.8611 28.0283 44.6885C28.3433 44.5158 28.599 44.2523 28.7621 43.9322C28.9951 43.5272 29.1701 43.0922 29.2821 42.6382C30.4431 37.8382 31.5961 33.0322 32.7421 28.2212C33.2121 26.2262 33.6611 24.2302 34.1441 22.2352C34.2411 21.8482 34.1441 21.6902 33.7691 21.6062C33.2566 21.482 32.7483 21.3409 32.2451 21.1832C31.3131 20.9062 31.4951 20.9422 31.2171 21.7162C28.9311 28.2322 26.6421 34.7452 24.3491 41.2552C24.2431 41.5222 24.1781 41.8032 24.1551 42.0892C24.1281 42.4678 24.1834 42.8478 24.3171 43.203C24.4508 43.5583 24.6597 43.8804 24.9296 44.1473C25.1994 44.4143 25.5238 44.6197 25.8805 44.7494C26.2372 44.8792 26.6178 44.9303 26.9961 44.8992V44.9002Z" fill="#235EE1"/>
<path d="M3.53502 15.8829C3.58302 16.2819 3.63202 16.6209 3.68502 16.9479C4.03502 19.2699 4.39902 21.5979 4.73502 23.9139C5.07102 26.2299 5.42502 28.5939 5.76202 30.9279C6.11302 33.2859 6.46402 35.6319 6.82702 37.9909C7.04502 39.4789 7.27702 40.9659 7.49202 42.4659C7.54002 42.7809 7.64202 42.9249 8.02402 42.8649C10.224 42.5019 12.424 42.1519 14.624 41.8149C17.774 41.3179 20.902 40.8469 24.046 40.3509C24.167 40.3269 24.263 40.1809 24.373 40.0849C24.239 40.0129 24.082 39.8799 23.962 39.8919C22.244 40.1329 20.539 40.3999 18.822 40.6659C15.35 41.2099 11.879 41.7429 8.42002 42.2979C8.05702 42.3579 7.93602 42.2739 7.88802 41.9229C7.68306 40.4178 7.46539 38.9144 7.23502 37.4129C6.74002 34.0739 6.22002 30.7349 5.72302 27.4099C5.18002 23.7819 4.64602 20.1409 4.09102 16.4999C4.03102 16.1019 4.16302 15.9199 4.56202 15.8719C5.26402 15.7749 5.96502 15.6549 6.65502 15.5449C9.50502 15.0859 12.364 14.6139 15.217 14.1549L22.7 12.9189C25.022 12.5439 27.332 12.1689 29.654 11.7819C30.744 11.5999 31.819 11.4309 32.908 11.2249C33.041 11.2009 33.138 11.0079 33.247 10.8979C33.097 10.8379 32.956 10.7769 32.812 10.7279C32.776 10.7169 32.728 10.7409 32.678 10.7529C31.328 10.9829 29.969 11.2119 28.628 11.4309C25.778 11.9009 22.919 12.3619 20.066 12.8329C17.406 13.2679 14.744 13.7169 12.085 14.1519C9.35202 14.6019 6.61902 15.0519 3.88502 15.4939C3.58302 15.5439 3.42502 15.6279 3.53502 15.8829ZM38 11.8669C37.9271 11.8689 37.8542 11.8649 37.782 11.8549C37.71 12.1569 37.672 12.4649 37.672 12.7749C37.806 13.7549 37.999 14.7339 38.157 15.7129L39.463 23.5989C39.898 26.2239 40.335 28.8589 40.782 31.4849C41.059 33.1659 41.35 34.8459 41.628 36.5149C41.676 36.7689 41.628 36.9499 41.313 36.9999L34.347 38.0889C33.247 38.2579 32.147 38.4389 31.047 38.6329C30.949 38.6449 30.865 38.8029 30.781 38.8989C30.903 38.9589 31.011 39.0689 31.121 39.0689C31.471 39.0439 31.811 38.9839 32.148 38.9349L39.864 37.7019C40.638 37.5809 41.4 37.4489 42.234 37.3149C40.8348 28.8305 39.4232 20.3482 37.999 11.8679L38 11.8669Z" fill="#235EE1"/>
<path d="M28.8221 27.1061C28.879 27.067 28.9262 27.0152 28.9599 26.9548C28.9936 26.8944 29.013 26.8271 29.0165 26.758C29.02 26.689 29.0075 26.62 28.98 26.5566C28.9525 26.4931 28.9108 26.4369 28.8581 26.3921C28.0961 25.4921 27.3581 24.5781 26.5961 23.6711C24.4801 21.1211 22.3511 18.5541 20.2351 15.9911C20.055 15.7743 19.9304 15.5169 19.8721 15.2411C19.8449 14.9829 19.9069 14.723 20.0477 14.5048C20.1884 14.2865 20.3996 14.1229 20.6461 14.0411C20.91 13.938 21.2017 13.9299 21.471 14.0182C21.7402 14.1065 21.9704 14.2857 22.1221 14.5251C24.2021 17.0171 26.2951 19.5081 28.3741 22.0001C28.8701 22.6001 29.3771 23.1851 29.8981 23.8001C29.955 23.761 30.0022 23.7092 30.0359 23.6488C30.0696 23.5884 30.089 23.5211 30.0925 23.452C30.096 23.383 30.0835 23.314 30.056 23.2506C30.0285 23.1871 29.9868 23.1309 29.9341 23.0861C29.1001 22.0941 28.2641 21.0911 27.4301 20.0991C25.7491 18.0921 24.0801 16.0841 22.3871 14.0991C22.2434 13.9178 22.0637 13.7682 21.8592 13.6598C21.6548 13.5515 21.43 13.4868 21.1993 13.4698C20.9685 13.4527 20.7368 13.4838 20.5186 13.561C20.3005 13.6382 20.1008 13.7598 19.9321 13.9181C19.7581 14.0601 19.6165 14.2375 19.5166 14.4386C19.4168 14.6397 19.361 14.8597 19.3531 15.0841C19.3451 15.3085 19.3852 15.5319 19.4705 15.7396C19.5559 15.9472 19.6846 16.1342 19.8481 16.2881C22.4601 19.4451 25.0721 22.5981 27.6851 25.7451C28.0601 26.2101 28.4351 26.6451 28.8221 27.1051V27.1061ZM20.4781 22.0131C20.3882 21.9389 20.291 21.8739 20.1881 21.8191C19.3531 21.5041 18.5181 21.2191 17.6841 20.8991C17.4181 20.8021 17.2971 20.8991 17.1991 21.1291C15.6761 24.8761 14.1531 28.6221 12.6291 32.3661C12.5071 32.6431 12.5931 32.7761 12.8461 32.8741C13.6321 33.1891 14.4181 33.4911 15.1921 33.8421C15.6151 34.0351 15.7921 33.9391 15.9421 33.5151C17.3941 29.8021 18.8691 26.1021 20.3321 22.4001C20.3691 22.3161 20.4051 22.1941 20.4781 22.0131ZM28.4471 27.2001C27.8471 26.4381 27.2851 25.8101 26.8271 25.1311C26.4151 24.5031 25.9551 24.1761 25.1941 24.4911C25.0061 24.5471 24.8111 24.5811 24.6141 24.5881L19.7641 25.4221C19.6373 25.4246 19.5142 25.4651 19.4108 25.5384C19.3074 25.6117 19.2284 25.7144 19.1841 25.8331C18.8691 26.7331 18.5321 27.6111 18.2041 28.5061C18.1724 28.6331 18.1524 28.7626 18.1441 28.8931C21.5901 28.3381 24.9491 27.7821 28.4471 27.2001ZM14.8561 26.1261C12.8731 26.4531 10.9861 26.7541 9.03906 27.0701C9.17306 27.9701 9.31706 28.8351 9.41406 29.7061C9.46206 30.0811 9.62006 30.1301 9.95906 30.0811C10.9501 29.9311 11.9541 29.7911 12.9591 29.6711C13.0931 29.6667 13.2229 29.623 13.3324 29.5455C13.4419 29.468 13.5263 29.3601 13.5751 29.2351C13.9381 28.3641 14.3251 27.4941 14.7001 26.6221C14.7591 26.4771 14.7831 26.3551 14.8561 26.1261ZM36.1171 33.6731C34.9062 32.9314 33.6929 32.1937 32.4771 31.4601C32.5251 31.6901 32.5011 31.9571 32.6271 32.0891C32.8571 32.3441 33.1321 32.5571 33.4371 32.7171C33.8471 32.9471 34.2831 33.1041 34.7071 33.3171C35.015 33.4273 35.2819 33.6287 35.4722 33.8946C35.6625 34.1605 35.7671 34.4782 35.7721 34.8051C35.7881 34.9351 35.8251 35.0621 35.8821 35.1801L36.0031 35.1201C36.0333 35.0831 36.0595 35.0428 36.0811 35.0001C36.4095 34.4917 36.6211 33.9168 36.7006 33.3168C36.7802 32.7168 36.7257 32.1066 36.5411 31.5301C36.4188 30.859 36.1492 30.2233 35.7517 29.6689C35.3541 29.1145 34.8385 28.6552 34.2421 28.3241C33.8791 28.1421 33.6421 28.3001 33.3841 28.4741C33.2405 28.5542 33.1273 28.6792 33.0617 28.8298C32.9961 28.9805 32.9818 29.1486 33.0211 29.3081C33.1911 29.2201 33.3521 29.1141 33.5011 28.9931C33.8011 28.6781 34.0811 28.7511 34.4211 28.9691C35.107 29.5231 35.6279 30.2545 35.9269 31.084C36.226 31.9134 36.2917 32.8089 36.1171 33.6731ZM11.7971 38.7401C11.8447 38.7656 11.895 38.7857 11.9471 38.8001L15.5751 34.2631C15.3941 34.1661 15.2851 34.0931 15.1651 34.0461C14.3901 33.7311 13.6161 33.4461 12.8551 33.1141C12.4911 32.9641 12.3831 33.0661 12.3581 33.4411C12.2601 34.4571 12.1401 35.4741 12.0311 36.5011C11.9454 37.2463 11.8674 37.9924 11.7971 38.7391V38.7401ZM19.5951 17.8901C19.2874 17.8954 18.9881 17.9912 18.7345 18.1655C18.4809 18.3398 18.2843 18.5848 18.1691 18.8701C17.9871 19.3201 17.8171 19.7701 17.6121 20.2001C17.4911 20.4531 17.5281 20.6101 17.8181 20.7081C18.6281 20.9861 19.4381 21.2881 20.2371 21.6081C20.5281 21.7181 20.6481 21.6201 20.7571 21.3671C20.9391 20.9071 21.1441 20.4471 21.3381 19.9881C21.4803 19.7342 21.5169 19.4346 21.44 19.1539C21.3631 18.8732 21.1788 18.6341 20.9271 18.4881C20.4991 18.2548 20.0538 18.0549 19.5951 17.8901ZM33.7831 26.2341C34.7991 26.1001 35.8031 25.9681 36.7951 25.8111C36.8791 25.7991 36.9891 25.5811 36.9771 25.4841C36.8559 24.68 36.7108 23.8797 36.5421 23.0841C36.5126 23.0101 36.465 22.9447 36.4037 22.8939C36.3424 22.843 36.2692 22.8084 36.1911 22.7931C35.6803 22.8342 35.1718 22.8989 34.6671 22.9871C34.4131 23.0231 34.2321 23.1371 34.3761 23.5071C34.8351 23.4471 35.3071 23.3731 35.7781 23.3371C35.8881 23.3261 36.0931 23.4221 36.1051 23.4871C36.2391 24.0871 36.3351 24.7211 36.4561 25.3631C35.6701 25.4721 34.9321 25.5681 34.2061 25.6631C33.9411 25.7151 33.6981 25.7751 33.7831 26.2341ZM34.4341 21.1191C33.6241 20.8771 32.8501 20.6591 32.0881 20.4411C31.8101 20.3571 31.8581 20.1871 31.9181 19.9811C32.3681 18.3981 32.8021 16.8141 33.2611 15.2411C33.743 13.7755 33.9465 12.2326 33.8611 10.6921C33.8548 9.56626 33.5091 8.46844 32.8691 7.54214C32.541 7.14454 32.1347 6.81864 31.6754 6.58468C31.2161 6.35072 30.7136 6.21371 30.1991 6.18214C28.6494 5.99653 27.0842 5.98043 25.5311 6.13414C25.6811 6.00014 25.8221 5.84314 25.9911 5.72314C27.1668 4.94703 28.5086 4.45822 29.9081 4.29614C32.7581 3.89614 35.6641 4.21214 38.3621 5.21614C39.2931 5.5464 40.1346 6.08868 40.8201 6.80014C41.0932 7.10845 41.459 7.31984 41.8626 7.4026C42.2661 7.48536 42.6856 7.43502 43.0581 7.25914C43.2853 7.16713 43.5288 7.12183 43.774 7.12595C44.0192 7.13008 44.261 7.18354 44.4851 7.28314C45.6451 7.69314 45.6451 7.68214 45.2951 8.87914C44.9801 9.92914 44.6661 10.9791 44.3631 12.0471C44.2661 12.3741 44.1331 12.5061 43.7831 12.3861C43.5297 12.2879 43.266 12.2188 42.9971 12.1801C42.729 12.1432 42.4722 12.0484 42.2445 11.9023C42.0167 11.7562 41.8234 11.5624 41.6781 11.3341C41.4122 11.0418 41.0692 10.8304 40.6885 10.7242C40.3078 10.6181 39.9049 10.6215 39.5261 10.7341C38.9813 10.7777 38.4619 10.9828 38.0343 11.3232C37.6068 11.6637 37.2905 12.1239 37.1261 12.6451C36.1655 15.1832 35.3416 17.7709 34.6581 20.3971C34.5921 20.6221 34.5201 20.8401 34.4351 21.1191H34.4341ZM26.9971 44.9001C26.619 44.9317 26.2385 44.881 25.8819 44.7517C25.5252 44.6223 25.2007 44.4173 24.9307 44.1507C24.6608 43.8842 24.4516 43.5624 24.3178 43.2074C24.1839 42.8524 24.1284 42.4726 24.1551 42.0941C24.1771 41.8081 24.2431 41.5261 24.3481 41.2601C26.6323 34.746 28.9263 28.2354 31.2301 21.7281C31.4961 20.9541 31.3281 20.9301 32.2581 21.1961C32.7661 21.3461 33.2731 21.4961 33.7821 21.6191C34.1571 21.7031 34.2521 21.8601 34.1571 22.2471C33.6721 24.2421 33.2251 26.2391 32.7541 28.2341C31.6051 33.0341 30.4521 37.8391 29.2951 42.6501C29.1831 43.1041 29.0081 43.5401 28.7751 43.9451C28.6053 44.2614 28.3461 44.5206 28.0299 44.6904C27.7137 44.8603 27.3545 44.9332 26.9971 44.9001Z" fill="#235EE1"/>
<path d="M3.53489 15.8818C3.42489 15.6288 3.58289 15.5428 3.89789 15.4948C6.63089 15.0598 9.36389 14.5948 12.0979 14.1528C14.7589 13.7178 17.4199 13.2688 20.0799 12.8338C22.9299 12.3638 25.7889 11.9028 28.6419 11.4318C29.9919 11.2138 31.3509 10.9818 32.6919 10.7538C32.7399 10.7418 32.7889 10.7178 32.8249 10.7298C32.9749 10.7778 33.1159 10.8398 33.2599 10.8998C33.1499 11.0088 33.0549 11.1998 32.9209 11.2258C31.8439 11.4318 30.7569 11.6008 29.6679 11.7828C27.3459 12.1578 25.0359 12.5328 22.7139 12.9198L15.2299 14.1498C12.3759 14.6218 9.52189 15.0848 6.66789 15.5398C5.96589 15.6498 5.27789 15.7818 4.57589 15.8668C4.17589 15.9148 4.04289 16.0968 4.10489 16.4958C4.66089 20.1238 5.19389 23.7648 5.73689 27.4058C6.23289 30.7428 6.75189 34.0818 7.24889 37.4068C7.47889 38.9068 7.69889 40.4188 7.90089 41.9168C7.94889 42.2688 8.05089 42.3528 8.43389 42.2928C11.8929 41.7358 15.3639 41.2028 18.8339 40.6608C20.5519 40.3948 22.2579 40.1278 23.9749 39.8868C24.0969 39.8748 24.2529 40.0078 24.3859 40.0798C24.2759 40.1778 24.1809 40.3218 24.0589 40.3458C20.9269 40.8458 17.7869 41.3338 14.6379 41.8098C12.4379 42.1488 10.2379 42.4988 8.03789 42.8598C7.66289 42.9198 7.55289 42.7758 7.50489 42.4598C7.28855 40.9678 7.06722 39.4764 6.84089 37.9858C6.48989 35.6278 6.12689 33.2818 5.77589 30.9228C5.42489 28.5888 5.08589 26.2428 4.74789 23.9088L3.69789 16.9428C3.63189 16.6188 3.58289 16.2928 3.53489 15.8828V15.8818ZM37.9999 11.8668L42.2569 37.3368C41.4229 37.4698 40.6609 37.6018 39.8869 37.7238L32.1709 38.9568C31.8319 39.0048 31.4809 39.0668 31.1439 39.0898C31.0339 39.1018 30.9139 38.9798 30.8039 38.9198C30.8889 38.8228 30.9739 38.6798 31.0699 38.6548C32.1699 38.4608 33.2699 38.2798 34.3699 38.1108C36.6919 37.7478 39.0199 37.3728 41.3359 37.0208C41.6509 36.9738 41.6869 36.7918 41.6509 36.5368C41.3739 34.8558 41.0829 33.1868 40.8049 31.5068C40.3699 28.8808 39.9339 26.2458 39.4869 23.6208C39.0399 20.9958 38.6149 18.3608 38.1799 15.7348C38.0149 14.7498 37.8339 13.7778 37.6999 12.7998C37.7019 12.4898 37.7389 12.1808 37.8099 11.8798C37.8726 11.8693 37.9363 11.8649 37.9999 11.8668Z" fill="#235EE1"/>
<path d="M28.822 27.105C28.435 26.646 28.06 26.205 27.685 25.755C25.073 22.598 22.461 19.445 19.848 16.298C19.6844 16.1442 19.5555 15.9572 19.4701 15.7495C19.3846 15.5418 19.3445 15.3183 19.3525 15.0939C19.3604 14.8695 19.4162 14.6494 19.5162 14.4483C19.6161 14.2472 19.7579 14.0698 19.932 13.928C20.0989 13.7662 20.2982 13.6415 20.5168 13.5622C20.7353 13.4829 20.9682 13.4507 21.2001 13.4678C21.4319 13.4849 21.6576 13.5509 21.8621 13.6614C22.0667 13.7719 22.2455 13.9244 22.387 14.109C24.081 16.092 25.749 18.113 27.43 20.109C28.264 21.1 29.08 22.104 29.934 23.095C29.9869 23.1397 30.0288 23.196 30.0564 23.2596C30.084 23.3231 30.0965 23.3922 30.093 23.4614C30.0896 23.5306 30.0701 23.598 30.0363 23.6585C30.0025 23.719 29.9551 23.7708 29.898 23.81C29.378 23.193 28.87 22.6 28.374 22.01C26.299 19.509 24.199 17.019 22.122 14.527C21.9733 14.2844 21.7432 14.1026 21.4728 14.0139C21.2025 13.9253 20.9094 13.9356 20.646 14.043C20.398 14.1225 20.1853 14.2856 20.0442 14.5044C19.903 14.7233 19.8422 14.9843 19.872 15.243C19.919 15.523 20.045 15.783 20.235 15.993C22.351 18.556 24.468 21.11 26.596 23.673C27.346 24.573 28.096 25.487 28.858 26.394C28.9101 26.4387 28.9514 26.4948 28.9785 26.558C29.0056 26.6211 29.0179 26.6897 29.0144 26.7583C29.011 26.8269 28.9918 26.8939 28.9584 26.954C28.9251 27.0141 28.8784 27.0657 28.822 27.105ZM20.477 22.013C20.417 22.194 20.38 22.304 20.327 22.424C18.863 26.124 17.389 29.825 15.937 33.539C15.767 33.962 15.61 34.059 15.187 33.866C14.425 33.515 13.627 33.214 12.841 32.898C12.575 32.789 12.501 32.669 12.623 32.39C14.159 28.653 15.683 24.908 17.195 21.155C17.293 20.913 17.413 20.816 17.68 20.925C18.514 21.241 19.35 21.525 20.183 21.845C20.29 21.885 20.389 21.941 20.477 22.013ZM17.627 21.413C17.422 21.933 17.228 22.393 17.047 22.852C15.801 25.912 14.551 28.972 13.297 32.032C13.147 32.395 13.225 32.54 13.562 32.66C14.048 32.829 14.524 33.022 14.989 33.24C15.352 33.422 15.497 33.35 15.641 32.975C16.5863 30.5559 17.5419 28.1408 18.508 25.73C18.967 24.581 19.408 23.432 19.886 22.235C19.123 21.965 18.409 21.7 17.623 21.409L17.627 21.413ZM28.448 27.2C24.953 27.78 21.59 28.325 18.156 28.894C18.166 28.764 18.186 28.634 18.216 28.507C18.543 27.607 18.894 26.729 19.196 25.833C19.2386 25.7132 19.3172 25.6095 19.4211 25.5361C19.5249 25.4627 19.6488 25.4232 19.776 25.423L24.626 24.589C24.822 24.578 25.016 24.548 25.206 24.5C25.968 24.2 26.416 24.524 26.838 25.14C27.287 25.823 27.843 26.44 28.448 27.2ZM18.821 28.301C21.771 27.817 24.638 27.334 27.564 26.849C27.044 26.197 26.597 25.616 26.126 25.049C26.0682 24.9992 26.0009 24.9617 25.9282 24.9388C25.8555 24.9159 25.7788 24.9082 25.703 24.916C25.28 24.963 24.869 25.037 24.458 25.109C23.019 25.35 21.579 25.593 20.153 25.859C19.971 25.895 19.703 26.009 19.644 26.15C19.341 26.827 19.1 27.527 18.821 28.301ZM14.854 26.126C14.782 26.356 14.744 26.477 14.704 26.597C14.329 27.468 13.942 28.338 13.579 29.21C13.5334 29.3372 13.4497 29.4473 13.3393 29.5251C13.2289 29.603 13.0971 29.6448 12.962 29.645C11.9596 29.7644 10.9595 29.9014 9.96197 30.056C9.62297 30.104 9.46597 30.056 9.41797 29.681C9.30797 28.823 9.17597 27.963 9.04297 27.044C10.984 26.75 12.87 26.45 14.854 26.126ZM14.104 26.742C12.652 26.972 11.311 27.177 9.99197 27.407C9.85897 27.431 9.64197 27.648 9.64197 27.758C9.68597 28.283 9.76697 28.804 9.88297 29.318C9.91548 29.3782 9.96232 29.4295 10.0193 29.4673C10.0764 29.5052 10.1418 29.5284 10.21 29.535C11.032 29.438 11.86 29.33 12.665 29.197C12.8392 29.182 13.0007 29.0994 13.115 28.967C13.462 28.267 13.753 27.54 14.104 26.742ZM36.115 33.672C36.2918 32.8116 36.2273 31.9191 35.9285 31.0932C35.6297 30.2673 35.1083 29.54 34.422 28.992C34.3622 28.9291 34.2899 28.8795 34.2097 28.8464C34.1296 28.8132 34.0433 28.7973 33.9566 28.7996C33.8699 28.8018 33.7847 28.8222 33.7063 28.8595C33.628 28.8968 33.5584 28.9501 33.502 29.016C33.3495 29.1376 33.1877 29.2469 33.018 29.343C32.9788 29.1834 32.993 29.0153 33.0586 28.8647C33.1242 28.714 33.2375 28.589 33.381 28.509C33.4889 28.3951 33.6306 28.319 33.7851 28.292C33.9397 28.265 34.0988 28.2884 34.239 28.359C34.8339 28.6882 35.3486 29.1449 35.7462 29.6964C36.1438 30.2479 36.4146 30.8805 36.539 31.549C36.7237 32.1255 36.7783 32.7359 36.6988 33.3361C36.6192 33.9363 36.4075 34.5114 36.079 35.02C36.0549 35.0595 36.0267 35.0963 35.995 35.13C35.971 35.154 35.947 35.154 35.874 35.19C35.8222 35.0699 35.7853 34.944 35.764 34.815C35.7589 34.488 35.6542 34.1705 35.4639 33.9046C35.2736 33.6387 35.0068 33.4372 34.699 33.327C34.276 33.121 33.828 32.964 33.429 32.727C33.1247 32.5661 32.8506 32.3536 32.619 32.099C32.497 31.965 32.521 31.699 32.469 31.47C33.757 32.232 34.93 32.946 36.115 33.672ZM11.797 38.74C11.869 37.99 11.93 37.252 12.014 36.502C12.124 35.486 12.256 34.469 12.341 33.442C12.377 33.067 12.475 32.957 12.838 33.115C13.6 33.442 14.374 33.731 15.148 34.046C15.269 34.094 15.378 34.168 15.558 34.264C14.3464 35.7742 13.1371 37.2862 11.93 38.8C11.8844 38.7828 11.84 38.7627 11.797 38.74ZM12.413 37.337C12.449 37.349 12.485 37.349 12.511 37.361C13.273 36.394 14.023 35.438 14.809 34.435C14.095 34.157 13.479 33.915 12.814 33.649C12.6844 34.8787 12.5501 36.108 12.413 37.337ZM19.596 17.89C20.056 18.05 20.501 18.25 20.926 18.49C21.1775 18.6361 21.3616 18.8752 21.4385 19.1558C21.5154 19.4364 21.4789 19.736 21.337 19.99C21.143 20.449 20.938 20.89 20.757 21.368C20.659 21.622 20.527 21.719 20.236 21.61C19.438 21.295 18.628 21.01 17.816 20.71C17.526 20.612 17.502 20.456 17.611 20.201C17.805 19.766 17.974 19.301 18.167 18.871C18.2799 18.5836 18.4763 18.3366 18.7308 18.1618C18.9852 17.987 19.2862 17.8923 19.595 17.89H19.596ZM18.119 20.29C18.822 20.555 19.486 20.81 20.139 21.028C20.211 21.052 20.38 20.944 20.429 20.846C20.599 20.496 20.729 20.132 20.901 19.769C20.9432 19.701 20.9714 19.6252 20.9839 19.5461C20.9964 19.467 20.993 19.3863 20.9738 19.3085C20.9546 19.2308 20.92 19.1577 20.8721 19.0936C20.8242 19.0294 20.764 18.9755 20.695 18.935C20.3526 18.7307 19.9814 18.579 19.594 18.485C19.4014 18.433 19.1962 18.4568 19.0206 18.5515C18.845 18.6462 18.7124 18.8045 18.65 18.994C18.47 19.414 18.315 19.813 18.121 20.3L18.119 20.29ZM33.783 26.234C33.686 25.774 33.933 25.714 34.206 25.677L36.456 25.377C36.335 24.737 36.239 24.119 36.106 23.502C36.093 23.43 35.888 23.332 35.778 23.352C35.308 23.388 34.835 23.462 34.376 23.522C34.242 23.147 34.424 23.037 34.666 23.002C35.176 22.929 35.682 22.852 36.191 22.808C36.2698 22.8209 36.3438 22.8546 36.4053 22.9055C36.4668 22.9565 36.5136 23.0229 36.541 23.098C36.711 23.898 36.856 24.698 36.977 25.498C36.989 25.596 36.867 25.814 36.795 25.826C35.802 25.968 34.811 26.09 33.783 26.234Z" fill="#235EE1"/>
<path d="M17.6251 21.4081C18.4111 21.6991 19.1251 21.9531 19.8871 22.2301C19.4171 23.4301 18.9561 24.5761 18.5091 25.7251C17.5531 28.1451 16.5861 30.5511 15.6421 32.9701C15.4921 33.3451 15.3421 33.4201 14.9901 33.2361C14.5272 33.0128 14.0505 32.8191 13.5631 32.6561C13.2241 32.5341 13.1531 32.3901 13.2981 32.0261C14.5561 28.9661 15.8061 25.9061 17.0481 22.8461C17.2261 22.3881 17.4081 21.9291 17.6251 21.4081ZM18.8201 28.3021C19.1111 27.5281 19.3401 26.8381 19.6301 26.1621C19.6901 26.0121 19.9571 25.9081 20.1391 25.8711C21.5771 25.6051 23.0171 25.3621 24.4441 25.1211C24.8541 25.0491 25.2781 24.9711 25.6891 24.9271C25.765 24.9204 25.8414 24.9288 25.914 24.9518C25.9866 24.9748 26.0539 25.0119 26.1121 25.0611C26.5821 25.6291 27.0431 26.2101 27.5501 26.8611C24.6371 27.3351 21.7721 27.8001 18.8201 28.3021ZM14.1071 26.7421C13.7561 27.5401 13.4671 28.2661 13.1151 28.9551C13.0009 29.0876 12.8394 29.1702 12.6651 29.1851C11.8551 29.3181 11.0331 29.4251 10.2101 29.5231C10.1001 29.5351 9.8951 29.4021 9.8831 29.3061C9.76528 28.7925 9.68441 28.2712 9.6411 27.7461C9.6291 27.6361 9.8471 27.4191 9.9921 27.3951C11.3121 27.1771 12.6521 26.9721 14.1071 26.7421ZM12.4101 37.3371C12.5441 36.1271 12.6761 34.9371 12.8211 33.6481C13.4741 33.9021 14.1041 34.1571 14.8161 34.4341C14.0301 35.4381 13.2681 36.3941 12.5181 37.3611C12.4811 37.3589 12.4446 37.3508 12.4101 37.3371ZM18.1211 20.3001C18.3151 19.8161 18.4721 19.4171 18.6541 19.0181C18.716 18.8282 18.8477 18.6691 19.0227 18.5729C19.1977 18.4766 19.4027 18.4506 19.5961 18.5001C19.9851 18.5891 20.3561 18.7401 20.6961 18.9501C20.8335 19.0338 20.9322 19.1685 20.9708 19.3247C21.0094 19.4809 20.9847 19.646 20.9021 19.7841C20.7521 20.1351 20.6021 20.5101 20.4321 20.8611C20.3831 20.9451 20.2141 21.0671 20.1401 21.0431C19.4761 20.8161 18.8221 20.5631 18.1211 20.3001Z" fill="#235EE1"/>
</svg>
