<svg width="24" height="24" viewBox="0 0 24 24" fill="none" xmlns="http://www.w3.org/2000/svg">
<path d="M21.8114 10.0415H21.0059V10H12.0059V14H17.6574C16.8329 16.3285 14.6174 18 12.0059 18C8.69236 18 6.00586 15.3135 6.00586 12C6.00586 8.6865 8.69236 6 12.0059 6C13.5354 6 14.9269 6.577 15.9864 7.5195L18.8149 4.691C17.0289 3.0265 14.6399 2 12.0059 2C6.48336 2 2.00586 6.4775 2.00586 12C2.00586 17.5225 6.48336 22 12.0059 22C17.5284 22 22.0059 17.5225 22.0059 12C22.0059 11.3295 21.9369 10.675 21.8114 10.0415Z" fill="#FFC107"/>
<path d="M3.15869 7.3455L6.44419 9.755C7.33319 7.554 9.48619 6 12.0057 6C13.5352 6 14.9267 6.577 15.9862 7.5195L18.8147 4.691C17.0287 3.0265 14.6397 2 12.0057 2C8.16469 2 4.83369 4.1685 3.15869 7.3455Z" fill="#FF3D00"/>
<path d="M12.006 22.0003C14.589 22.0003 16.936 21.0118 18.7105 19.4043L15.6155 16.7853C14.578 17.5749 13.3098 18.0017 12.006 18.0003C9.40502 18.0003 7.19652 16.3418 6.36452 14.0273L3.10352 16.5398C4.75852 19.7783 8.11952 22.0003 12.006 22.0003Z" fill="#4CAF50"/>
<path d="M21.8114 10.0415H21.0059V10H12.0059V14H17.6574C17.263 15.1082 16.5525 16.0766 15.6139 16.7855L15.6154 16.7845L18.7104 19.4035C18.4914 19.6025 22.0059 17 22.0059 12C22.0059 11.3295 21.9369 10.675 21.8114 10.0415Z" fill="#1976D2"/>
</svg>
