<svg width="24" height="24" viewBox="0 0 24 24" fill="none" xmlns="http://www.w3.org/2000/svg">
<g clip-path="url(#clip0_982_8370)">
<path d="M18.3809 0H5.63086C2.52426 0 0.00585938 2.5184 0.00585938 5.625V18.375C0.00585938 21.4816 2.52426 24 5.63086 24H18.3809C21.4875 24 24.0059 21.4816 24.0059 18.375V5.625C24.0059 2.5184 21.4875 0 18.3809 0Z" fill="url(#paint0_radial_982_8370)"/>
<path d="M18.3809 0H5.63086C2.52426 0 0.00585938 2.5184 0.00585938 5.625V18.375C0.00585938 21.4816 2.52426 24 5.63086 24H18.3809C21.4875 24 24.0059 21.4816 24.0059 18.375V5.625C24.0059 2.5184 21.4875 0 18.3809 0Z" fill="url(#paint1_radial_982_8370)"/>
<path d="M12.0067 2.625C9.46064 2.625 9.14105 2.63616 8.14111 2.68163C7.14305 2.72738 6.46177 2.88534 5.8657 3.11719C5.24902 3.35662 4.72598 3.67697 4.20492 4.19822C3.68339 4.71937 3.36305 5.24241 3.12286 5.85881C2.89036 6.45506 2.7322 7.13662 2.6873 8.13422C2.64258 9.13425 2.63086 9.45394 2.63086 12.0001C2.63086 14.5463 2.64211 14.8648 2.68748 15.8647C2.73342 16.8628 2.89139 17.5441 3.12305 18.1402C3.36267 18.7568 3.68302 19.2799 4.20427 19.8009C4.72523 20.3225 5.24827 20.6436 5.86448 20.883C6.46102 21.1148 7.14239 21.2728 8.14027 21.3186C9.1403 21.364 9.45961 21.3752 12.0056 21.3752C14.5519 21.3752 14.8705 21.364 15.8704 21.3186C16.8685 21.2728 17.5505 21.1148 18.147 20.883C18.7635 20.6436 19.2857 20.3225 19.8066 19.8009C20.3281 19.2799 20.6484 18.7568 20.8887 18.1404C21.1191 17.5441 21.2774 16.8626 21.3242 15.8649C21.3691 14.865 21.3809 14.5463 21.3809 12.0001C21.3809 9.45394 21.3691 9.13444 21.3242 8.13441C21.2774 7.13634 21.1191 6.45516 20.8887 5.85909C20.6484 5.24241 20.3281 4.71937 19.8066 4.19822C19.2852 3.67678 18.7636 3.35644 18.1465 3.11728C17.5488 2.88534 16.8672 2.72728 15.8691 2.68163C14.8691 2.63616 14.5507 2.625 12.0038 2.625H12.0067ZM11.1657 4.31447C11.4153 4.31409 11.6939 4.31447 12.0067 4.31447C14.5099 4.31447 14.8065 4.32347 15.795 4.36838C16.7091 4.41019 17.2052 4.56291 17.5357 4.69125C17.9732 4.86112 18.2851 5.06428 18.6131 5.3925C18.9412 5.72062 19.1443 6.03309 19.3146 6.47062C19.443 6.80062 19.5959 7.29675 19.6375 8.21081C19.6824 9.19913 19.6921 9.49594 19.6921 11.9979C19.6921 14.4999 19.6824 14.7968 19.6375 15.7851C19.5957 16.6991 19.443 17.1952 19.3146 17.5253C19.1447 17.9629 18.9412 18.2744 18.6131 18.6023C18.285 18.9305 17.9734 19.1335 17.5357 19.3035C17.2056 19.4324 16.7091 19.5848 15.795 19.6266C14.8067 19.6715 14.5099 19.6812 12.0067 19.6812C9.50339 19.6812 9.20667 19.6715 8.21845 19.6266C7.30439 19.5844 6.80827 19.4317 6.47752 19.3033C6.04008 19.1333 5.72752 18.9303 5.39939 18.6022C5.07127 18.274 4.8682 17.9623 4.69786 17.5246C4.56952 17.1945 4.41661 16.6984 4.37498 15.7843C4.33008 14.796 4.32108 14.4992 4.32108 11.9956C4.32108 9.492 4.33008 9.19678 4.37498 8.20847C4.4168 7.29441 4.56952 6.79828 4.69786 6.46781C4.86783 6.03028 5.07127 5.71781 5.39948 5.38969C5.7277 5.06156 6.04008 4.85841 6.47761 4.68816C6.80808 4.55925 7.30439 4.40691 8.21845 4.36491C9.0833 4.32581 9.41845 4.31409 11.1657 4.31212V4.31447ZM17.0111 5.87109C16.39 5.87109 15.8861 6.37453 15.8861 6.99572C15.8861 7.61681 16.39 8.12072 17.0111 8.12072C17.6322 8.12072 18.1361 7.61681 18.1361 6.99572C18.1361 6.37463 17.6322 5.87072 17.0111 5.87072V5.87109ZM12.0067 7.18556C9.34795 7.18556 7.19227 9.34125 7.19227 12.0001C7.19227 14.6589 9.34795 16.8136 12.0067 16.8136C14.6655 16.8136 16.8205 14.6589 16.8205 12.0001C16.8205 9.34134 14.6654 7.18556 12.0065 7.18556H12.0067ZM12.0067 8.87503C13.7325 8.87503 15.1318 10.2741 15.1318 12.0001C15.1318 13.7259 13.7325 15.1252 12.0067 15.1252C10.2809 15.1252 8.88173 13.7259 8.88173 12.0001C8.88173 10.2741 10.2808 8.87503 12.0067 8.87503Z" fill="white"/>
</g>
<defs>
<radialGradient id="paint0_radial_982_8370" cx="0" cy="0" r="1" gradientUnits="userSpaceOnUse" gradientTransform="translate(6.38086 25.8485) rotate(-90) scale(23.7858 22.1227)">
<stop stop-color="#FFDD55"/>
<stop offset="0.1" stop-color="#FFDD55"/>
<stop offset="0.5" stop-color="#FF543E"/>
<stop offset="1" stop-color="#C837AB"/>
</radialGradient>
<radialGradient id="paint1_radial_982_8370" cx="0" cy="0" r="1" gradientUnits="userSpaceOnUse" gradientTransform="translate(-4.01423 1.72884) rotate(78.681) scale(10.6324 43.827)">
<stop stop-color="#3771C8"/>
<stop offset="0.128" stop-color="#3771C8"/>
<stop offset="1" stop-color="#6600FF" stop-opacity="0"/>
</radialGradient>
<clipPath id="clip0_982_8370">
<rect width="24" height="24" fill="white" transform="translate(0.00585938)"/>
</clipPath>
</defs>
</svg>
