<svg width="24" height="24" viewBox="0 0 24 24" fill="none" xmlns="http://www.w3.org/2000/svg">
<g clip-path="url(#clip0_982_8375)">
<path d="M21.8779 0.905273H2.136C1.45979 0.905273 0.911621 1.45344 0.911621 2.12965V21.8715C0.911621 22.5477 1.45979 23.0959 2.136 23.0959H21.8779C22.5541 23.0959 23.1022 22.5477 23.1022 21.8715V2.12965C23.1022 1.45344 22.5541 0.905273 21.8779 0.905273Z" fill="#3D5A98"/>
<path d="M16.2208 23.0943V14.5012H19.1046L19.5358 11.1524H16.2208V9.01492C16.2208 8.04555 16.4908 7.38367 17.8802 7.38367H19.6539V4.38367C18.795 4.29432 17.9319 4.25176 17.0683 4.25617C14.5146 4.25617 12.7558 5.81242 12.7558 8.68305V11.1524H9.87207V14.5012H12.7558V23.0943H16.2208Z" fill="white"/>
</g>
<defs>
<clipPath id="clip0_982_8375">
<rect width="24" height="24" fill="white" transform="translate(0.00585938)"/>
</clipPath>
</defs>
</svg>
