<svg width="24" height="24" viewBox="0 0 24 24" fill="none" xmlns="http://www.w3.org/2000/svg">
<path d="M18.3809 0H5.63086C2.52426 0 0.00585938 2.5184 0.00585938 5.625V18.375C0.00585938 21.4816 2.52426 24 5.63086 24H18.3809C21.4875 24 24.0059 21.4816 24.0059 18.375V5.625C24.0059 2.5184 21.4875 0 18.3809 0Z" fill="white"/>
<path d="M18.3809 0H5.63086C2.52426 0 0.00585938 2.5184 0.00585938 5.625V18.375C0.00585938 21.4816 2.52426 24 5.63086 24H18.3809C21.4875 24 24.0059 21.4816 24.0059 18.375V5.625C24.0059 2.5184 21.4875 0 18.3809 0Z" fill="#0A66C2"/>
<path d="M17.3229 20.408H20.067C20.1664 20.408 20.2618 20.3685 20.3321 20.2982C20.4024 20.2279 20.4419 20.1325 20.442 20.0331L20.4434 14.2354C20.4434 11.2051 19.7904 8.87588 16.2492 8.87588C14.903 8.82581 13.6335 9.51975 12.9485 10.6785C12.9452 10.6841 12.9401 10.6885 12.934 10.691C12.9279 10.6934 12.9212 10.6938 12.9149 10.6921C12.9086 10.6904 12.903 10.6867 12.899 10.6815C12.895 10.6763 12.8928 10.67 12.8927 10.6634V9.53063C12.8927 9.43117 12.8532 9.33579 12.7829 9.26546C12.7126 9.19513 12.6172 9.15563 12.5177 9.15563H9.91364C9.81418 9.15563 9.7188 9.19513 9.64848 9.26546C9.57815 9.33579 9.53864 9.43117 9.53864 9.53063V20.0325C9.53864 20.132 9.57815 20.2273 9.64848 20.2977C9.7188 20.368 9.81418 20.4075 9.91364 20.4075H12.6575C12.757 20.4075 12.8524 20.368 12.9227 20.2977C12.993 20.2273 13.0325 20.132 13.0325 20.0325V14.8413C13.0325 13.3734 13.311 11.9519 15.1307 11.9519C16.9246 11.9519 16.9479 13.6315 16.9479 14.9363V20.033C16.9479 20.1324 16.9874 20.2278 17.0577 20.2981C17.1281 20.3685 17.2234 20.408 17.3229 20.408ZM3.56836 5.59012C3.56836 6.70237 4.48402 7.61756 5.59636 7.61756C6.70842 7.61747 7.62352 6.70172 7.62352 5.58966C7.62333 4.47759 6.70814 3.5625 5.59598 3.5625C4.48355 3.5625 3.56836 4.47787 3.56836 5.59012ZM4.22077 20.408H6.9683C7.06775 20.408 7.16314 20.3685 7.23346 20.2981C7.30379 20.2278 7.3433 20.1324 7.3433 20.033V9.53063C7.3433 9.43117 7.30379 9.33579 7.23346 9.26546C7.16314 9.19513 7.06775 9.15563 6.9683 9.15563H4.22077C4.12131 9.15563 4.02593 9.19513 3.9556 9.26546C3.88527 9.33579 3.84577 9.43117 3.84577 9.53063V20.033C3.84577 20.1324 3.88527 20.2278 3.9556 20.2981C4.02593 20.3685 4.12131 20.408 4.22077 20.408Z" fill="white"/>
</svg>
