<svg width="38" height="38" viewBox="0 0 38 38" fill="none" xmlns="http://www.w3.org/2000/svg">
<path fill-rule="evenodd" clip-rule="evenodd" d="M19.9387 36.8258L19.9213 36.829L19.8089 36.8844L19.7772 36.8908L19.755 36.8844L19.6426 36.829C19.6257 36.8237 19.6131 36.8264 19.6046 36.8369L19.5983 36.8528L19.5714 37.5304L19.5793 37.5621L19.5951 37.5827L19.7598 37.6998L19.7835 37.7062L19.8025 37.6998L19.9672 37.5827L19.9862 37.5573L19.9925 37.5304L19.9656 36.8543C19.9614 36.8375 19.9524 36.828 19.9387 36.8258ZM20.3583 36.6469L20.3377 36.6501L20.0448 36.7973L20.0289 36.8132L20.0242 36.8306L20.0527 37.5114L20.0606 37.5304L20.0733 37.5415L20.3915 37.6888C20.4116 37.694 20.4269 37.6898 20.4375 37.6761L20.4438 37.6539L20.39 36.6818C20.3847 36.6628 20.3741 36.6511 20.3583 36.6469ZM19.2262 36.6501C19.2192 36.6459 19.2109 36.6445 19.2029 36.6463C19.195 36.648 19.188 36.6528 19.1835 36.6596L19.1739 36.6818L19.1201 37.6539C19.1212 37.6729 19.1301 37.6856 19.147 37.6919L19.1708 37.6888L19.489 37.5415L19.5049 37.5288L19.5112 37.5114L19.5381 36.8306L19.5334 36.8116L19.5175 36.7958L19.2262 36.6501Z" fill="#FBC165"/>
<path fill-rule="evenodd" clip-rule="evenodd" d="M19 3.16699C22.7793 3.16699 26.4039 4.66833 29.0763 7.34072C31.7487 10.0131 33.25 13.6377 33.25 17.417C33.25 22.2842 30.5963 26.2678 27.8002 29.1257C26.4031 30.5382 24.8788 31.8187 23.2465 32.9511L22.572 33.4102L22.2553 33.6208L21.6584 34.0008L21.1264 34.3254L20.4678 34.7086C20.0207 34.9638 19.5148 35.098 19 35.098C18.4852 35.098 17.9793 34.9638 17.5323 34.7086L16.8736 34.3254L16.0503 33.8187L15.7463 33.6208L15.0971 33.1886C13.3362 31.9972 11.6959 30.6364 10.1998 29.1257C7.40367 26.2662 4.75 22.2842 4.75 17.417C4.75 13.6377 6.25133 10.0131 8.92373 7.34072C11.5961 4.66833 15.2207 3.16699 19 3.16699ZM19 6.33366C16.0605 6.33366 13.2414 7.50136 11.1629 9.57989C9.08437 11.6584 7.91667 14.4775 7.91667 17.417C7.91667 21.0935 9.93067 24.3203 12.4624 26.9107C13.551 28.0126 14.7276 29.0241 15.9806 29.9348L16.7057 30.451C16.9401 30.6146 17.1654 30.7666 17.3818 30.907L17.9993 31.3028L18.5424 31.6337L19 31.9013L19.7204 31.4754L20.3015 31.1112C20.6108 30.9149 20.9417 30.6948 21.2943 30.451L22.0194 29.9348C23.2724 29.0241 24.449 28.0126 25.5376 26.9107C28.0693 24.3219 30.0833 21.0935 30.0833 17.417C30.0833 14.4775 28.9156 11.6584 26.8371 9.57989C24.7586 7.50136 21.9395 6.33366 19 6.33366ZM19 11.0837C20.6797 11.0837 22.2906 11.7509 23.4783 12.9386C24.6661 14.1264 25.3333 15.7373 25.3333 17.417C25.3333 19.0967 24.6661 20.7076 23.4783 21.8953C22.2906 23.0831 20.6797 23.7503 19 23.7503C17.3203 23.7503 15.7094 23.0831 14.5217 21.8953C13.3339 20.7076 12.6667 19.0967 12.6667 17.417C12.6667 15.7373 13.3339 14.1264 14.5217 12.9386C15.7094 11.7509 17.3203 11.0837 19 11.0837ZM19 14.2503C18.1601 14.2503 17.3547 14.584 16.7608 15.1778C16.167 15.7717 15.8333 16.5771 15.8333 17.417C15.8333 18.2568 16.167 19.0623 16.7608 19.6562C17.3547 20.25 18.1601 20.5837 19 20.5837C19.8399 20.5837 20.6453 20.25 21.2392 19.6562C21.833 19.0623 22.1667 18.2568 22.1667 17.417C22.1667 16.5771 21.833 15.7717 21.2392 15.1778C20.6453 14.584 19.8399 14.2503 19 14.2503Z" fill="#FBC165"/>
</svg>
