<svg width="95" height="94" viewBox="0 0 95 94" fill="none" xmlns="http://www.w3.org/2000/svg">
<path d="M3.8501 89.0459H91.1475V91.5865H3.8501V89.0459Z" fill="black"/>
<path d="M65.099 91.5867H37.2282C36.8877 91.5867 36.561 91.4528 36.3204 91.2146C36.0794 90.9762 35.9443 90.6532 35.9443 90.3164V36.9649H38.512V89.0461H64.0746C69.482 65.0518 66.5599 45.4084 55.6017 32.1863C51.0514 26.6742 45.1752 22.3811 38.512 19.7008V31.8839H35.9443V17.9109C35.9443 17.7153 35.99 17.5223 36.0779 17.347C36.1655 17.1717 36.2929 17.0188 36.4505 16.9003C36.6078 16.7817 36.7906 16.7008 36.9846 16.6637C37.1788 16.6266 37.3791 16.6343 37.5696 16.6864C38.0021 16.8045 80.7046 29.2036 66.3493 90.6021C66.2842 90.882 66.125 91.1316 65.8978 91.3105C65.6709 91.4891 65.3893 91.5864 65.099 91.5867Z" fill="black"/>
<path d="M59.8929 85.234H43.6505C43.3098 85.234 42.9834 85.1 42.7427 84.8619C42.5018 84.6235 42.3667 84.3005 42.3667 83.9637V28.0919C42.3667 27.8605 42.4308 27.6336 42.5517 27.4357C42.6725 27.2378 42.8457 27.0762 43.0525 26.9683C43.2594 26.8607 43.4922 26.8109 43.7257 26.8245C43.959 26.838 44.1844 26.9143 44.377 27.0454C53.5189 33.252 67.8549 48.9309 61.1548 84.1987C61.0994 84.4895 60.9432 84.7525 60.7125 84.9415C60.4821 85.1306 60.1921 85.234 59.8929 85.234ZM44.9343 82.6934H58.8223C64.3347 52.0799 53.3688 37.2582 44.9343 30.6121V82.6934Z" fill="black"/>
<path d="M35.9443 3.9375H38.512V17.9105H35.9443V3.9375Z" fill="black"/>
<path d="M43.6499 37.9941H54.4337V40.5348H43.6499V37.9941Z" fill="black"/>
<path d="M43.6499 49.1699H59.4149V51.7103H43.6499V49.1699Z" fill="black"/>
<path d="M43.6499 60.3516H61.4046V62.8922H43.6499V60.3516Z" fill="black"/>
<path d="M28 69H45.742V71.5406H28V69Z" fill="black"/>
<path d="M38.5155 38.2358H26.9616C26.621 38.2358 26.2945 38.1021 26.0538 37.8637C25.813 37.6256 25.6777 37.3026 25.6777 36.9655V31.8846C25.6777 31.5477 25.813 31.2245 26.0538 30.9863C26.2945 30.7482 26.621 30.6143 26.9616 30.6143H38.5155C38.8562 30.6143 39.1826 30.7482 39.4233 30.9863C39.6642 31.2245 39.7993 31.5477 39.7993 31.8846V36.9655C39.7993 37.3026 39.6642 37.6256 39.4233 37.8637C39.1826 38.1021 38.8562 38.2358 38.5155 38.2358ZM28.2452 35.6955H37.2317V33.1549H28.2452V35.6955Z" fill="black"/>
<path d="M37.2299 91.5857H32.0949C31.7542 91.5857 31.4277 91.4517 31.1871 91.2136C30.9461 90.9752 30.811 90.6522 30.811 90.3154V36.9639H33.3787V89.0451H35.946V36.9639H38.5137V90.3154C38.5137 90.6522 38.3783 90.9752 38.1376 91.2136C37.897 91.4517 37.5703 91.5857 37.2299 91.5857Z" fill="black"/>
<path d="M38.5137 31.8842H35.946V26.8285H33.3784V31.8842H30.811V25.5583C30.811 25.2215 30.9461 24.8984 31.1868 24.6601C31.4277 24.4219 31.7542 24.2881 32.0946 24.2881H37.2299C37.5703 24.2881 37.897 24.4219 38.1376 24.6601C38.3783 24.8984 38.5137 25.2215 38.5137 25.5583V31.8842Z" fill="black"/>
<path d="M87.2972 31.8844H69.3242C67.9623 31.8844 66.6561 31.3491 65.6931 30.396C64.7302 29.4432 64.189 28.151 64.189 26.8034C64.189 25.4557 64.7302 24.1633 65.6931 23.2104C66.6561 22.2575 67.9623 21.7222 69.3242 21.7222H70.6081C70.6081 19.7008 71.4195 17.7623 72.864 16.3329C74.3086 14.9036 76.2677 14.1006 78.3107 14.1006C80.3535 14.1006 82.3129 14.9036 83.7574 16.3329C85.2019 17.7623 86.0134 19.7008 86.0134 21.7222H87.2972C88.6591 21.7222 89.9654 22.2575 90.9283 23.2104C91.8912 24.1633 92.4322 25.4557 92.4322 26.8034C92.4322 28.151 91.8912 29.4432 90.9283 30.396C89.9654 31.3491 88.6591 31.8844 87.2972 31.8844ZM69.3242 24.2627C68.6431 24.2627 67.9903 24.5304 67.5087 25.0069C67.0271 25.4833 66.7566 26.1295 66.7566 26.8034C66.7566 27.4771 67.0271 28.1233 67.5087 28.5999C67.9903 29.0761 68.6431 29.3438 69.3242 29.3438H87.2972C87.978 29.3438 88.6311 29.0761 89.1127 28.5999C89.5943 28.1233 89.8648 27.4771 89.8648 26.8034C89.8648 26.1295 89.5943 25.4833 89.1127 25.0069C88.6311 24.5304 87.978 24.2627 87.2972 24.2627H84.6013C84.4108 24.2628 84.2229 24.2209 84.0508 24.1402C83.8788 24.0595 83.727 23.9419 83.6067 23.796C83.4861 23.65 83.4001 23.4795 83.3544 23.2966C83.309 23.1136 83.3051 22.923 83.3431 22.7384C83.4956 22.0001 83.4803 21.2375 83.2979 20.5058C83.1159 19.7741 82.7715 19.0917 82.2899 18.508C81.8083 17.9242 81.2016 17.4537 80.5137 17.1307C79.8257 16.8076 79.0736 16.64 78.312 16.64C77.5505 16.64 76.7984 16.8076 76.1104 17.1307C75.4224 17.4537 74.8155 17.9242 74.3339 18.508C73.8523 19.0917 73.5079 19.7741 73.3259 20.5058C73.1438 21.2375 73.1285 22.0001 73.2807 22.7384C73.319 22.923 73.315 23.1136 73.2694 23.2966C73.224 23.4795 73.1377 23.65 73.0174 23.796C72.8968 23.9419 72.7453 24.0595 72.5732 24.1402C72.4012 24.2209 72.213 24.2628 72.0228 24.2627H69.3242Z" fill="#FBC165"/>
<path d="M25.675 20.4508H7.70202C6.34012 20.4508 5.03398 19.9155 4.07094 18.9626C3.10793 18.0097 2.56689 16.7173 2.56689 15.3697C2.56689 14.0221 3.10793 12.7297 4.07094 11.7768C5.03398 10.8239 6.34012 10.2886 7.70202 10.2886H8.98582C8.98582 8.26725 9.79735 6.32866 11.2419 4.89934C12.6864 3.46999 14.6456 2.66699 16.6885 2.66699C18.7314 2.66699 20.6906 3.46999 22.1352 4.89934C23.5797 6.32866 24.3912 8.26725 24.3912 10.2886H25.675C27.0369 10.2886 28.3431 10.8239 29.3061 11.7768C30.269 12.7297 30.8102 14.0221 30.8102 15.3697C30.8102 16.7173 30.269 18.0097 29.3061 18.9626C28.3431 19.9155 27.0369 20.4508 25.675 20.4508ZM7.70202 12.8292C7.02106 12.8292 6.36799 13.0968 5.88649 13.5733C5.40498 14.0497 5.13446 14.6959 5.13446 15.3697C5.13446 16.0435 5.40498 16.6897 5.88649 17.1661C6.36799 17.6426 7.02106 17.9102 7.70202 17.9102H25.675C26.356 17.9102 27.0089 17.6426 27.4905 17.1661C27.9721 16.6897 28.2426 16.0435 28.2426 15.3697C28.2426 14.6959 27.9721 14.0497 27.4905 13.5733C27.0089 13.0968 26.356 12.8292 25.675 12.8292H22.9791C22.7887 12.8292 22.6007 12.7873 22.4286 12.7066C22.2566 12.6259 22.1049 12.5083 21.9845 12.3624C21.864 12.2165 21.7779 12.0459 21.7323 11.863C21.6868 11.6801 21.6829 11.4894 21.721 11.3048C21.8734 10.5665 21.8581 9.80394 21.6759 9.07226C21.4938 8.34057 21.1494 7.65813 20.6678 7.07436C20.1862 6.49062 19.5795 6.02015 18.8914 5.69708C18.2034 5.37401 17.4514 5.2064 16.6898 5.2064C15.9282 5.2064 15.1762 5.37401 14.4882 5.69708C13.8002 6.02015 13.1934 6.49062 12.7118 7.07436C12.2302 7.65813 11.8859 8.34057 11.7037 9.07226C11.5216 9.80394 11.5062 10.5665 11.6586 11.3048C11.6967 11.4894 11.6928 11.6801 11.6473 11.863C11.6017 12.0459 11.5156 12.2165 11.3951 12.3624C11.2747 12.5083 11.123 12.6259 10.951 12.7066C10.7789 12.7873 10.5909 12.8292 10.4006 12.8292H7.70202Z" fill="#FBC165"/>
</svg>
