<svg width="84" height="84" viewBox="0 0 84 84" fill="none" xmlns="http://www.w3.org/2000/svg">
<g clip-path="url(#clip0_949_8440)">
<mask id="mask0_949_8440" style="mask-type:luminance" maskUnits="userSpaceOnUse" x="0" y="0" width="84" height="84">
<path d="M84 0H0V84H84V0Z" fill="white"/>
</mask>
<g mask="url(#mask0_949_8440)">
<path d="M82.6875 30.1875V27.5625C82.6875 27.2143 82.5492 26.8805 82.3032 26.6344L80.0625 24.394V23.8381C80.0625 21.117 78.5142 18.677 76.125 17.4987V14.4375H73.5V17.4991C72.8556 17.8174 72.2673 18.2303 71.7528 18.7212C71.5185 18.5061 71.2077 18.377 70.872 18.3752C70.7934 15.7403 69.2643 13.396 66.9375 12.2487V9.1875H64.3125V12.2486C61.9857 13.396 60.4566 15.7402 60.378 18.375L60.375 14.4375C60.375 13.7127 59.7873 13.125 59.0625 13.125H57.6405C57.3381 11.3296 56.4258 9.7386 55.125 8.57292V3.9375H52.5V7.01253C51.7764 6.75594 51.0048 6.60219 50.2023 6.56922C48.4902 4.43001 46.0131 3.04827 43.3125 2.70752V0H40.6875V2.70752C37.9869 3.04827 35.5098 4.43001 33.7977 6.56922C33.4635 6.58302 33.1347 6.61779 32.8125 6.67209V3.9375H30.1875V7.61955C28.1969 8.77374 26.7555 10.7741 26.3594 13.125H24.9375C24.2127 13.125 23.625 13.7127 23.625 14.4375V18.375H23.6219C23.5435 15.7402 22.0142 13.396 19.6875 12.2486V9.1875H17.0625V12.2486C14.7358 13.396 13.2065 15.7402 13.1281 18.375C12.7923 18.3768 12.4814 18.5061 12.2473 18.721C11.7328 18.2301 11.1444 17.8172 10.5 17.4989V14.4375H7.875V17.4986C5.48577 18.6769 3.9375 21.117 3.9375 23.8379V24.3938L1.6969 26.6344C1.45081 26.8805 1.3125 27.2143 1.3125 27.5625V30.1875C0.587673 30.1875 0 30.7752 0 31.5V82.6875C0 83.4123 0.587673 84 1.3125 84H82.6875C83.4123 84 84 83.4123 84 82.6875V31.5C84 30.7752 83.4123 30.1875 82.6875 30.1875ZM78.2064 26.25L80.0625 28.106V30.1875H74.5761L73.7886 26.25H78.2064ZM74.8128 19.7818C76.3353 20.4638 77.3526 21.9452 77.4324 23.625H73.0896L72.6837 21.7964C73.1457 20.9026 73.8963 20.193 74.8128 19.7818ZM65.625 14.5318C67.1478 15.2138 68.1651 16.6952 68.2449 18.375H63.0051C63.0849 16.695 64.1022 15.2137 65.625 14.5318ZM69.8115 21L71.8497 30.1875H60.3792L60.3756 21H69.8115ZM26.25 15.75H27.5625C28.2873 15.75 28.875 15.1623 28.875 14.4375C28.875 11.5426 31.23 9.1875 34.125 9.1875C34.2135 9.1875 34.3014 9.18981 34.389 9.19407C34.8432 9.21588 35.2725 9.00441 35.5308 8.63298C37.005 6.51459 39.4233 5.25 42 5.25C44.5767 5.25 46.995 6.51459 48.4692 8.63298C48.7278 9.00441 49.1595 9.2154 49.611 9.19407C49.6986 9.18981 49.7865 9.1875 49.875 9.1875C52.77 9.1875 55.125 11.5426 55.125 14.4375C55.125 15.1623 55.7127 15.75 56.4375 15.75H57.75V19.7205C56.8743 18.7331 55.803 17.9028 54.5709 17.2868L54.3996 17.2011C54.03 17.0164 53.595 17.0164 53.2257 17.2011L53.0544 17.2868C51.822 17.903 50.7504 18.7335 49.8747 19.7208C49.8474 15.1607 47.1009 11.1269 42.8622 9.43131L42.4878 9.28134C42.1746 9.15615 41.8257 9.15615 41.5125 9.28134L41.1381 9.43131C36.8994 11.1269 34.1529 15.1607 34.1256 19.7208C33.2499 18.7333 32.1783 17.9028 30.9459 17.2868L30.7746 17.2011C30.4053 17.0164 29.9703 17.0164 29.6008 17.2011L29.4295 17.2868C28.1974 17.9028 27.1258 18.7331 26.2503 19.7205L26.25 15.75ZM57.75 26.6782V30.1875H49.875V26.6782C49.875 23.8343 51.372 21.2624 53.8125 19.8578C56.253 21.2624 57.75 23.8342 57.75 26.6782ZM47.25 19.7896V30.1875H36.75V19.7896C36.75 16.3214 38.8065 13.2438 42 11.9146C45.1935 13.2438 47.25 16.3214 47.25 19.7896ZM26.25 26.6782C26.25 23.8343 27.7471 21.2624 30.1875 19.8578C32.628 21.2624 34.125 23.8342 34.125 26.6782V30.1875H26.25V26.6782ZM18.375 14.5318C19.8976 15.2138 20.9152 16.6952 20.9949 18.375H15.7551C15.8348 16.695 16.8524 15.2137 18.375 14.5318ZM14.1886 21H23.6245L23.6209 30.1875H12.1503L14.1886 21ZM9.18735 19.7818C10.1038 20.193 10.8542 20.9026 11.3162 21.7964L10.9105 23.625H6.5676C6.64731 21.9452 7.66467 20.4638 9.18735 19.7818ZM3.9375 28.106L5.79354 26.25H10.2114L9.4239 30.1875H3.9375V28.106ZM2.625 38.0625H5.25V49.875H2.625V38.0625ZM2.625 52.5H35.5677C34.8042 53.2476 34.1667 54.1323 33.6966 55.125H2.625V52.5ZM7.875 49.875V38.0625H12.1488C11.0928 39.4236 10.5 41.1126 10.5 42.8871V49.875H7.875ZM21 44.625V42.8871C21 41.1123 20.4072 39.4236 19.3512 38.0625H23.625V49.875H21V47.25H18.375V49.875H13.125V42.8871C13.125 41.1276 13.999 39.4947 15.4629 38.5188L15.75 38.3274L16.0371 38.5188C17.5009 39.4947 18.375 41.1279 18.375 42.8871V44.625H21ZM26.25 49.875V38.0625H28.875V49.875H26.25ZM31.5 49.875V38.0625H38.3988C37.3428 39.4236 36.75 41.1126 36.75 42.8871V49.875H31.5ZM28.875 81.375H2.625V78.75H28.875V81.375ZM6.5625 76.125V67.8246C6.5625 66.0651 7.43646 64.4322 8.9004 63.4563L9.1875 63.2649L9.4746 63.4563C10.9385 64.4322 11.8125 66.0654 11.8125 67.8246V76.125H6.5625ZM19.6875 76.125V67.8246C19.6875 66.0651 20.5615 64.4322 22.0254 63.4563L22.3125 63.2649L22.5996 63.4563C24.0634 64.4322 24.9375 66.0654 24.9375 67.8246V76.125H19.6875ZM28.875 61.6875V76.125H27.5625V67.8246C27.5625 65.1855 26.2516 62.736 24.0556 61.2723L23.0405 60.5955C22.5996 60.3015 22.0252 60.3015 21.5844 60.5955L20.5692 61.2723C18.3734 62.7363 17.0625 65.1855 17.0625 67.8246V76.125H14.4375V67.8246C14.4375 65.1855 13.1266 62.736 10.9306 61.2723L9.91545 60.5955C9.4746 60.3015 8.90022 60.3015 8.4594 60.5955L7.44417 61.2723C5.24835 62.7363 3.9375 65.1855 3.9375 67.8246V76.125H2.625V57.75H30.18C29.3557 58.8519 28.875 60.2184 28.875 61.6875ZM52.5 81.375H49.875V65.6301C49.875 62.7237 48.5733 60.0153 46.3038 58.1994L42.8199 55.4124C42.3405 55.029 41.6595 55.029 41.1801 55.4124L37.6962 58.1994C35.4267 60.0153 34.125 62.7237 34.125 65.6301V69.5625H36.75V65.6301C36.75 63.5253 37.6926 61.5642 39.336 60.2496L42 58.1184L44.664 60.2496C46.3074 61.5642 47.25 63.5256 47.25 65.6301V81.375H36.75V72.1875H34.125V81.375H31.5V61.6875C31.5 59.7624 32.8743 58.1301 34.7682 57.8067C35.2419 57.7257 35.6334 57.3924 35.7888 56.9376C35.796 56.9169 35.8032 56.8962 35.8104 56.8755C36.7281 54.2793 39.1839 52.5276 41.9343 52.5003C41.9562 52.5003 41.9781 52.5 42 52.5C42.0219 52.5 42.0438 52.5003 42.0657 52.5003C44.8164 52.5276 47.2716 54.2787 48.1893 56.8749C48.1965 56.8956 48.204 56.9166 48.2109 56.9376C48.3663 57.3921 48.7578 57.7257 49.2318 57.8067C51.1257 58.1301 52.5 59.7624 52.5 61.6875V81.375ZM39.375 49.875V42.8871C39.375 41.1276 40.2489 39.4947 41.7129 38.5188L42 38.3274L42.2871 38.5188C43.7508 39.4947 44.625 41.1279 44.625 42.8871V49.875H39.375ZM45.6012 38.0625H52.5V49.875H47.25V42.8871C47.25 41.1126 46.6572 39.4236 45.6012 38.0625ZM81.375 81.375H55.125V78.75H81.375V81.375ZM59.0625 76.125V67.8246C59.0625 66.0651 59.9364 64.4322 61.4004 63.4563L61.6875 63.2649L61.9746 63.4563C63.4383 64.4322 64.3125 66.0654 64.3125 67.8246V76.125H59.0625ZM72.1875 76.125V67.8246C72.1875 66.0651 73.0614 64.4322 74.5254 63.4563L74.8125 63.2649L75.0996 63.4563C76.5633 64.4322 77.4375 66.0654 77.4375 67.8246V76.125H72.1875ZM81.375 55.125H70.875V57.75H81.375V76.125H80.0625V67.8246C80.0625 65.1855 78.7515 62.736 76.5558 61.2723L75.5403 60.5955C75.0996 60.3015 74.5251 60.3015 74.0844 60.5955L73.0692 61.2723C70.8735 62.7363 69.5625 65.1855 69.5625 67.8246V76.125H66.9375V67.8246C66.9375 65.1855 65.6265 62.736 63.4308 61.2723L62.4153 60.5955C61.9746 60.3015 61.4001 60.3015 60.9594 60.5955L59.9442 61.2723C57.7485 62.7363 56.4375 65.1855 56.4375 67.8246V76.125H55.125V61.6875C55.125 60.2184 54.6444 58.8519 53.82 57.75H68.25V55.125H50.3034C49.8333 54.1323 49.1958 53.2476 48.4326 52.5H81.375V55.125ZM55.125 49.875V38.0625H57.75V49.875H55.125ZM60.375 49.875V38.0625H64.6488C63.5928 39.4236 63 41.1126 63 42.8871V49.875H60.375ZM65.625 49.875V42.8871C65.625 41.1276 66.4989 39.4947 67.9629 38.5188L68.25 38.3274L68.5371 38.5188C70.0008 39.4947 70.875 41.1279 70.875 42.8871V49.875H65.625ZM71.8512 38.0625H76.125V49.875H73.5V42.8871C73.5 41.1126 72.9072 39.4236 71.8512 38.0625ZM81.375 49.875H78.75V38.0625H81.375V49.875ZM81.375 35.4375H2.625V32.8125H81.375V35.4375Z" fill="#111111"/>
<path d="M31.5 13.125H32.8125V15.75H31.5V13.125Z" fill="#FFBC41"/>
<path d="M51.1875 13.125H52.5V15.75H51.1875V13.125Z" fill="#FFBC41"/>
<path d="M17.0625 23.625H19.6875V27.5625H17.0625V23.625Z" fill="#FFBC41"/>
<path d="M64.3125 23.625H66.9375V27.5625H64.3125V23.625Z" fill="#FFBC41"/>
</g>
</g>
<defs>
<clipPath id="clip0_949_8440">
<rect width="84" height="84" fill="white"/>
</clipPath>
</defs>
</svg>
