<svg width="131" height="69" viewBox="0 0 131 69" fill="none" xmlns="http://www.w3.org/2000/svg">
<g clip-path="url(#clip0_258_19726)">
<g filter="url(#filter0_d_258_19726)">
<path d="M121.236 0.5H9.76409C5.27034 0.5 1.62744 4.14606 1.62744 8.64371V57.0988C1.62744 61.5965 5.27034 65.2425 9.76409 65.2425H121.236C125.73 65.2425 129.373 61.5965 129.373 57.0988V8.64371C129.373 4.14606 125.73 0.5 121.236 0.5Z" fill="#091468"/>
</g>
<path d="M55.9756 22.3258L48.8646 41.3069H46.5586L44.4443 33.8891L46.3662 33.6709L47.9036 38.9072L50.5944 30.6165L47.7116 22.3258H49.8255L51.9398 28.4347L53.8617 22.3258H55.9756Z" fill="white"/>
<path d="M60.2765 31.6815L59.8188 18.4355L74.9782 18.4543L60.6642 32.1198" fill="#F9BF77"/>
<path d="M67.8389 31.6815L67.3809 18.4355L82.5407 18.4544L68.2267 32.1198" fill="#F9BF77"/>
<path d="M28.478 30.8571L30.2222 19.4683H34.162C34.9691 19.4683 35.6223 19.6314 36.1217 19.9577C36.621 20.2802 36.9681 20.7269 37.163 21.2978C37.358 21.8651 37.399 22.512 37.2861 23.2386C37.1767 23.9689 36.9356 24.6178 36.5628 25.185C36.1935 25.7522 35.7061 26.1989 35.1008 26.5251C34.4955 26.8477 33.7875 27.009 32.977 27.009H30.3659L30.6275 25.3129H32.9821C33.4541 25.3129 33.8542 25.2239 34.1825 25.0459C34.5143 24.868 34.7759 24.6233 34.9674 24.3119C35.1589 24.0005 35.2855 23.6427 35.347 23.2386C35.4052 22.8345 35.3864 22.4786 35.2906 22.1709C35.1949 21.8632 35.0085 21.6241 34.7314 21.4536C34.4579 21.2793 34.0834 21.1922 33.608 21.1922H31.8638L30.3812 30.8571H28.478Z" fill="#FCFCFC"/>
<path d="M37.4272 26.5667C37.5819 25.7305 37.886 24.9888 38.3396 24.3417C38.8035 23.6946 39.3653 23.1969 40.025 22.8484C40.6849 22.5 41.3806 22.3258 42.1125 22.3258C42.7516 22.3258 43.2878 22.4502 43.7207 22.6991C44.1641 22.948 44.4888 23.2616 44.695 23.6399L44.9115 22.4602H47.0917L45.5762 30.733H43.396L43.6279 29.5234C43.2878 29.9117 42.8444 30.2352 42.298 30.4941C41.7622 30.7429 41.1743 30.8674 40.5353 30.8674C39.9065 30.8674 39.3498 30.733 38.8653 30.4642C38.3808 30.1854 38.0045 29.7972 37.7365 29.2994C37.4685 28.7917 37.3345 28.2043 37.3345 27.5373C37.3345 27.2287 37.3654 26.9052 37.4272 26.5667ZM44.1536 26.5966C44.195 26.3378 44.2154 26.1486 44.2154 26.0291C44.2154 25.4418 44.0352 24.9838 43.6743 24.6553C43.324 24.3268 42.8806 24.1625 42.3444 24.1625C41.9424 24.1625 41.5506 24.2571 41.1694 24.4463C40.798 24.6354 40.4735 24.9142 40.1951 25.2825C39.9168 25.6409 39.7312 26.0689 39.6384 26.5667C39.6075 26.7559 39.5921 26.9351 39.5921 27.1043C39.5921 27.7016 39.7673 28.1745 40.1178 28.5229C40.4683 28.8614 40.9115 29.0306 41.4477 29.0306C41.8497 29.0306 42.2414 28.9361 42.6226 28.7469C43.0042 28.5478 43.3289 28.2641 43.597 27.8957C43.8753 27.5274 44.0608 27.0944 44.1536 26.5966Z" fill="#FCFCFC"/>
<path d="M56.4189 33.5545C57.4477 33.5545 58.2634 33.8535 58.8651 34.4516C59.4672 35.0396 59.7679 35.8353 59.7679 36.8389C59.7679 37.1632 59.7439 37.4521 59.6951 37.7056C59.6369 38.0096 59.5738 38.2732 59.5059 38.4962H53.6085C53.5987 38.5672 53.5938 38.6686 53.5938 38.8003C53.5938 39.3275 53.7395 39.7431 54.0308 40.0472C54.3314 40.3411 54.7248 40.4881 55.2102 40.4881C55.6178 40.4881 55.9673 40.3969 56.2586 40.2144C56.5596 40.0218 56.8021 39.7735 56.9868 39.4694H59.1857C58.8265 40.2803 58.2683 40.9494 57.5108 41.4763C56.7634 41.9934 55.914 42.252 54.9624 42.252C53.9335 42.252 53.1085 41.9478 52.4868 41.3395C51.8656 40.7314 51.5552 39.9053 51.5552 38.8612C51.5552 38.5571 51.5841 38.2378 51.6422 37.9032C51.7879 37.0315 52.0841 36.2661 52.5308 35.6072C52.9868 34.9483 53.5499 34.4415 54.2199 34.0867C54.8896 33.7319 55.6227 33.5545 56.4189 33.5545ZM57.6711 37.2038C57.6906 37.0416 57.7004 36.925 57.7004 36.8541C57.7004 36.3675 57.5499 35.9874 57.2488 35.7136C56.9477 35.4399 56.5547 35.3031 56.0694 35.3031C55.5547 35.3031 55.0938 35.4754 54.6858 35.8201C54.2781 36.1546 53.9917 36.6158 53.8265 37.2038H57.6711Z" fill="#FCFCFC"/>
<path d="M66.3379 33.5697C67.1727 33.5697 67.8281 33.8079 68.3037 34.2844C68.789 34.7507 69.0319 35.4197 69.0319 36.2915C69.0319 36.6159 69.0075 36.9098 68.9591 37.1734L68.1145 42.1152H66.0905L66.8765 37.4623C66.9058 37.2798 66.9205 37.1024 66.9205 36.9301C66.9205 36.4233 66.7894 36.038 66.527 35.7745C66.2748 35.5109 65.9107 35.3792 65.4351 35.3792C64.8916 35.3792 64.4253 35.5515 64.0372 35.8961C63.6585 36.2307 63.4062 36.7172 63.2797 37.3558L62.4791 42.1152H60.4258L61.8529 33.6914H63.9062L63.7313 34.7253C64.0612 34.3705 64.4546 34.0918 64.9107 33.889C65.3672 33.6761 65.8428 33.5697 66.3379 33.5697Z" fill="#FCFCFC"/>
<path d="M70.257 37.8728C70.4026 37.0213 70.689 36.2661 71.1162 35.6072C71.5531 34.9483 72.0824 34.4415 72.7037 34.0867C73.3347 33.7319 73.9945 33.5545 74.6841 33.5545C75.2081 33.5545 75.6886 33.6761 76.1255 33.9194C76.5625 34.1526 76.8875 34.4668 77.1011 34.8621L77.7858 30.8632H79.8391L77.9315 42.1152H75.8782L76.0967 40.8682C75.7761 41.2837 75.3635 41.6184 74.8587 41.8717C74.3635 42.1253 73.8151 42.252 73.213 42.252C72.6211 42.252 72.0918 42.1152 71.626 41.8415C71.1695 41.5577 70.8107 41.1622 70.5483 40.6554C70.296 40.1384 70.1699 39.5403 70.1699 38.8611C70.1699 38.5469 70.1988 38.2175 70.257 37.8728ZM76.5918 37.9032C76.6304 37.6397 76.6499 37.4471 76.6499 37.3254C76.6499 36.7273 76.4799 36.261 76.1402 35.9265C75.8102 35.592 75.3928 35.4247 74.888 35.4247C74.5092 35.4247 74.1402 35.521 73.781 35.7136C73.4315 35.9062 73.126 36.1901 72.8636 36.5651C72.6016 36.9301 72.427 37.366 72.3396 37.8728C72.3103 38.0654 72.2956 38.2479 72.2956 38.4202C72.2956 39.0284 72.4608 39.5099 72.7907 39.8647C73.1211 40.2093 73.5385 40.3817 74.0434 40.3817C74.4217 40.3817 74.7907 40.2854 75.15 40.0928C75.5092 39.89 75.8151 39.6011 76.0674 39.2261C76.3294 38.851 76.5043 38.4101 76.5918 37.9032Z" fill="#FCFCFC"/>
<path d="M83.5342 42.252C82.845 42.252 82.2331 42.105 81.6993 41.811C81.1749 41.517 80.7673 41.1014 80.476 40.5642C80.1847 40.0269 80.0391 39.4085 80.0391 38.7091C80.0391 37.7562 80.2526 36.8895 80.6798 36.109C81.1168 35.3183 81.7091 34.6949 82.4565 34.2387C83.2136 33.7826 84.0533 33.5545 84.9756 33.5545C85.6651 33.5545 86.2766 33.7065 86.8104 34.0106C87.3543 34.3046 87.7717 34.7202 88.063 35.2575C88.3637 35.7948 88.5142 36.4131 88.5142 37.1125C88.5142 38.0755 88.2957 38.9473 87.8592 39.7278C87.4223 40.5084 86.8201 41.1267 86.0533 41.583C85.2962 42.0288 84.4564 42.252 83.5342 42.252ZM83.8108 40.4273C84.2962 40.4273 84.738 40.2803 85.1359 39.9863C85.5337 39.6924 85.8446 39.3021 86.0679 38.8155C86.2913 38.329 86.4027 37.817 86.4027 37.2798C86.4027 36.6716 86.2376 36.2053 85.9076 35.8809C85.5874 35.5464 85.1794 35.3791 84.6843 35.3791C84.1892 35.3791 83.7477 35.5261 83.3592 35.8201C82.9809 36.1141 82.6847 36.5094 82.4711 37.0061C82.2575 37.4927 82.1505 38.0096 82.1505 38.5571C82.1505 39.1551 82.3011 39.6164 82.6021 39.9407C82.9129 40.2651 83.3157 40.4273 83.8108 40.4273Z" fill="#FCFCFC"/>
<path d="M92.4416 35.1815C92.7911 34.6746 93.1987 34.2793 93.6645 33.9955C94.1308 33.7116 94.6356 33.5697 95.1792 33.5697L94.8004 35.8049H94.2618C93.6597 35.8049 93.1743 35.9417 92.8057 36.2154C92.4465 36.4891 92.1841 36.9554 92.0193 37.6143L91.2618 42.1152H89.2085L90.6357 33.6914H92.6889L92.4416 35.1815Z" fill="#FCFCFC"/>
<path d="M98.2561 42.252C97.6637 42.252 97.1251 42.1506 96.6397 41.9478C96.1641 41.7349 95.7854 41.4462 95.5038 41.0811C95.2321 40.7061 95.0962 40.2803 95.0962 39.8039C95.0962 39.7329 95.106 39.6164 95.1251 39.4542H97.1055C97.0766 39.809 97.1784 40.0979 97.4115 40.3209C97.6446 40.5337 97.9745 40.6402 98.4017 40.6402C98.7898 40.6402 99.1104 40.5692 99.3626 40.4273C99.625 40.2753 99.756 40.0573 99.756 39.7734C99.756 39.5201 99.6344 39.3173 99.3919 39.1653C99.1588 39.0132 98.7853 38.8409 98.2707 38.6483C97.7561 38.4557 97.3289 38.2681 96.9892 38.0857C96.6495 37.9032 96.3582 37.6498 96.1153 37.3254C95.8728 37.001 95.7512 36.5905 95.7512 36.0938C95.7512 35.5971 95.8875 35.1561 96.1592 34.7709C96.4408 34.3857 96.8289 34.0867 97.324 33.8738C97.8191 33.6609 98.3871 33.5545 99.0278 33.5545C99.6393 33.5545 100.178 33.6609 100.644 33.8738C101.11 34.0867 101.47 34.3857 101.722 34.7709C101.984 35.146 102.115 35.5768 102.115 36.0634C102.115 36.185 102.11 36.2763 102.101 36.337H100.207C100.237 35.9823 100.139 35.6985 99.9163 35.4856C99.693 35.2727 99.3675 35.1663 98.9404 35.1663C98.5909 35.1663 98.3045 35.2473 98.0811 35.4096C97.8582 35.5616 97.7463 35.7694 97.7463 36.033C97.7463 36.2965 97.8724 36.5145 98.1251 36.6868C98.3773 36.849 98.7658 37.0315 99.2898 37.2342C99.8142 37.4471 100.232 37.6447 100.542 37.8272C100.863 37.9995 101.139 38.2428 101.372 38.5571C101.606 38.8612 101.722 39.2463 101.722 39.7127C101.722 40.2296 101.571 40.6807 101.27 41.0659C100.97 41.4511 100.557 41.745 100.033 41.9478C99.5083 42.1506 98.9163 42.252 98.2561 42.252Z" fill="#FCFCFC"/>
<path d="M65.8403 47.3797H64.7216L64.5369 47.9094H63.9453L64.9551 45.1259H65.6109L66.6206 47.9094H66.0254L65.8403 47.3797ZM65.6874 46.9338L65.2809 45.7709L64.8745 46.9338H65.6874Z" fill="#FCFCFC"/>
<path d="M67.5615 47.4672H68.487V47.9095H66.998V45.13H67.5615V47.4672Z" fill="#FCFCFC"/>
<path d="M72.5988 45.13L71.814 47.9095H71.1505L70.6232 45.9301L70.0719 47.9095L69.4121 47.9135L68.6558 45.13H69.2591L69.7542 47.2881L70.3254 45.13H70.9531L71.4922 47.2763L71.991 45.13H72.5988Z" fill="#FCFCFC"/>
<path d="M74.6885 47.3797H73.5697L73.3846 47.9094H72.7935L73.8032 45.1259H74.459L75.4688 47.9094H74.8736L74.6885 47.3797ZM74.5355 46.9338L74.1291 45.7709L73.7227 46.9338H74.5355Z" fill="#FCFCFC"/>
<path d="M78.0795 45.13L77.13 46.9416V47.9095H76.5669V46.9416L75.6133 45.13H76.2488L76.8525 46.4L77.4518 45.13H78.0795Z" fill="#FCFCFC"/>
<path d="M79.3744 47.9371C79.1787 47.9371 79.0018 47.9041 78.8435 47.8378C78.6877 47.7714 78.5644 47.6757 78.4733 47.5511C78.3822 47.4261 78.335 47.2787 78.3325 47.1089H78.9358C78.944 47.2229 78.9843 47.3133 79.0567 47.3797C79.1315 47.4461 79.2336 47.4795 79.3622 47.4795C79.494 47.4795 79.597 47.4489 79.6722 47.3878C79.7475 47.3239 79.7849 47.2417 79.7849 47.1407C79.7849 47.0584 79.7593 46.9908 79.7084 46.9379C79.6576 46.8846 79.5929 46.8434 79.5152 46.8141C79.4403 46.7823 79.3358 46.7477 79.2015 46.7107C79.0192 46.6578 78.8703 46.606 78.7548 46.5555C78.6421 46.5022 78.5445 46.424 78.4611 46.3206C78.3805 46.2143 78.3402 46.0734 78.3402 45.8983C78.3402 45.7338 78.3821 45.5905 78.4651 45.4684C78.5481 45.3462 78.6649 45.2534 78.815 45.1894C78.9655 45.1231 79.1372 45.0901 79.3301 45.0901C79.6197 45.0901 79.8545 45.1605 80.0343 45.301C80.2166 45.439 80.3174 45.6329 80.3362 45.8825H79.7166C79.7113 45.7868 79.6694 45.7086 79.5917 45.6475C79.5168 45.5836 79.4159 45.5518 79.2898 45.5518C79.1799 45.5518 79.0917 45.5799 79.0245 45.6357C78.9599 45.6915 78.9277 45.7721 78.9277 45.8784C78.9277 45.9529 78.9521 46.0152 79.0001 46.0657C79.0514 46.1133 79.1128 46.1532 79.1852 46.185C79.2605 46.2143 79.3651 46.2489 79.4993 46.2884C79.6816 46.3418 79.8305 46.3947 79.9456 46.4481C80.0611 46.501 80.1604 46.5808 80.2434 46.6867C80.3268 46.7929 80.3683 46.9322 80.3683 47.1048C80.3683 47.2535 80.3293 47.3915 80.2515 47.5189C80.1738 47.6464 80.0599 47.7486 79.9094 47.8256C79.7593 47.9001 79.5811 47.9371 79.3744 47.9371Z" fill="#FCFCFC"/>
<path d="M85.569 45.13L84.7846 47.9095H84.1207L83.5934 45.9301L83.0422 47.9095L82.3823 47.9135L81.626 45.13H82.2297L82.7244 47.2881L83.2956 45.13H83.9234L84.4624 47.2763L84.9616 45.13H85.569Z" fill="#FCFCFC"/>
<path d="M86.5005 45.13V47.9095H85.937V45.13H86.5005Z" fill="#FCFCFC"/>
<path d="M88.9675 45.13V45.5799H88.2193V47.9095H87.6559V45.5799H86.9077V45.13H88.9675Z" fill="#FCFCFC"/>
<path d="M91.7084 45.13V47.9095H91.145V46.7266H89.942V47.9095H89.3789V45.13H89.942V46.2726H91.145V45.13H91.7084Z" fill="#FCFCFC"/>
<path d="M95.4545 45.13L94.505 46.9416V47.9095H93.9415V46.9416L92.9883 45.13H93.6238L94.2275 46.4L94.8268 45.13H95.4545Z" fill="#FCFCFC"/>
<path d="M97.0832 47.9371C96.8204 47.9371 96.5787 47.8761 96.359 47.7539C96.1389 47.6317 95.9648 47.4632 95.8358 47.2482C95.7073 47.0307 95.6426 46.7852 95.6426 46.5116C95.6426 46.2408 95.7073 45.9981 95.8358 45.7827C95.9648 45.5653 96.1389 45.3955 96.359 45.2733C96.5787 45.1512 96.8204 45.0901 97.0832 45.0901C97.3488 45.0901 97.5901 45.1512 97.8073 45.2733C98.0274 45.3955 98.2003 45.5653 98.3265 45.7827C98.455 45.9981 98.5197 46.2408 98.5197 46.5116C98.5197 46.7852 98.455 47.0307 98.3265 47.2482C98.2003 47.4632 98.0274 47.6317 97.8073 47.7539C97.5872 47.8761 97.346 47.9371 97.0832 47.9371ZM97.0832 47.4395C97.252 47.4395 97.4009 47.4021 97.5299 47.328C97.6584 47.251 97.7589 47.1423 97.8313 47.0014C97.9037 46.8605 97.94 46.6972 97.94 46.5116C97.94 46.3259 97.9037 46.1638 97.8313 46.0258C97.7589 45.8849 97.6584 45.7774 97.5299 45.7033C97.4009 45.6288 97.252 45.5917 97.0832 45.5917C96.9143 45.5917 96.7638 45.6288 96.6324 45.7033C96.5038 45.7774 96.4034 45.8849 96.3305 46.0258C96.2581 46.1638 96.2219 46.3259 96.2219 46.5116C96.2219 46.6972 96.2581 46.8605 96.3305 47.0014C96.4034 47.1423 96.5038 47.251 96.6324 47.328C96.7638 47.4021 96.9143 47.4395 97.0832 47.4395Z" fill="#FCFCFC"/>
<path d="M99.4937 45.13V46.85C99.4937 47.0385 99.5434 47.1834 99.6426 47.284C99.7419 47.3826 99.8814 47.4314 100.061 47.4314C100.244 47.4314 100.384 47.3826 100.484 47.284C100.583 47.1834 100.632 47.0385 100.632 46.85V45.13H101.2V46.8463C101.2 47.0825 101.147 47.2828 101.043 47.4473C100.941 47.6094 100.803 47.7315 100.628 47.8138C100.457 47.896 100.265 47.9371 100.053 47.9371C99.844 47.9371 99.6536 47.896 99.4819 47.8138C99.3127 47.7315 99.1788 47.6094 99.0796 47.4473C98.9803 47.2828 98.9307 47.0825 98.9307 46.8463V45.13H99.4937Z" fill="#FCFCFC"/>
<path d="M74.617 18.5283L67.7179 26.1208L67.521 18.5283H74.617Z" fill="#FFA700"/>
</g>
<defs>
<filter id="filter0_d_258_19726" x="-2.37256" y="0.5" width="135.745" height="72.7426" filterUnits="userSpaceOnUse" color-interpolation-filters="sRGB">
<feFlood flood-opacity="0" result="BackgroundImageFix"/>
<feColorMatrix in="SourceAlpha" type="matrix" values="0 0 0 0 0 0 0 0 0 0 0 0 0 0 0 0 0 0 127 0" result="hardAlpha"/>
<feOffset dy="4"/>
<feGaussianBlur stdDeviation="2"/>
<feComposite in2="hardAlpha" operator="out"/>
<feColorMatrix type="matrix" values="0 0 0 0 0 0 0 0 0 0 0 0 0 0 0 0 0 0 0.25 0"/>
<feBlend mode="normal" in2="BackgroundImageFix" result="effect1_dropShadow_258_19726"/>
<feBlend mode="normal" in="SourceGraphic" in2="effect1_dropShadow_258_19726" result="shape"/>
</filter>
<clipPath id="clip0_258_19726">
<rect width="131" height="68" fill="white" transform="translate(0 0.5)"/>
</clipPath>
</defs>
</svg>
