<svg width="58" height="58" viewBox="0 0 58 58" fill="none" xmlns="http://www.w3.org/2000/svg">
<g filter="url(#filter0_d_143_47540)">
<rect x="9" y="9" width="40" height="40" rx="20" fill="white"/>
<path opacity="0.5" d="M29 19C27.0222 19 25.0888 19.5865 23.4443 20.6853C21.7998 21.7841 20.5181 23.3459 19.7612 25.1732C19.0043 27.0004 18.8063 29.0111 19.1922 30.9509C19.578 32.8907 20.5304 34.6725 21.9289 36.0711C23.3275 37.4696 25.1093 38.422 27.0491 38.8079C28.9889 39.1937 30.9996 38.9957 32.8268 38.2388C34.6541 37.4819 36.2159 36.2002 37.3147 34.5557C38.4135 32.9112 39 30.9778 39 29C39 27.6868 38.7413 26.3864 38.2388 25.1732C37.7363 23.9599 36.9997 22.8575 36.0711 21.9289C35.1425 21.0003 34.0401 20.2638 32.8268 19.7612C31.6136 19.2587 30.3132 19 29 19ZM29 37C27.4178 37 25.871 36.5308 24.5554 35.6518C23.2398 34.7727 22.2145 33.5233 21.609 32.0615C21.0035 30.5997 20.845 28.9911 21.1537 27.4393C21.4624 25.8874 22.2243 24.462 23.3432 23.3431C24.462 22.2243 25.8874 21.4624 27.4393 21.1537C28.9911 20.845 30.5997 21.0035 32.0615 21.609C33.5233 22.2145 34.7727 23.2398 35.6518 24.5554C36.5308 25.871 37 27.4177 37 29C37 31.1217 36.1572 33.1566 34.6569 34.6569C33.1566 36.1571 31.1217 37 29 37Z" fill="#F26064"/>
<path d="M37 29H39C39 27.6868 38.7413 26.3864 38.2388 25.1732C37.7362 23.9599 36.9997 22.8575 36.0711 21.9289C35.1425 21.0003 34.0401 20.2638 32.8268 19.7612C31.6136 19.2587 30.3132 19 29 19V21C31.1217 21 33.1566 21.8429 34.6569 23.3431C36.1571 24.8434 37 26.8783 37 29Z" fill="#F26064"/>
</g>
<defs>
<filter id="filter0_d_143_47540" x="0.3" y="0.3" width="57.4" height="57.4" filterUnits="userSpaceOnUse" color-interpolation-filters="sRGB">
<feFlood flood-opacity="0" result="BackgroundImageFix"/>
<feColorMatrix in="SourceAlpha" type="matrix" values="0 0 0 0 0 0 0 0 0 0 0 0 0 0 0 0 0 0 127 0" result="hardAlpha"/>
<feOffset/>
<feGaussianBlur stdDeviation="4.35"/>
<feComposite in2="hardAlpha" operator="out"/>
<feColorMatrix type="matrix" values="0 0 0 0 0 0 0 0 0 0 0 0 0 0 0 0 0 0 0.16 0"/>
<feBlend mode="normal" in2="BackgroundImageFix" result="effect1_dropShadow_143_47540"/>
<feBlend mode="normal" in="SourceGraphic" in2="effect1_dropShadow_143_47540" result="shape"/>
</filter>
</defs>
</svg>
