<svg width="32" height="32" viewBox="0 0 32 32" fill="none" xmlns="http://www.w3.org/2000/svg">
<g clip-path="url(#clip0_930_2739)">
<rect width="32" height="32" fill="white"/>
<g filter="url(#filter0_d_930_2739)">
<path d="M11 15.5C11 17.9853 8.98523 20 6.49998 20C4.01471 20 2 17.9853 2 15.5C2 13.0147 4.01471 11 6.49998 11C8.98523 11 11 13.0147 11 15.5Z" fill="#F26064"/>
</g>
<g filter="url(#filter1_d_930_2739)">
<path d="M21 15.5C21 17.9853 18.9853 20 16.5 20C14.0147 20 12 17.9853 12 15.5C12 13.0147 14.0147 11 16.5 11C18.9853 11 21 13.0147 21 15.5Z" fill="#A8A8A8"/>
</g>
<g filter="url(#filter2_d_930_2739)">
<path d="M31 15.5C31 17.9853 28.9852 20 26.5 20C24.0147 20 22 17.9853 22 15.5C22 13.0147 24.0147 11 26.5 11C28.9852 11 31 13.0147 31 15.5Z" fill="#FEBB4D"/>
</g>
</g>
<defs>
<filter id="filter0_d_930_2739" x="-2" y="11" width="17" height="17" filterUnits="userSpaceOnUse" color-interpolation-filters="sRGB">
<feFlood flood-opacity="0" result="BackgroundImageFix"/>
<feColorMatrix in="SourceAlpha" type="matrix" values="0 0 0 0 0 0 0 0 0 0 0 0 0 0 0 0 0 0 127 0" result="hardAlpha"/>
<feOffset dy="4"/>
<feGaussianBlur stdDeviation="2"/>
<feComposite in2="hardAlpha" operator="out"/>
<feColorMatrix type="matrix" values="0 0 0 0 0 0 0 0 0 0 0 0 0 0 0 0 0 0 0.25 0"/>
<feBlend mode="normal" in2="BackgroundImageFix" result="effect1_dropShadow_930_2739"/>
<feBlend mode="normal" in="SourceGraphic" in2="effect1_dropShadow_930_2739" result="shape"/>
</filter>
<filter id="filter1_d_930_2739" x="8" y="11" width="17" height="17" filterUnits="userSpaceOnUse" color-interpolation-filters="sRGB">
<feFlood flood-opacity="0" result="BackgroundImageFix"/>
<feColorMatrix in="SourceAlpha" type="matrix" values="0 0 0 0 0 0 0 0 0 0 0 0 0 0 0 0 0 0 127 0" result="hardAlpha"/>
<feOffset dy="4"/>
<feGaussianBlur stdDeviation="2"/>
<feComposite in2="hardAlpha" operator="out"/>
<feColorMatrix type="matrix" values="0 0 0 0 0 0 0 0 0 0 0 0 0 0 0 0 0 0 0.25 0"/>
<feBlend mode="normal" in2="BackgroundImageFix" result="effect1_dropShadow_930_2739"/>
<feBlend mode="normal" in="SourceGraphic" in2="effect1_dropShadow_930_2739" result="shape"/>
</filter>
<filter id="filter2_d_930_2739" x="18" y="11" width="17" height="17" filterUnits="userSpaceOnUse" color-interpolation-filters="sRGB">
<feFlood flood-opacity="0" result="BackgroundImageFix"/>
<feColorMatrix in="SourceAlpha" type="matrix" values="0 0 0 0 0 0 0 0 0 0 0 0 0 0 0 0 0 0 127 0" result="hardAlpha"/>
<feOffset dy="4"/>
<feGaussianBlur stdDeviation="2"/>
<feComposite in2="hardAlpha" operator="out"/>
<feColorMatrix type="matrix" values="0 0 0 0 0 0 0 0 0 0 0 0 0 0 0 0 0 0 0.25 0"/>
<feBlend mode="normal" in2="BackgroundImageFix" result="effect1_dropShadow_930_2739"/>
<feBlend mode="normal" in="SourceGraphic" in2="effect1_dropShadow_930_2739" result="shape"/>
</filter>
<clipPath id="clip0_930_2739">
<rect width="32" height="32" fill="white"/>
</clipPath>
</defs>
</svg>
