<svg width="17" height="18" viewBox="0 0 17 18" fill="none" xmlns="http://www.w3.org/2000/svg">
<path d="M5.39467 16.0837C5.07733 16.0837 4.80722 15.9722 4.58433 15.7493C4.36144 15.5264 4.25 15.2566 4.25 14.9397V3.06095C4.25 2.73512 4.35932 2.46312 4.57796 2.24495C4.7966 2.02678 5.06883 1.91746 5.39467 1.91699H11.6606C11.977 1.91699 12.2468 2.02844 12.4702 2.25133C12.6931 2.47421 12.8045 2.74433 12.8045 3.06166V5.33824C12.9807 5.35713 13.1337 5.43033 13.2635 5.55783C13.3934 5.68485 13.4583 5.83785 13.4583 6.01683V7.26987C13.4583 7.44884 13.3934 7.60184 13.2635 7.72887C13.1337 7.8559 12.9807 7.92909 12.8045 7.94845V14.939C12.8045 15.2554 12.6931 15.5253 12.4702 15.7486C12.2473 15.9715 11.9774 16.083 11.6606 16.083L5.39467 16.0837ZM5.39467 15.3753H11.6606C11.7876 15.3753 11.892 15.3345 11.9737 15.2528C12.0554 15.1711 12.0962 15.0667 12.0962 14.9397V3.06095C12.0962 2.93392 12.0554 2.82956 11.9737 2.74787C11.892 2.66617 11.7876 2.62533 11.6606 2.62533H5.39467C5.26717 2.62533 5.16257 2.66617 5.08087 2.74787C4.99918 2.82956 4.95833 2.93416 4.95833 3.06166V14.9397C4.95833 15.0667 4.99918 15.1711 5.08087 15.2528C5.16257 15.3345 5.26717 15.3753 5.39467 15.3753ZM8.52762 4.96849C8.68251 4.96849 8.8119 4.91655 8.91579 4.81266C9.01968 4.70877 9.07162 4.57891 9.07162 4.42308C9.07162 4.26724 9.01968 4.13762 8.91579 4.0342C8.8119 3.93078 8.68228 3.87884 8.52692 3.87837C8.37156 3.8779 8.24193 3.92984 8.13804 4.0342C8.03415 4.13856 7.98221 4.26842 7.98221 4.42378C7.98221 4.57915 8.03415 4.70853 8.13804 4.81195C8.24193 4.91537 8.37179 4.96802 8.52762 4.96849Z" fill="black"/>
</svg>
