<svg width="13" height="16" viewBox="0 0 13 16" fill="none" xmlns="http://www.w3.org/2000/svg">
<path d="M6.5 2.33366C5.74855 2.33366 5.02788 2.63217 4.49653 3.16352C3.96518 3.69488 3.66667 4.41555 3.66667 5.16699C3.66667 5.91844 3.96518 6.63911 4.49653 7.17046C5.02788 7.70182 5.74855 8.00033 6.5 8.00033C7.25145 8.00033 7.97212 7.70182 8.50347 7.17046C9.03482 6.63911 9.33333 5.91844 9.33333 5.16699C9.33333 4.41555 9.03482 3.69488 8.50347 3.16352C7.97212 2.63217 7.25145 2.33366 6.5 2.33366ZM2.25 5.16699C2.25 4.03982 2.69777 2.95882 3.4948 2.16179C4.29183 1.36476 5.37283 0.916992 6.5 0.916992C7.62717 0.916992 8.70817 1.36476 9.5052 2.16179C10.3022 2.95882 10.75 4.03982 10.75 5.16699C10.75 6.29416 10.3022 7.37517 9.5052 8.1722C8.70817 8.96923 7.62717 9.41699 6.5 9.41699C5.37283 9.41699 4.29183 8.96923 3.4948 8.1722C2.69777 7.37517 2.25 6.29416 2.25 5.16699ZM3.66667 12.2503C3.10308 12.2503 2.56258 12.4742 2.16406 12.8727C1.76555 13.2712 1.54167 13.8117 1.54167 14.3753C1.54167 14.5632 1.46704 14.7434 1.3342 14.8762C1.20136 15.009 1.02119 15.0837 0.833333 15.0837C0.645472 15.0837 0.465304 15.009 0.332466 14.8762C0.199628 14.7434 0.125 14.5632 0.125 14.3753C0.125 13.436 0.498139 12.5352 1.16233 11.871C1.82652 11.2068 2.72736 10.8337 3.66667 10.8337H9.33333C10.2726 10.8337 11.1735 11.2068 11.8377 11.871C12.5019 12.5352 12.875 13.436 12.875 14.3753C12.875 14.5632 12.8004 14.7434 12.6675 14.8762C12.5347 15.009 12.3545 15.0837 12.1667 15.0837C11.9788 15.0837 11.7986 15.009 11.6658 14.8762C11.533 14.7434 11.4583 14.5632 11.4583 14.3753C11.4583 13.8117 11.2345 13.2712 10.8359 12.8727C10.4374 12.4742 9.89692 12.2503 9.33333 12.2503H3.66667Z" fill="black"/>
</svg>
