<svg width="26" height="26" viewBox="0 0 26 26" fill="none" xmlns="http://www.w3.org/2000/svg">
<g clip-path="url(#clip0_258_20059)">
<path d="M3.59845 18.5H13.1685C13.2191 18.5127 13.2721 18.5137 13.3232 18.5029C13.3743 18.4921 13.4223 18.4697 13.4635 18.4376C13.5047 18.4054 13.538 18.3643 13.5609 18.3174C13.5839 18.2704 13.5958 18.2188 13.5958 18.1666C13.5958 18.1143 13.5839 18.0627 13.5609 18.0158C13.538 17.9688 13.5047 17.9277 13.4635 17.8956C13.4223 17.8634 13.3743 17.8411 13.3232 17.8303C13.2721 17.8194 13.2191 17.8204 13.1685 17.8331H3.59845C3.35167 17.8322 3.11524 17.7338 2.94074 17.5593C2.76623 17.3848 2.6678 17.1484 2.66689 16.9016V6.345H22.2606V14.4816C22.2793 14.5559 22.3222 14.6219 22.3826 14.669C22.443 14.7161 22.5175 14.7417 22.5941 14.7417C22.6707 14.7417 22.7451 14.7161 22.8055 14.669C22.866 14.6219 22.9089 14.5559 22.9275 14.4816V3.59844C22.9271 3.38808 22.8852 3.17987 22.8043 2.98569C22.7233 2.79152 22.605 2.61518 22.4559 2.46675C22.3068 2.31832 22.13 2.20071 21.9355 2.12062C21.741 2.04054 21.5326 1.99955 21.3222 2H3.59845C3.1748 2.00091 2.76876 2.16961 2.46919 2.46918C2.16962 2.76875 2.00092 3.17479 2.00001 3.59844V6.00469V16.8913C1.99911 17.1019 2.03976 17.3107 2.11964 17.5056C2.19953 17.7005 2.31707 17.8777 2.46554 18.0272C2.61402 18.1766 2.79051 18.2953 2.98491 18.3764C3.17931 18.4576 3.3878 18.4996 3.59845 18.5ZM2.66689 3.59844C2.6678 3.35165 2.76623 3.11523 2.94074 2.94073C3.11524 2.76622 3.35167 2.66778 3.59845 2.66688H21.3222C21.569 2.66778 21.8054 2.76622 21.9799 2.94073C22.1544 3.11523 22.2529 3.35165 22.2538 3.59844V5.66094H2.66001L2.66689 3.59844Z" fill="black"/>
<path d="M4.93236 3.1001C4.72024 3.1001 4.51289 3.163 4.33651 3.28085C4.16014 3.39869 4.02268 3.5662 3.9415 3.76217C3.86033 3.95814 3.83909 4.17379 3.88047 4.38183C3.92185 4.58988 4.024 4.78098 4.17399 4.93097C4.32398 5.08096 4.51508 5.18311 4.72313 5.22449C4.93117 5.26587 5.14682 5.24463 5.34279 5.16346C5.53877 5.08228 5.70627 4.94482 5.82412 4.76845C5.94196 4.59208 6.00486 4.38472 6.00486 4.1726C6.00486 3.88815 5.89187 3.61536 5.69074 3.41423C5.4896 3.21309 5.21681 3.1001 4.93236 3.1001ZM4.93236 4.57822C4.85214 4.57822 4.77372 4.55443 4.70701 4.50986C4.64031 4.46529 4.58832 4.40194 4.55762 4.32782C4.52691 4.25371 4.51888 4.17215 4.53453 4.09346C4.55018 4.01478 4.58882 3.94251 4.64554 3.88578C4.70227 3.82905 4.77455 3.79042 4.85323 3.77477C4.93191 3.75912 5.01347 3.76715 5.08759 3.79785C5.16171 3.82855 5.22506 3.88054 5.26963 3.94724C5.3142 4.01395 5.33799 4.09237 5.33799 4.1726C5.33799 4.22587 5.3275 4.27861 5.30711 4.32782C5.28673 4.37704 5.25685 4.42175 5.21918 4.45942C5.18152 4.49708 5.1368 4.52696 5.08759 4.54735C5.03838 4.56773 4.98563 4.57822 4.93236 4.57822Z" fill="black"/>
<path d="M7.9226 3.1001C7.71048 3.1001 7.50312 3.163 7.32675 3.28085C7.15038 3.39869 7.01291 3.5662 6.93174 3.76217C6.85056 3.95814 6.82932 4.17379 6.87071 4.38183C6.91209 4.58988 7.01423 4.78098 7.16423 4.93097C7.31422 5.08096 7.50532 5.18311 7.71336 5.22449C7.92141 5.26587 8.13705 5.24463 8.33303 5.16346C8.529 5.08228 8.6965 4.94482 8.81435 4.76845C8.9322 4.59208 8.9951 4.38472 8.9951 4.1726C8.9951 3.88815 8.8821 3.61536 8.68097 3.41423C8.47984 3.21309 8.20704 3.1001 7.9226 3.1001ZM7.9226 4.57822C7.84237 4.57822 7.76395 4.55443 7.69724 4.50986C7.63054 4.46529 7.57855 4.40194 7.54785 4.32782C7.51715 4.25371 7.50912 4.17215 7.52477 4.09346C7.54042 4.01478 7.57905 3.94251 7.63578 3.88578C7.69251 3.82905 7.76478 3.79042 7.84346 3.77477C7.92215 3.75912 8.00371 3.76715 8.07782 3.79785C8.15194 3.82855 8.21529 3.88054 8.25986 3.94724C8.30443 4.01395 8.32822 4.09237 8.32822 4.1726C8.32822 4.28018 8.28549 4.38335 8.20942 4.45942C8.13335 4.53549 8.03018 4.57822 7.9226 4.57822Z" fill="black"/>
<path d="M10.9133 3.1001C10.7012 3.1001 10.4938 3.163 10.3175 3.28085C10.1411 3.39869 10.0036 3.5662 9.92246 3.76217C9.84129 3.95814 9.82005 4.17379 9.86143 4.38183C9.90281 4.58988 10.005 4.78098 10.1549 4.93097C10.3049 5.08096 10.496 5.18311 10.7041 5.22449C10.9121 5.26587 11.1278 5.24463 11.3237 5.16346C11.5197 5.08228 11.6872 4.94482 11.8051 4.76845C11.9229 4.59208 11.9858 4.38472 11.9858 4.1726C11.9858 3.88815 11.8728 3.61536 11.6717 3.41423C11.4706 3.21309 11.1978 3.1001 10.9133 3.1001ZM10.9133 4.57822C10.8331 4.57822 10.7547 4.55443 10.688 4.50986C10.6213 4.46529 10.5693 4.40194 10.5386 4.32782C10.5079 4.25371 10.4998 4.17215 10.5155 4.09346C10.5311 4.01478 10.5698 3.94251 10.6265 3.88578C10.6832 3.82905 10.7555 3.79042 10.8342 3.77477C10.9129 3.75912 10.9944 3.76715 11.0685 3.79785C11.1427 3.82855 11.206 3.88054 11.2506 3.94724C11.2952 4.01395 11.3189 4.09237 11.3189 4.1726C11.3189 4.28018 11.2762 4.38335 11.2001 4.45942C11.1241 4.53549 11.0209 4.57822 10.9133 4.57822Z" fill="black"/>
<path d="M6.54764 7.60995C6.49486 7.54021 6.41748 7.49321 6.33126 7.47852C6.24504 7.46383 6.15647 7.48256 6.08357 7.53089L4.40607 8.70995C4.36321 8.74126 4.32818 8.78207 4.30373 8.82919C4.27927 8.8763 4.26607 8.92844 4.26514 8.98151C4.26607 9.03458 4.27927 9.08672 4.30373 9.13384C4.32818 9.18095 4.36321 9.22176 4.40607 9.25307L6.0767 10.4356C6.14627 10.4607 6.22209 10.4627 6.29289 10.4413C6.36369 10.4199 6.4257 10.3762 6.46971 10.3168C6.51372 10.2573 6.53738 10.1853 6.53717 10.1113C6.53697 10.0373 6.51291 9.9654 6.46857 9.9062L5.18295 8.98151L6.46857 8.07401C6.53832 8.02123 6.58532 7.94386 6.60001 7.85764C6.6147 7.77142 6.59597 7.68284 6.54764 7.60995Z" fill="black"/>
<path d="M10.0025 10.3532C10.0548 10.4235 10.132 10.4711 10.2182 10.4865C10.3045 10.5018 10.3933 10.4836 10.4666 10.4357L12.1372 9.25317C12.1801 9.22186 12.2151 9.18105 12.2396 9.13394C12.264 9.08682 12.2772 9.03468 12.2782 8.98161C12.2772 8.92854 12.264 8.8764 12.2396 8.82928C12.2151 8.78217 12.1801 8.74136 12.1372 8.71005L10.4666 7.53099C10.4327 7.49093 10.3902 7.45916 10.3421 7.4381C10.2941 7.41704 10.2419 7.40726 10.1895 7.40949C10.1371 7.41173 10.0859 7.42592 10.0398 7.45099C9.99372 7.47607 9.954 7.51135 9.92366 7.55414C9.89333 7.59693 9.87319 7.64609 9.86479 7.69786C9.85639 7.74964 9.85995 7.80265 9.87519 7.85283C9.89043 7.90302 9.91696 7.94905 9.95274 7.98741C9.98851 8.02576 10.0326 8.05542 10.0816 8.07411L11.3672 8.98161L10.0816 9.9063C10.0164 9.95847 9.97239 10.0326 9.95784 10.1148C9.9433 10.1971 9.95918 10.2818 10.0025 10.3532Z" fill="black"/>
<path d="M9.21882 9.31482C9.29314 9.2962 9.35912 9.25327 9.40626 9.19285C9.4534 9.13244 9.479 9.05801 9.479 8.98139C9.479 8.90476 9.4534 8.83033 9.40626 8.76992C9.35912 8.70951 9.29314 8.66658 9.21882 8.64795H7.21819C7.14386 8.66658 7.07789 8.70951 7.03075 8.76992C6.98361 8.83033 6.95801 8.90476 6.95801 8.98139C6.95801 9.05801 6.98361 9.13244 7.03075 9.19285C7.07789 9.25327 7.14386 9.2962 7.21819 9.31482H9.21882Z" fill="black"/>
<path d="M4.6054 12.7802H9.18071C9.25504 12.7615 9.32101 12.7186 9.36815 12.6582C9.41529 12.5978 9.44089 12.5233 9.44089 12.4467C9.44089 12.3701 9.41529 12.2957 9.36815 12.2353C9.32101 12.1748 9.25504 12.1319 9.18071 12.1133H4.6054C4.53107 12.1319 4.4651 12.1748 4.41796 12.2353C4.37082 12.2957 4.34521 12.3701 4.34521 12.4467C4.34521 12.5233 4.37082 12.5978 4.41796 12.6582C4.4651 12.7186 4.53107 12.7615 4.6054 12.7802Z" fill="black"/>
<path d="M21.2877 12.4468C21.2877 12.3556 21.2515 12.2682 21.1871 12.2037C21.1226 12.1392 21.0352 12.103 20.944 12.103H11.1093C11.035 12.1217 10.969 12.1646 10.9219 12.225C10.8747 12.2854 10.8491 12.3598 10.8491 12.4365C10.8491 12.5131 10.8747 12.5875 10.9219 12.6479C10.969 12.7083 11.035 12.7513 11.1093 12.7699H20.9543C21.0402 12.7675 21.1221 12.733 21.1838 12.6731C21.2455 12.6133 21.2826 12.5326 21.2877 12.4468Z" fill="black"/>
<path d="M16.3788 14.0312C16.3045 14.0499 16.2385 14.0928 16.1914 14.1532C16.1443 14.2136 16.1187 14.2881 16.1187 14.3647C16.1187 14.4413 16.1443 14.5157 16.1914 14.5762C16.2385 14.6366 16.3045 14.6795 16.3788 14.6981H17.496C17.5704 14.6795 17.6363 14.6366 17.6835 14.5762C17.7306 14.5157 17.7562 14.4413 17.7562 14.3647C17.7562 14.2881 17.7306 14.2136 17.6835 14.1532C17.6363 14.0928 17.5704 14.0499 17.496 14.0312H16.3788Z" fill="black"/>
<path d="M14.7838 14.375C14.7838 14.2838 14.7476 14.1964 14.6832 14.1319C14.6187 14.0675 14.5313 14.0312 14.4401 14.0312H4.6054C4.53107 14.0499 4.4651 14.0928 4.41796 14.1532C4.37082 14.2136 4.34521 14.2881 4.34521 14.3647C4.34521 14.4413 4.37082 14.5157 4.41796 14.5762C4.4651 14.6366 4.53107 14.6795 4.6054 14.6981H14.4504C14.5363 14.6957 14.6182 14.6612 14.6799 14.6014C14.7416 14.5416 14.7787 14.4608 14.7838 14.375Z" fill="black"/>
<path d="M4.6054 16.0352C4.53107 16.0538 4.4651 16.0967 4.41796 16.1571C4.37082 16.2175 4.34521 16.292 4.34521 16.3686C4.34521 16.4452 4.37082 16.5196 4.41796 16.5801C4.4651 16.6405 4.53107 16.6834 4.6054 16.702H9.18071C9.25504 16.6834 9.32101 16.6405 9.36815 16.5801C9.41529 16.5196 9.44089 16.4452 9.44089 16.3686C9.44089 16.292 9.41529 16.2175 9.36815 16.1571C9.32101 16.0967 9.25504 16.0538 9.18071 16.0352H4.6054Z" fill="black"/>
<path d="M11.1093 16.0352C11.035 16.0538 10.969 16.0967 10.9219 16.1571C10.8747 16.2175 10.8491 16.292 10.8491 16.3686C10.8491 16.4452 10.8747 16.5196 10.9219 16.5801C10.969 16.6405 11.035 16.6834 11.1093 16.702H14.0965C14.1708 16.6834 14.2368 16.6405 14.2839 16.5801C14.3311 16.5196 14.3567 16.4452 14.3567 16.3686C14.3567 16.292 14.3311 16.2175 14.2839 16.1571C14.2368 16.0967 14.1708 16.0538 14.0965 16.0352H11.1093Z" fill="black"/>
<path d="M23.7424 18.0529L22.7834 17.8295C22.7417 17.689 22.6912 17.5512 22.6321 17.417L23.1409 16.5954C23.1781 16.5312 23.1935 16.4566 23.1848 16.3829C23.1762 16.3092 23.1439 16.2402 23.0927 16.1864L22.0615 15.1551C22.0074 15.1032 21.9378 15.0704 21.8633 15.0617C21.7889 15.0531 21.7136 15.0689 21.649 15.107L20.9065 15.5539C20.7405 15.4655 20.5681 15.3897 20.3909 15.327L20.1915 14.4883C20.1722 14.4167 20.1304 14.3533 20.0722 14.3074C20.0139 14.2616 19.9424 14.2358 19.8684 14.2339H18.3799C18.3052 14.2351 18.233 14.2605 18.1741 14.3064C18.1151 14.3523 18.0728 14.4161 18.0534 14.4883L17.8574 15.327C17.679 15.3897 17.5055 15.4656 17.3384 15.5539L16.5959 15.0933C16.5316 15.056 16.4571 15.0406 16.3833 15.0493C16.3096 15.0579 16.2406 15.0903 16.1868 15.1414L15.1555 16.1726C15.1044 16.2265 15.0721 16.2954 15.0634 16.3692C15.0548 16.4429 15.0702 16.5175 15.1074 16.5817L15.6162 17.4033C15.5575 17.538 15.5059 17.6757 15.4615 17.8158L14.5024 18.0392C14.4303 18.0586 14.3665 18.101 14.3206 18.1599C14.2747 18.2188 14.2492 18.2911 14.248 18.3658V19.8404C14.25 19.9145 14.2757 19.986 14.3216 20.0442C14.3674 20.1025 14.4309 20.1443 14.5024 20.1636L15.5921 20.4214C15.6265 20.5039 15.6643 20.5829 15.7021 20.662L15.1074 21.6211C15.0694 21.6857 15.0535 21.7609 15.0621 21.8354C15.0708 21.9099 15.1036 21.9795 15.1555 22.0336L16.1868 23.0648C16.2406 23.1159 16.3096 23.1483 16.3833 23.1569C16.4571 23.1656 16.5316 23.1502 16.5959 23.1129L17.6271 22.4667L17.7646 22.5217L18.043 23.7145C18.0618 23.7873 18.1039 23.8519 18.1629 23.8984C18.2219 23.945 18.2945 23.9709 18.3696 23.9723H19.8443C19.9188 23.9702 19.9907 23.9439 20.0489 23.8974C20.1072 23.8509 20.1488 23.7867 20.1674 23.7145L20.4493 22.5217L20.5868 22.4667L21.618 23.1129C21.6826 23.151 21.7579 23.1669 21.8324 23.1582C21.9069 23.1495 21.9764 23.1167 22.0305 23.0648L23.0618 22.0336C23.1137 21.9795 23.1465 21.9099 23.1552 21.8354C23.1639 21.7609 23.148 21.6857 23.1099 21.6211L22.5152 20.662C22.553 20.5829 22.5909 20.5039 22.6252 20.4214L23.7115 20.1636C23.7837 20.145 23.8479 20.1034 23.8944 20.0451C23.9409 19.9868 23.9672 19.915 23.9693 19.8404V18.3795C23.97 18.3083 23.9485 18.2386 23.9079 18.1801C23.8672 18.1216 23.8094 18.0772 23.7424 18.0529ZM23.3334 19.5895L22.333 19.8267C22.2796 19.8401 22.2302 19.8661 22.1889 19.9026C22.1476 19.9391 22.1157 19.985 22.0959 20.0364C22.0354 20.2051 21.9606 20.3684 21.8724 20.5245C21.8423 20.5768 21.8264 20.636 21.8264 20.6964C21.8264 20.7567 21.8423 20.816 21.8724 20.8683L22.4293 21.7654L21.759 22.4358L20.7965 21.8342C20.7493 21.8038 20.695 21.7862 20.6389 21.7832C20.5829 21.7802 20.527 21.7919 20.4768 21.817C20.3465 21.8797 20.2121 21.9337 20.0746 21.9786C20.0202 21.9969 19.9713 22.0285 19.9323 22.0705C19.8933 22.1125 19.8654 22.1636 19.8512 22.2192L19.5899 23.3329H18.6412L18.3799 22.2192C18.3657 22.1636 18.3378 22.1125 18.2988 22.0705C18.2598 22.0285 18.2108 21.9969 18.1565 21.9786C18.0204 21.933 17.8872 21.8791 17.7577 21.817C17.7075 21.7919 17.6517 21.7802 17.5956 21.7832C17.5396 21.7862 17.4852 21.8038 17.438 21.8342L16.4687 22.4323L15.7812 21.762L16.338 20.8648C16.3682 20.8126 16.3841 20.7533 16.3841 20.6929C16.3841 20.6326 16.3682 20.5733 16.338 20.5211C16.2499 20.365 16.1751 20.2017 16.1146 20.0329C16.0948 19.9815 16.0629 19.9357 16.0216 19.8992C15.9803 19.8627 15.9309 19.8366 15.8774 19.8233L14.8771 19.5861V18.6408L15.7709 18.4311C15.8301 18.4161 15.8842 18.3855 15.9277 18.3426C15.9712 18.2997 16.0025 18.246 16.0184 18.187C16.0731 17.9634 16.1527 17.7467 16.2555 17.5408C16.282 17.491 16.2959 17.4355 16.2959 17.3792C16.2959 17.3229 16.282 17.2674 16.2555 17.2176L15.7915 16.4683L16.479 15.7808L17.1665 16.207C17.2187 16.2372 17.278 16.2531 17.3384 16.2531C17.3987 16.2531 17.458 16.2372 17.5102 16.207C17.7389 16.0683 17.9852 15.9607 18.2424 15.8873C18.2985 15.8697 18.3491 15.838 18.3894 15.7953C18.4297 15.7526 18.4584 15.7002 18.4727 15.6433L18.6515 14.8801H19.6002L19.779 15.6433C19.7936 15.7006 19.8228 15.7532 19.8638 15.796C19.9047 15.8388 19.9561 15.8702 20.0127 15.8873C20.2697 15.9614 20.5159 16.0689 20.7449 16.207C20.7972 16.2372 20.8565 16.2531 20.9168 16.2531C20.9771 16.2531 21.0364 16.2372 21.0887 16.207L21.7762 15.7808L22.4465 16.4683L21.9824 17.2176C21.9559 17.2674 21.9421 17.3229 21.9421 17.3792C21.9421 17.4355 21.9559 17.491 21.9824 17.5408C22.0853 17.7467 22.1648 17.9634 22.2196 18.187C22.2355 18.246 22.2667 18.2997 22.3102 18.3426C22.3537 18.3855 22.4079 18.4161 22.4671 18.4311L23.3609 18.6408L23.3334 19.5895Z" fill="black"/>
<path d="M19.1152 16.8843C18.674 16.8843 18.2426 17.0151 17.8758 17.2603C17.5089 17.5054 17.223 17.8538 17.0541 18.2615C16.8852 18.6691 16.8411 19.1177 16.9271 19.5504C17.0132 19.9832 17.2257 20.3807 17.5377 20.6927C17.8497 21.0047 18.2472 21.2172 18.68 21.3033C19.1127 21.3894 19.5613 21.3452 19.969 21.1763C20.3766 21.0075 20.725 20.7215 20.9702 20.3547C21.2153 19.9878 21.3462 19.5565 21.3462 19.1152C21.3452 18.5238 21.1099 17.9569 20.6917 17.5387C20.2735 17.1205 19.7066 16.8852 19.1152 16.8843ZM19.1152 20.6655C18.8059 20.6655 18.5035 20.5738 18.2463 20.4019C17.9891 20.2301 17.7886 19.9858 17.6702 19.7C17.5518 19.4142 17.5209 19.0997 17.5812 18.7963C17.6416 18.4929 17.7905 18.2142 18.0093 17.9955C18.228 17.7768 18.5067 17.6278 18.8101 17.5675C19.1135 17.5071 19.428 17.5381 19.7138 17.6565C19.9996 17.7748 20.2438 17.9753 20.4157 18.2325C20.5875 18.4897 20.6793 18.7921 20.6793 19.1015C20.6811 19.308 20.642 19.5129 20.5642 19.7042C20.4864 19.8956 20.3715 20.0696 20.2261 20.2163C20.0806 20.363 19.9076 20.4795 19.7169 20.5589C19.5263 20.6384 19.3218 20.6793 19.1152 20.6793V20.6655Z" fill="black"/>
</g>
<defs>
<clipPath id="clip0_258_20059">
<rect width="22" height="22" fill="white" transform="translate(2 2)"/>
</clipPath>
</defs>
</svg>
