<svg width="21" height="21" viewBox="0 0 21 21" fill="none" xmlns="http://www.w3.org/2000/svg">
<g clip-path="url(#clip0_258_20124)">
<path d="M18.722 14.4109L17.4281 13.117L16.9969 13.3189L16.8343 12.8711H15.0046L14.8424 13.3185L14.4112 13.1167L13.1173 14.4105L13.3192 14.8417L12.8711 15.0046V16.8343L13.3185 16.9966L13.1167 17.4278L14.4105 18.7216L14.8417 18.5198L15.0046 18.9679H16.8343L16.9966 18.5204L17.4278 18.7223L18.7216 17.4284L18.5198 16.9973L18.9679 16.8343V15.0046L18.5204 14.8424L18.722 14.4109ZM18.2904 16.3595L18.0117 16.4611L17.862 16.5295L17.7174 16.8787L17.9074 17.2845L17.2848 17.907L16.879 17.717L16.5132 17.8681L16.3595 18.2904H15.4795L15.3779 18.0117L15.3095 17.862L14.9603 17.7174L14.5545 17.9074L13.9319 17.2848L14.1219 16.879L13.9709 16.5132L13.5485 16.3595V15.4795L13.8273 15.3779L13.977 15.3095L14.1216 14.9603L13.9316 14.5545L14.5541 13.9319L14.9599 14.1219L15.3257 13.9709L15.4795 13.5485H16.3595L16.4611 13.8273L16.5295 13.977L16.8787 14.1216L17.2845 13.9316L17.907 14.5541L17.717 14.9599L17.8681 15.3257L18.2904 15.4795V16.3595Z" fill="black"/>
<path d="M15.9191 14.2256C14.9853 14.2256 14.2256 14.9853 14.2256 15.9191C14.2256 16.853 14.9853 17.6127 15.9191 17.6127C16.853 17.6127 17.6127 16.853 17.6127 15.9191C17.6127 14.9853 16.853 14.2256 15.9191 14.2256ZM15.9191 16.9353C15.3589 16.9353 14.903 16.4794 14.903 15.9191C14.903 15.3589 15.3589 14.903 15.9191 14.903C16.4794 14.903 16.9353 15.3589 16.9353 15.9191C16.9353 16.4794 16.4794 16.9353 15.9191 16.9353Z" fill="black"/>
<path d="M20.9787 19.1486L19.8149 12.1675C19.6889 11.4121 19.0514 10.8638 18.2903 10.8428V9.81919V9.14516V1.01613C18.2903 0.455903 17.8344 0 17.2742 0H1.01613C0.455903 0 0 0.455903 0 1.01613V16.5968C0 17.157 0.455903 17.6129 1.01613 17.6129H11.1161L10.86 19.149C10.8458 19.2353 10.8387 19.3227 10.8387 19.4101C10.8387 20.287 11.5517 21 12.4286 21H19.4098C20.287 21 21 20.287 21 19.4101C21 19.3227 20.9929 19.2353 20.9787 19.1486ZM17.6129 10.8387H14.2258V9.14516C14.2258 8.21134 14.9855 7.45161 15.9194 7.45161C16.8532 7.45161 17.6129 8.21134 17.6129 9.14516V9.81886V10.8387ZM1.01613 0.677419H17.2742C17.4612 0.677419 17.6129 0.829161 17.6129 1.01613V4.06452H0.677419V1.01613C0.677419 0.829161 0.829161 0.677419 1.01613 0.677419ZM1.01613 16.9355C0.829161 16.9355 0.677419 16.7837 0.677419 16.5968V4.74194H17.6129V7.48921C17.1821 7.04855 16.5825 6.77419 15.9194 6.77419C14.6123 6.77419 13.5484 7.83808 13.5484 9.14516V10.8428C12.7873 10.8638 12.1499 11.4125 12.0239 12.1675L11.2292 16.9355H1.01613ZM19.4101 20.3226H12.4286C11.9256 20.3226 11.5161 19.9131 11.5161 19.4101C11.5161 19.36 11.5202 19.3095 11.5283 19.26L12.6921 12.2789C12.7656 11.8369 13.1443 11.5161 13.5924 11.5161H18.2463C18.6944 11.5161 19.0727 11.8369 19.1466 12.2786L20.3104 19.2594C20.3185 19.3095 20.3226 19.3596 20.3226 19.4101C20.3226 19.9131 19.9131 20.3226 19.4101 20.3226Z" fill="black"/>
<path d="M2.37111 3.38724C2.93134 3.38724 3.38724 2.93134 3.38724 2.37111C3.38724 1.81088 2.93134 1.35498 2.37111 1.35498C1.81088 1.35498 1.35498 1.81088 1.35498 2.37111C1.35498 2.93134 1.81088 3.38724 2.37111 3.38724ZM2.37111 2.0324C2.55808 2.0324 2.70982 2.18414 2.70982 2.37111C2.70982 2.55808 2.55808 2.70982 2.37111 2.70982C2.18414 2.70982 2.0324 2.55808 2.0324 2.37111C2.0324 2.18414 2.18414 2.0324 2.37111 2.0324Z" fill="black"/>
<path d="M5.08058 3.38724C5.64081 3.38724 6.09671 2.93134 6.09671 2.37111C6.09671 1.81088 5.64081 1.35498 5.08058 1.35498C4.52036 1.35498 4.06445 1.81088 4.06445 2.37111C4.06445 2.93134 4.52036 3.38724 5.08058 3.38724ZM5.08058 2.0324C5.26755 2.0324 5.41929 2.18414 5.41929 2.37111C5.41929 2.55808 5.26755 2.70982 5.08058 2.70982C4.89361 2.70982 4.74187 2.55808 4.74187 2.37111C4.74187 2.18414 4.89361 2.0324 5.08058 2.0324Z" fill="black"/>
<path d="M7.79054 3.38724C8.35077 3.38724 8.80667 2.93134 8.80667 2.37111C8.80667 1.81088 8.35077 1.35498 7.79054 1.35498C7.23032 1.35498 6.77441 1.81088 6.77441 2.37111C6.77441 2.93134 7.23032 3.38724 7.79054 3.38724ZM7.79054 2.0324C7.97751 2.0324 8.12925 2.18414 8.12925 2.37111C8.12925 2.55808 7.97751 2.70982 7.79054 2.70982C7.60358 2.70982 7.45183 2.55808 7.45183 2.37111C7.45183 2.18414 7.60358 2.0324 7.79054 2.0324Z" fill="black"/>
<path d="M1.35498 13.5485H10.8389V5.41943H1.35498V13.5485ZM2.0324 6.09685H10.1614V12.871H2.0324V6.09685Z" fill="black"/>
<path d="M8.80625 8.12923H7.23836L8.06549 6.97118C8.17421 6.8191 8.13899 6.60741 7.98691 6.49868C7.83517 6.38995 7.62347 6.42518 7.51441 6.57726L6.40615 8.12923H5.78665L4.67839 6.5776C4.57 6.42552 4.35797 6.38962 4.20589 6.49902C4.05381 6.60741 4.01825 6.8191 4.12731 6.97152L4.95478 8.12923H3.38689C3.0133 8.12923 2.70947 8.43305 2.70947 8.80665V9.48407C2.70947 9.85766 3.0133 10.1615 3.38689 10.1615H3.43871L3.63584 11.3446C3.71781 11.8364 4.13917 12.1937 4.63809 12.1937H7.55471C8.05397 12.1937 8.47533 11.8364 8.55696 11.3446L8.75442 10.1615H8.80625C9.17984 10.1615 9.48367 9.85766 9.48367 9.48407V8.80665C9.48367 8.43305 9.17984 8.12923 8.80625 8.12923ZM7.88902 11.2335C7.86192 11.3971 7.72136 11.5163 7.55505 11.5163H4.63842C4.47212 11.5163 4.33155 11.3971 4.30446 11.2335L4.12528 10.1615H8.06786L7.88902 11.2335ZM3.38689 9.48407V8.80665H8.80625L8.80692 9.48407H3.38689Z" fill="black"/>
<path d="M1.35498 16.2578H3.38724V14.2256H1.35498V16.2578ZM2.0324 14.903H2.70982V15.5804H2.0324V14.903Z" fill="black"/>
<path d="M4.06445 16.2578H6.09671V14.2256H4.06445V16.2578ZM4.74187 14.903H5.41929V15.5804H4.74187V14.903Z" fill="black"/>
<path d="M6.77441 16.2578H8.80667V14.2256H6.77441V16.2578ZM7.45183 14.903H8.12925V15.5804H7.45183V14.903Z" fill="black"/>
<path d="M12.1934 5.41943H12.8708V6.09685H12.1934V5.41943Z" fill="black"/>
<path d="M13.5483 5.41943H14.2258V6.09685H13.5483V5.41943Z" fill="black"/>
<path d="M16.2583 5.41943H16.9357V6.09685H16.2583V5.41943Z" fill="black"/>
<path d="M14.9033 5.41943H15.5807V6.09685H14.9033V5.41943Z" fill="black"/>
</g>
<defs>
<clipPath id="clip0_258_20124">
<rect width="21" height="21" fill="white"/>
</clipPath>
</defs>
</svg>
