<svg width="24" height="24" viewBox="0 0 24 24" fill="none" xmlns="http://www.w3.org/2000/svg">
<g clip-path="url(#clip0_258_20108)">
<g clip-path="url(#clip1_258_20108)">
<path d="M22.125 5.99998H21.638C22.0731 5.51463 22.3584 4.91364 22.4593 4.26965C22.5602 3.62567 22.4725 2.96623 22.2067 2.37102C21.941 1.77581 21.5085 1.2703 20.9616 0.915568C20.4148 0.560839 19.7769 0.37207 19.125 0.37207C18.4731 0.37207 17.8352 0.560839 17.2884 0.915568C16.7415 1.2703 16.309 1.77581 16.0433 2.37102C15.7775 2.96623 15.6898 3.62567 15.7907 4.26965C15.8916 4.91364 16.1769 5.51463 16.612 5.99998H12V2.24998C12 2.15053 11.9605 2.05514 11.8902 1.98482C11.8198 1.91449 11.7245 1.87498 11.625 1.87498H10.125C10.0255 1.87498 9.93016 1.91449 9.85983 1.98482C9.78951 2.05514 9.75 2.15053 9.75 2.24998V5.99998H9.375V0.749982C9.375 0.650526 9.33549 0.555144 9.26517 0.484817C9.19484 0.414491 9.09946 0.374982 9 0.374982H7.5C7.40054 0.374982 7.30516 0.414491 7.23483 0.484817C7.16451 0.555144 7.125 0.650526 7.125 0.749982V5.99998H6.75V3.37498C6.75 3.27553 6.71049 3.18014 6.64017 3.10982C6.56984 3.03949 6.47446 2.99998 6.375 2.99998H4.875C4.77554 2.99998 4.68016 3.03949 4.60984 3.10982C4.53951 3.18014 4.5 3.27553 4.5 3.37498V5.99998H1.875C1.47731 6.00043 1.09604 6.15861 0.814833 6.43982C0.533625 6.72102 0.375447 7.10229 0.375 7.49998V18.75C0.375447 19.1477 0.533625 19.5289 0.814833 19.8102C1.09604 20.0914 1.47731 20.2495 1.875 20.25H9.60469L9.10453 21.75H7.875C7.77554 21.75 7.68016 21.7895 7.60983 21.8598C7.53951 21.9301 7.5 22.0255 7.5 22.125V22.875H3.75C3.65054 22.875 3.55516 22.9145 3.48484 22.9848C3.41451 23.0551 3.375 23.1505 3.375 23.25C3.375 23.3494 3.41451 23.4448 3.48484 23.5151C3.55516 23.5855 3.65054 23.625 3.75 23.625H20.25C20.3495 23.625 20.4448 23.5855 20.5152 23.5151C20.5855 23.4448 20.625 23.3494 20.625 23.25C20.625 23.1505 20.5855 23.0551 20.5152 22.9848C20.4448 22.9145 20.3495 22.875 20.25 22.875H16.5V22.125C16.5 22.0255 16.4605 21.9301 16.3902 21.8598C16.3198 21.7895 16.2245 21.75 16.125 21.75H14.8955L14.3953 20.25H22.125C22.5227 20.2495 22.904 20.0914 23.1852 19.8102C23.4664 19.5289 23.6246 19.1477 23.625 18.75V7.49998C23.6246 7.10229 23.4664 6.72102 23.1852 6.43982C22.904 6.15861 22.5227 6.00043 22.125 5.99998ZM19.5 1.15217C20.0604 1.23395 20.5795 1.49447 20.98 1.89496C21.3805 2.29546 21.641 2.81453 21.7228 3.37498H19.5V1.15217ZM19.2802 4.12498H21.7228C21.658 4.57559 21.4771 5.00159 21.1978 5.36109C20.9185 5.72059 20.5505 6.00123 20.1299 6.1754C19.7093 6.34957 19.2506 6.41129 18.7989 6.35448C18.3472 6.29767 17.9181 6.12429 17.5538 5.85139L19.2802 4.12498ZM16.5 3.74998C16.5009 3.11904 16.7287 2.50946 17.1418 2.03253C17.5548 1.5556 18.1256 1.24313 18.75 1.15217V3.59483L17.0236 5.32123C16.6832 4.86817 16.4994 4.31667 16.5 3.74998ZM10.5 2.62498H11.25V9.74998H10.5V2.62498ZM9.375 6.74998H9.75V9.74998H9.375V6.74998ZM7.875 1.12498H8.625V9.74998H7.875V1.12498ZM6.75 6.74998H7.125V9.74998H6.75V6.74998ZM5.25 3.74998H6V9.74998H5.25V3.74998ZM15.75 22.5V22.875H8.25V22.5H15.75ZM9.89531 21.75L10.3955 20.25H13.6045L14.1047 21.75H9.89531ZM22.875 18.75C22.8747 18.9488 22.7956 19.1394 22.655 19.28C22.5144 19.4206 22.3238 19.4997 22.125 19.5H1.875C1.67617 19.4997 1.48555 19.4206 1.34496 19.28C1.20436 19.1394 1.12526 18.9488 1.125 18.75V18H22.875V18.75ZM22.875 17.25H1.125V7.49998C1.12526 7.30115 1.20436 7.11054 1.34496 6.96994C1.48555 6.82934 1.67617 6.75024 1.875 6.74998H4.5V9.74998H4.125V7.49998C4.125 7.40053 4.08549 7.30514 4.01516 7.23482C3.94484 7.16449 3.84946 7.12498 3.75 7.12498H2.25C2.15054 7.12498 2.05516 7.16449 1.98484 7.23482C1.91451 7.30514 1.875 7.40053 1.875 7.49998V10.125C1.875 10.2244 1.91451 10.3198 1.98484 10.3901C2.05516 10.4605 2.15054 10.5 2.25 10.5H14.25C14.3495 10.5 14.4448 10.4605 14.5152 10.3901C14.5855 10.3198 14.625 10.2244 14.625 10.125V7.49998C14.625 7.40053 14.5855 7.30514 14.5152 7.23482C14.4448 7.16449 14.3495 7.12498 14.25 7.12498H12.75C12.6505 7.12498 12.5552 7.16449 12.4848 7.23482C12.4145 7.30514 12.375 7.40053 12.375 7.49998V9.74998H12V6.74998H17.5819C18.0589 6.9964 18.5881 7.12498 19.125 7.12498C19.6619 7.12498 20.1911 6.9964 20.6681 6.74998H22.125C22.3238 6.75024 22.5144 6.82934 22.655 6.96994C22.7956 7.11054 22.8747 7.30115 22.875 7.49998V17.25ZM3.375 7.87498V9.74998H2.625V7.87498H3.375ZM13.125 9.74998V7.87498H13.875V9.74998H13.125Z" fill="black"/>
<path d="M4.5 18.375H2.25C2.15054 18.375 2.05516 18.4145 1.98484 18.4848C1.91451 18.5552 1.875 18.6505 1.875 18.75C1.875 18.8495 1.91451 18.9448 1.98484 19.0152C2.05516 19.0855 2.15054 19.125 2.25 19.125H4.5C4.59946 19.125 4.69484 19.0855 4.76516 19.0152C4.83549 18.9448 4.875 18.8495 4.875 18.75C4.875 18.6505 4.83549 18.5552 4.76516 18.4848C4.69484 18.4145 4.59946 18.375 4.5 18.375Z" fill="black"/>
<path d="M6 18.375H5.625C5.52554 18.375 5.43016 18.4145 5.35984 18.4848C5.28951 18.5552 5.25 18.6505 5.25 18.75C5.25 18.8495 5.28951 18.9448 5.35984 19.0152C5.43016 19.0855 5.52554 19.125 5.625 19.125H6C6.09946 19.125 6.19484 19.0855 6.26517 19.0152C6.33549 18.9448 6.375 18.8495 6.375 18.75C6.375 18.6505 6.33549 18.5552 6.26517 18.4848C6.19484 18.4145 6.09946 18.375 6 18.375Z" fill="black"/>
<path d="M16.125 9.75C16.1743 9.75007 16.2231 9.7404 16.2686 9.72155C16.3141 9.7027 16.3554 9.67505 16.3902 9.64017L17.7803 8.25H21C21.0995 8.25 21.1949 8.21049 21.2652 8.14017C21.3355 8.06984 21.375 7.97446 21.375 7.875C21.375 7.77554 21.3355 7.68016 21.2652 7.60983C21.1949 7.53951 21.0995 7.5 21 7.5H17.625C17.5758 7.5 17.527 7.5097 17.4815 7.52854C17.436 7.54739 17.3947 7.57501 17.3598 7.60983L15.8598 9.10983C15.8074 9.16227 15.7717 9.22909 15.7572 9.30184C15.7427 9.37458 15.7502 9.44998 15.7785 9.51851C15.8069 9.58703 15.855 9.6456 15.9167 9.68681C15.9783 9.72801 16.0508 9.75 16.125 9.75Z" fill="black"/>
<path d="M20.9998 13.875C20.8028 13.8751 20.6092 13.927 20.4385 14.0255C20.2678 14.124 20.126 14.2656 20.0272 14.4361L16.1014 12.1458C16.0482 11.8902 15.9078 11.6611 15.7043 11.4977C15.5007 11.3343 15.2467 11.2468 14.9857 11.2501C14.7247 11.2534 14.4729 11.3474 14.2736 11.5159C14.0743 11.6845 13.9398 11.9171 13.8931 12.1739L9.9425 15.1369C9.83503 14.9714 9.68587 14.8371 9.51004 14.7475C9.3342 14.6579 9.13788 14.6162 8.94081 14.6266C8.74374 14.6369 8.55287 14.699 8.38739 14.8065C8.22191 14.914 8.08766 15.0632 7.99813 15.2391L4.09344 13.612C4.03183 13.3551 3.88182 13.1281 3.66969 12.9707C3.45755 12.8133 3.19679 12.7355 2.93308 12.751C2.66936 12.7664 2.4195 12.8742 2.22723 13.0553C2.03495 13.2365 1.91253 13.4795 1.88139 13.7418C1.85024 14.0042 1.91237 14.2691 2.05688 14.4902C2.2014 14.7113 2.41909 14.8746 2.67185 14.9514C2.92462 15.0282 3.19633 15.0136 3.43943 14.9102C3.68253 14.8068 3.88152 14.6213 4.00156 14.3859L7.90625 16.013C7.96654 16.2639 8.11125 16.4864 8.31613 16.6432C8.521 16.8001 8.77358 16.8818 9.03151 16.8745C9.28943 16.8672 9.53702 16.7715 9.73276 16.6034C9.9285 16.4353 10.0605 16.205 10.1066 15.9511L14.0572 12.9881C14.1618 13.1493 14.3061 13.281 14.4762 13.3706C14.6463 13.4602 14.8365 13.5046 15.0286 13.4996C15.2208 13.4947 15.4085 13.4406 15.5737 13.3424C15.739 13.2442 15.8763 13.1053 15.9725 12.9389L19.8983 15.2292C19.9416 15.4374 20.0431 15.6291 20.1909 15.782C20.3387 15.9349 20.5269 16.0427 20.7335 16.0931C20.9402 16.1434 21.1568 16.1341 21.3584 16.0663C21.56 15.9985 21.7382 15.8749 21.8724 15.7099C22.0066 15.5449 22.0913 15.3453 22.1167 15.1341C22.142 14.9229 22.107 14.7089 22.0157 14.5169C21.9243 14.3248 21.7804 14.1626 21.6006 14.0489C21.4208 13.9353 21.2125 13.875 20.9998 13.875ZM3.37485 13.8769C3.3746 13.9765 3.33482 14.0719 3.26424 14.1423C3.19366 14.2126 3.09806 14.252 2.99844 14.2519C2.89882 14.2517 2.80332 14.2121 2.73292 14.1416C2.66251 14.0711 2.62297 13.9756 2.62297 13.8759C2.62297 13.7763 2.66251 13.6808 2.73292 13.6103C2.80332 13.5398 2.89882 13.5001 2.99844 13.5C3.09806 13.4999 3.19366 13.5393 3.26424 13.6096C3.33482 13.6799 3.3746 13.7754 3.37485 13.875V13.8769ZM8.99985 16.125C8.90043 16.1249 8.80513 16.0853 8.73483 16.015C8.66454 15.9447 8.62498 15.8494 8.62485 15.75V15.7481C8.62522 15.674 8.64752 15.6017 8.68895 15.5403C8.73038 15.4789 8.78908 15.4311 8.85763 15.403C8.92619 15.3749 9.00153 15.3678 9.07415 15.3824C9.14677 15.3971 9.21341 15.433 9.26567 15.4855C9.31792 15.538 9.35345 15.6048 9.36777 15.6775C9.38209 15.7502 9.37456 15.8255 9.34612 15.8939C9.31768 15.9623 9.26962 16.0208 9.20799 16.0619C9.14636 16.103 9.07393 16.125 8.99985 16.125ZM14.9998 12.75C14.9257 12.75 14.8532 12.728 14.7915 12.6868C14.7298 12.6456 14.6818 12.587 14.6534 12.5185C14.625 12.45 14.6176 12.3746 14.6321 12.3018C14.6465 12.2291 14.6822 12.1623 14.7347 12.1098C14.7871 12.0574 14.8539 12.0217 14.9267 12.0072C14.9994 11.9927 15.0748 12.0002 15.1434 12.0285C15.2119 12.0569 15.2704 12.105 15.3116 12.1667C15.3529 12.2283 15.3748 12.3008 15.3748 12.375C15.3747 12.4744 15.3352 12.5697 15.2649 12.64C15.1946 12.7103 15.0993 12.7499 14.9998 12.75ZM20.9998 15.375C20.9257 15.375 20.8532 15.353 20.7915 15.3118C20.7298 15.2706 20.6818 15.212 20.6534 15.1435C20.625 15.075 20.6176 14.9996 20.6321 14.9268C20.6465 14.8541 20.6822 14.7873 20.7347 14.7348C20.7871 14.6824 20.8539 14.6467 20.9267 14.6322C20.9994 14.6177 21.0748 14.6252 21.1434 14.6535C21.2119 14.6819 21.2704 14.73 21.3116 14.7917C21.3529 14.8533 21.3748 14.9258 21.3748 15C21.3747 15.0994 21.3352 15.1947 21.2649 15.265C21.1946 15.3353 21.0993 15.3749 20.9998 15.375Z" fill="black"/>
<path d="M18 16.125H15.375C15.2755 16.125 15.1802 16.1645 15.1098 16.2348C15.0395 16.3052 15 16.4005 15 16.5C15 16.5995 15.0395 16.6948 15.1098 16.7652C15.1802 16.8355 15.2755 16.875 15.375 16.875H18C18.0995 16.875 18.1948 16.8355 18.2652 16.7652C18.3355 16.6948 18.375 16.5995 18.375 16.5C18.375 16.4005 18.3355 16.3052 18.2652 16.2348C18.1948 16.1645 18.0995 16.125 18 16.125Z" fill="black"/>
<path d="M18 15H16.875C16.7755 15 16.6802 15.0395 16.6098 15.1098C16.5395 15.1802 16.5 15.2755 16.5 15.375C16.5 15.4745 16.5395 15.5698 16.6098 15.6402C16.6802 15.7105 16.7755 15.75 16.875 15.75H18C18.0995 15.75 18.1948 15.7105 18.2652 15.6402C18.3355 15.5698 18.375 15.4745 18.375 15.375C18.375 15.2755 18.3355 15.1802 18.2652 15.1098C18.1948 15.0395 18.0995 15 18 15Z" fill="black"/>
<path d="M2.25 11.625H6.375C6.47446 11.625 6.56984 11.5855 6.64017 11.5152C6.71049 11.4448 6.75 11.3495 6.75 11.25C6.75 11.1505 6.71049 11.0552 6.64017 10.9848C6.56984 10.9145 6.47446 10.875 6.375 10.875H2.25C2.15054 10.875 2.05516 10.9145 1.98484 10.9848C1.91451 11.0552 1.875 11.1505 1.875 11.25C1.875 11.3495 1.91451 11.4448 1.98484 11.5152C2.05516 11.5855 2.15054 11.625 2.25 11.625Z" fill="black"/>
<path d="M7.5 11.625H7.875C7.97446 11.625 8.06984 11.5855 8.14017 11.5152C8.21049 11.4448 8.25 11.3495 8.25 11.25C8.25 11.1505 8.21049 11.0552 8.14017 10.9848C8.06984 10.9145 7.97446 10.875 7.875 10.875H7.5C7.40054 10.875 7.30516 10.9145 7.23483 10.9848C7.16451 11.0552 7.125 11.1505 7.125 11.25C7.125 11.3495 7.16451 11.4448 7.23483 11.5152C7.30516 11.5855 7.40054 11.625 7.5 11.625Z" fill="black"/>
</g>
</g>
<defs>
<clipPath id="clip0_258_20108">
<rect width="24" height="24" fill="white"/>
</clipPath>
<clipPath id="clip1_258_20108">
<rect width="24" height="24" fill="white"/>
</clipPath>
</defs>
</svg>
