<svg width="18" height="18" viewBox="0 0 18 18" fill="none" xmlns="http://www.w3.org/2000/svg">
<path d="M4.5 3.75C4.5 3.35218 4.65804 2.97064 4.93934 2.68934C5.22064 2.40804 5.60218 2.25 6 2.25H12C12.3978 2.25 12.7794 2.40804 13.0607 2.68934C13.342 2.97064 13.5 3.35218 13.5 3.75V14.25C13.5 14.6478 13.342 15.0294 13.0607 15.3107C12.7794 15.592 12.3978 15.75 12 15.75H6C5.60218 15.75 5.22064 15.592 4.93934 15.3107C4.65804 15.0294 4.5 14.6478 4.5 14.25V3.75Z" stroke="black" stroke-width="2" stroke-linecap="round" stroke-linejoin="round"/>
<path d="M8.25 3H9.75" stroke="black" stroke-width="2" stroke-linecap="round" stroke-linejoin="round"/>
<path d="M9 12.75V12.7583" stroke="black" stroke-width="2" stroke-linecap="round" stroke-linejoin="round"/>
</svg>
